<?xml version="1.0" encoding="UTF-8"?>
<!DOCTYPE svg PUBLIC "-//W3C//DTD SVG 1.1//EN" "http://www.w3.org/Graphics/SVG/1.1/DTD/svg11.dtd">
<!-- Creator: CorelDRAW -->
<svg xmlns="http://www.w3.org/2000/svg" xml:space="preserve" width="70mm" height="29.8613mm" version="1.1" style="shape-rendering:geometricPrecision; text-rendering:geometricPrecision; image-rendering:optimizeQuality; fill-rule:evenodd; clip-rule:evenodd"
viewBox="0 0 6985.81 2980.08"
 xmlns:xlink="http://www.w3.org/1999/xlink"
 xmlns:xodm="http://www.corel.com/coreldraw/odm/2003">
 <defs>
  <style type="text/css">
   <![CDATA[
    .fil1 {fill:#008DD0}
    .fil0 {fill:#007CC2}
    .fil2 {fill:#201E1E;fill-rule:nonzero}
   ]]>
  </style>
 </defs>
 <g id="Camada_x0020_1">
  <metadata id="CorelCorpID_0Corel-Layer"/>
  <g id="_2348197383536">
   <g>
    <path class="fil0" d="M629.22 497.31c-361.03,125.24 -481.99,522.14 -423.69,718.47 157.77,531.31 1567.52,1110.5 3651.21,1115.54 -875.61,-56.6 -1820.47,-215.89 -2521.74,-576.99 -266.81,-137.38 -660.57,-385.65 -777.19,-684.99 -73.09,-187.64 -25,-400.01 69.94,-569.44l1.47 -2.59z"/>
    <path class="fil1" d="M1254.35 0c-122.47,193.55 -170.93,373.01 -154.82,540.15 50.12,519.44 557.24,1032.51 1557.9,1377.73 567.57,195.8 1293.9,337.64 2185.7,396.02 -1507.79,17.95 -2738.8,-210.94 -3489.6,-597.55 -408.93,-210.57 -673.46,-447.47 -757.33,-662.79 -117.03,-300.4 77.31,-768.29 658.15,-1053.56z"/>
    <path class="fil2" d="M2139.27 1013.33c0,127.54 -91.64,191.14 -274.75,191.14 -62.27,0 -120.19,-7.36 -173.61,-22.36l23.87 -109.17c52.92,18.36 102.66,27.36 149.74,27.36 52.08,0 89.64,-5 112.33,-15.02 22.87,-10.18 34.4,-27.2 34.4,-50.92 0,-24.86 -10.87,-45.73 -32.39,-62.58 -18.53,-15.03 -56.26,-34.56 -113.01,-58.76 -51.42,-22.04 -89.81,-46.24 -114.85,-72.28 -31.55,-32.87 -47.4,-73.62 -47.4,-121.85 0,-56.08 20.71,-99.82 62.27,-131.53 41.56,-31.55 101.31,-47.4 179.27,-47.4 63.93,0 117.51,5.33 160.91,16.19l-18.19 108.51c-43.9,-16.03 -91.47,-23.87 -142.72,-23.87 -76.95,0 -115.35,20.53 -115.35,61.59 0,21.87 8.85,39.56 26.89,53.25 15.69,11.67 49.74,28.2 102.15,49.39 55.75,22.54 97.47,47.24 125.19,74.29 36.9,36.22 55.26,80.97 55.26,134.03zm636.8 -463.2c-2.99,109.67 -4.33,219.16 -4.33,328.67 0,216.5 -88.81,324.82 -266.07,324.82 -87.81,0 -153.75,-24.03 -198.14,-71.93 -44.23,-47.91 -66.45,-134.03 -66.45,-258.23 0,-109.5 -1.5,-217.34 -4.5,-323.33l138.54 0c-4.33,110.35 -6.5,216.5 -6.5,318.99 0,89.64 11.51,151.06 34.38,184.29 22.69,33.2 57.91,49.91 105.5,49.91 49.9,0 85.97,-16.54 108.17,-49.58 22.19,-33.22 33.2,-94.98 33.2,-185.62 0,-99.49 -2.17,-205.47 -6.34,-317.98l132.53 0zm594.58 166.92c0,77.78 -28.88,135.37 -86.79,172.6 -57.92,37.05 -128.87,55.75 -212.99,55.75 -15.37,0 -26.23,-0.33 -32.72,-0.99 0,61.26 1.84,142.04 5.34,242.53l-137.37 0c4.17,-94.14 6.34,-205.13 6.34,-333.01 0,-117.34 -2.17,-218.66 -6.34,-303.79l85.12 0c12.04,0 35.22,-0.33 69.44,-1.34 34.23,-1 63.77,-1.51 88.97,-1.51 61.94,0 114.18,14.03 156.9,42.07 42.74,28.04 64.11,70.6 64.11,127.69zm-126.19 26.89c0,-69.79 -46.24,-104.67 -138.88,-104.67 -23.04,0 -47.57,2.34 -73.28,7.35 3.51,61.59 5.35,131.37 5.35,209.31 8.17,0.5 17.52,0.85 28.37,0.85 119.01,0 178.44,-37.56 178.44,-112.84zm807.91 112.84c0,100.15 -30.56,183.11 -91.96,249.03 -61.27,65.77 -137.06,98.66 -227.36,98.66 -86.15,0 -158.08,-30.21 -216.16,-90.65 -58.08,-60.42 -86.97,-137.37 -86.97,-230.52 0,-100.16 30.54,-183.1 91.8,-249.04 61.43,-65.77 137.21,-98.64 227.52,-98.64 85.97,0 158.09,30.04 216.17,90.46 57.91,60.27 86.96,137.21 86.96,230.7zm-134.87 14.18c0,-68.11 -17.53,-123.37 -52.42,-165.75 -34.88,-42.39 -77.95,-63.6 -129.04,-63.6 -47.73,0 -88.12,21.37 -121.34,64.09 -33.22,42.74 -49.91,96.65 -49.91,161.92 0,67.77 17.52,123.02 52.58,165.58 35.05,42.4 77.95,63.77 128.87,63.77 47.57,0 87.96,-21.37 121.35,-64.27 33.2,-42.89 49.91,-96.82 49.91,-161.74zm758.48 315.98l-144.72 0c-37.89,-115.34 -66.92,-186.61 -87.12,-213.67 -20.21,-27.03 -52.75,-40.55 -97.82,-40.55 -18.86,0 -36.89,0.16 -54.25,0.33 0,83.79 1.51,168.43 4.34,253.88l-135.86 0c4.17,-98.49 6.34,-209.49 6.34,-333.01 0,-118.68 -2.17,-220 -6.34,-303.79l84.62 0c9.68,0 30.21,-0.33 61.26,-1.34 31.22,-1 59.92,-1.51 86.47,-1.51 149.56,0 224.34,51.25 224.34,153.58 0,81.13 -42.74,137.7 -128.04,169.59l0 7.35c32.89,9.19 61.75,34.9 86.47,77.12 24.86,42.22 58.25,119.51 100.31,232.02zm-183.44 -449.86c0,-64.94 -41.74,-97.31 -125.19,-97.31 -30.56,0 -57.75,2.17 -81.13,6.85 3.5,50.41 5.35,116.34 5.35,197.47 17.85,0.66 33.03,1.01 45.38,1.01 103.84,0 155.58,-36.07 155.58,-108.01zm710.09 -186.95l-3.51 105.17c-65.09,-4.85 -126.51,-7.36 -184.28,-7.36 -0.67,61.76 -1,130.38 -1,205.98 0,117.35 1.84,228.36 5.35,333.01l-136.87 0c4.16,-103.65 6.34,-214.65 6.34,-333.01 0,-74.27 -0.67,-143.05 -2.01,-205.98 -45.9,0 -109,2.68 -189.14,7.84l3.84 -105.66 501.27 0zm526.65 0l-3.51 105.17c-65.09,-4.85 -126.51,-7.36 -184.29,-7.36 -0.66,61.76 -0.99,130.38 -0.99,205.98 0,117.35 1.84,228.36 5.35,333.01l-136.88 0c4.17,-103.65 6.34,-214.65 6.34,-333.01 0,-74.27 -0.66,-143.05 -2,-205.98 -45.91,0 -109.01,2.68 -189.14,7.84l3.84 -105.66 501.27 0zm501.27 529.15l-4.01 107.66 -416.11 0c4.16,-98.49 6.34,-209.49 6.34,-333.01 0,-118.68 -2.18,-220 -6.34,-303.79l397.09 0 -5.34 107.16c-97.81,-5.18 -186.62,-7.84 -266.07,-7.84 3.16,45.41 4.83,98.82 4.83,160.41 68.11,0 141.04,-1.84 218.68,-5.35l0 102.17c-76.29,-3.18 -149.24,-4.85 -218.68,-4.85 0,66.11 1.34,128.2 4,185.78 89.31,0 184.46,-2.66 285.61,-8.34zm563.68 -8.17l-8.17 112.33c-46.4,11.19 -91.97,16.7 -137.04,16.7 -111.83,0 -196.96,-30.89 -255.56,-92.64 -58.41,-61.76 -87.63,-136.88 -87.63,-225.19 0,-91.63 31.06,-171.42 93.15,-239.18 62.08,-67.77 147.21,-101.65 255.56,-101.65 39.72,0 77.28,4.5 112.83,13.67l-17.03 113.01c-38.55,-12.51 -75.29,-18.69 -110.51,-18.69 -66.27,0 -115.51,21.04 -147.72,62.93 -32.37,41.9 -48.4,92.81 -48.4,152.74 0,61.26 19.18,114.5 57.4,159.4 38.4,45.08 91.98,67.6 161.09,67.6 40.56,0 84.46,-7 132.02,-21.02z"/>
   </g>
   <path class="fil2" d="M90.18 2980.08c-17.94,0 -33.69,-3.95 -47.31,-11.92 -13.61,-7.96 -24.13,-19.27 -31.62,-33.87 -7.47,-14.59 -11.25,-31.56 -11.25,-50.77l0 -71.09c0,-19.21 3.77,-36.18 11.25,-50.77 7.48,-14.59 18,-25.91 31.62,-33.93 13.62,-8.02 29.37,-12.04 47.31,-12.04 14.83,0 28.51,3.22 40.98,9.54 12.46,6.39 22.86,15.33 31.26,27.01 8.39,11.61 14.04,25.11 17.03,40.43l0 0 -37.27 0 0 0c-2.25,-8.08 -6.02,-15.32 -11.31,-21.65 -5.29,-6.38 -11.5,-11.25 -18.61,-14.71 -7.11,-3.4 -14.47,-5.17 -22.07,-5.17 -10.58,0 -19.83,2.55 -27.79,7.66 -7.96,5.1 -14.16,12.28 -18.54,21.46 -4.38,9.25 -6.57,19.95 -6.57,32.16l0 71.09c0,12.1 2.19,22.8 6.57,32.04 4.38,9.3 10.58,16.42 18.54,21.47 7.96,5.04 17.22,7.59 27.79,7.59 7.71,0 15.08,-1.58 22.19,-4.8 7.05,-3.22 13.19,-7.96 18.48,-14.29 5.29,-6.26 9.06,-13.74 11.31,-22.43l0 0 37.27 0 0 0c-2.98,15.32 -8.69,28.82 -17.15,40.44 -8.39,11.67 -18.85,20.67 -31.32,27 -12.46,6.39 -26.09,9.54 -40.8,9.54zm328.8 -261.7l30.95 0 95.53 259.02 -39.22 0 -71.8 -208.99 -71.75 208.99 -39.22 0 95.53 -259.02zm-51.5 167.64l136.26 0 0 34.54 -136.26 0 0 -34.54zm345.16 -167.64l36.37 0 0 259.02 -36.37 0 0 -259.02zm18.18 224.49l148.24 0 0 34.53 -148.24 0 0 -34.53zm318.95 -224.49l36.37 0 0 259.02 -36.37 0 0 -259.02zm17.63 224.49l148.79 0 0 34.53 -148.79 0 0 -34.53zm0 -111.33l129.15 0 0 34.53 -129.15 0 0 -34.53zm0 -113.16l148.79 0 0 34.6 -148.79 0 0 -34.6zm328.44 0l32.95 0 126.66 200.23 -4.26 4.62 0 -204.85 36 0 0 258.84 -33.32 0 -126.28 -197.19 4.25 -4.62 0 201.81 -36 0 0 -258.84zm408.1 224.49l58.61 0c19.09,0 33.93,-4.99 44.39,-14.9 10.52,-9.91 15.81,-23.9 15.81,-41.95l0 -76.26c0,-18.05 -5.29,-32.04 -15.81,-41.95 -10.46,-9.91 -25.3,-14.83 -44.39,-14.83l-58.61 0 0 -34.6 57.51 0c20.8,0 38.55,3.64 53.27,10.89 14.71,7.24 25.96,17.81 33.68,31.68 7.72,13.92 11.56,30.65 11.56,50.29l0 73.39c0,19.58 -3.83,36.3 -11.56,50.22 -7.72,13.87 -18.97,24.45 -33.8,31.69 -14.78,7.24 -32.53,10.88 -53.33,10.88l-57.33 0 0 -34.53zm-24.63 -224.49l36.37 0 0 259.02 -36.37 0 0 -259.02zm430.89 0l30.96 0 95.53 259.02 -39.22 0 -71.81 -208.99 -71.75 208.99 -39.21 0 95.52 -259.02zm-51.5 167.64l136.26 0 0 34.54 -136.26 0 0 -34.54zm50.22 -206.43l49.2 -43.66 23.46 24.38 -52.53 40.26 -20.13 -20.98zm310.81 153.71l88.35 0c6.88,0 13.01,-1.64 18.36,-4.98 5.36,-3.34 9.49,-8.03 12.4,-14.17 2.86,-6.14 4.32,-13.13 4.32,-21.1l0 0c0,-7.96 -1.46,-15.02 -4.32,-21.1 -2.91,-6.15 -7.05,-10.89 -12.34,-14.17 -5.22,-3.34 -11.43,-4.99 -18.42,-4.99l-88.35 0 0 -34.59 86.95 0c14.96,0 28.09,3.09 39.46,9.3 11.32,6.14 20.13,14.9 26.34,26.27 6.26,11.31 9.36,24.44 9.36,39.28l0 0c0,14.83 -3.16,27.9 -9.42,39.28 -6.33,11.31 -15.15,20.06 -26.46,26.27 -11.37,6.14 -24.44,9.24 -39.28,9.24l-86.95 0 0 -34.54zm-15.87 -115.1l36.37 0 0 259.2 -36.37 0 0 -259.2zm86.4 141.61l36.18 -8.15 66.29 125.74 -43.11 0 -59.35 -117.59zm315.8 117.59l-36.37 0 0 -259.02 36.37 0 0 259.02zm277.85 2.67c-18.05,0 -33.98,-3.95 -47.78,-11.86 -13.74,-7.9 -24.39,-19.03 -31.99,-33.5 -7.54,-14.41 -11.32,-31.13 -11.32,-50.1l0 -73.39c0,-19.03 3.77,-35.76 11.32,-50.17 7.59,-14.41 18.24,-25.6 31.99,-33.5 13.8,-7.9 29.73,-11.86 47.78,-11.86 18,0 33.93,3.95 47.73,11.86 13.74,7.9 24.45,19.09 31.99,33.5 7.54,14.41 11.32,31.14 11.32,50.17l0 73.39c0,18.97 -3.77,35.69 -11.32,50.1 -7.53,14.47 -18.24,25.6 -31.99,33.5 -13.8,7.9 -29.73,11.86 -47.73,11.86zm0 -35.81c10.65,0 20.07,-2.38 28.22,-7.24 8.14,-4.81 14.41,-11.62 18.84,-20.44 4.5,-8.87 6.7,-19.09 6.7,-30.77l0 -75.88c0,-11.62 -2.2,-21.9 -6.7,-30.71 -4.43,-8.88 -10.7,-15.69 -18.84,-20.49 -8.15,-4.81 -17.57,-7.25 -28.22,-7.25 -10.7,0 -20.12,2.44 -28.27,7.25 -8.14,4.8 -14.41,11.61 -18.84,20.49 -4.5,8.81 -6.7,19.09 -6.7,30.71l0 75.88c0,11.68 2.2,21.9 6.7,30.77 4.43,8.82 10.7,15.63 18.84,20.44 8.15,4.86 17.57,7.24 28.27,7.24zm400.38 -1.4l58.62 0c19.09,0 33.93,-4.99 44.38,-14.9 10.53,-9.91 15.82,-23.9 15.82,-41.95l0 -76.26c0,-18.05 -5.29,-32.04 -15.82,-41.95 -10.45,-9.91 -25.29,-14.83 -44.38,-14.83l-58.62 0 0 -34.6 57.52 0c20.8,0 38.55,3.64 53.26,10.89 14.72,7.24 25.97,17.81 33.69,31.68 7.72,13.92 11.55,30.65 11.55,50.29l0 73.39c0,19.58 -3.82,36.3 -11.55,50.22 -7.72,13.87 -18.97,24.45 -33.81,31.69 -14.77,7.24 -32.52,10.88 -53.32,10.88l-57.34 0 0 -34.53zm-24.62 -224.49l36.36 0 0 259.02 -36.36 0 0 -259.02zm427.37 0l30.95 0 95.53 259.02 -39.22 0 -71.81 -208.99 -71.74 208.99 -39.22 0 95.53 -259.02zm-51.51 167.64l136.26 0 0 34.54 -136.26 0 0 -34.54zm527.95 94.06c-17.94,0 -33.69,-3.95 -47.31,-11.92 -13.61,-7.96 -24.14,-19.27 -31.62,-33.87 -7.47,-14.59 -11.25,-31.56 -11.25,-50.77l0 -71.09c0,-19.21 3.77,-36.18 11.25,-50.77 7.47,-14.59 18,-25.91 31.62,-33.93 13.62,-8.02 29.37,-12.04 47.31,-12.04 14.83,0 28.51,3.22 40.98,9.54 12.46,6.39 22.86,15.33 31.26,27.01 8.39,11.61 14.04,25.11 17.03,40.43l0 0 -37.27 0 0 0c-2.26,-8.08 -6.02,-15.32 -11.31,-21.65 -5.29,-6.38 -11.5,-11.25 -18.61,-14.71 -7.12,-3.4 -14.47,-5.17 -22.07,-5.17 -10.59,0 -19.83,2.55 -27.79,7.66 -7.96,5.1 -14.16,12.28 -18.54,21.46 -4.38,9.25 -6.57,19.95 -6.57,32.16l0 71.09c0,12.1 2.19,22.8 6.57,32.04 4.38,9.3 10.58,16.42 18.54,21.47 7.96,5.04 17.21,7.59 27.79,7.59 7.71,0 15.08,-1.58 22.18,-4.8 7.06,-3.22 13.2,-7.96 18.49,-14.29 5.29,-6.26 9.05,-13.74 11.31,-22.43l0 0 37.27 0 0 0c-2.98,15.32 -8.69,28.82 -17.15,40.44 -8.39,11.67 -18.85,20.67 -31.32,27 -12.46,6.39 -26.09,9.54 -40.8,9.54zm347.53 0c-18.06,0 -33.99,-3.95 -47.79,-11.86 -13.74,-7.9 -24.39,-19.03 -31.99,-33.5 -7.54,-14.41 -11.31,-31.13 -11.31,-50.1l0 -73.39c0,-19.03 3.76,-35.76 11.31,-50.17 7.59,-14.41 18.24,-25.6 31.99,-33.5 13.8,-7.9 29.73,-11.86 47.79,-11.86 17.99,0 33.92,3.95 47.72,11.86 13.75,7.9 24.45,19.09 31.99,33.5 7.54,14.41 11.32,31.14 11.32,50.17l0 73.39c0,18.97 -3.77,35.69 -11.32,50.1 -7.53,14.47 -18.23,25.6 -31.99,33.5 -13.8,7.9 -29.73,11.86 -47.72,11.86zm0 -35.81c10.64,0 20.06,-2.38 28.21,-7.24 8.14,-4.81 14.41,-11.62 18.85,-20.44 4.49,-8.87 6.69,-19.09 6.69,-30.77l0 -75.88c0,-11.62 -2.2,-21.9 -6.69,-30.71 -4.44,-8.88 -10.71,-15.69 -18.85,-20.49 -8.15,-4.81 -17.57,-7.25 -28.21,-7.25 -10.71,0 -20.13,2.44 -28.28,7.25 -8.14,4.8 -14.41,11.61 -18.84,20.49 -4.5,8.81 -6.7,19.09 -6.7,30.71l0 75.88c0,11.68 2.2,21.9 6.7,30.77 4.43,8.82 10.7,15.63 18.84,20.44 8.15,4.86 17.57,7.24 28.28,7.24zm292.92 -101.91l82.82 0c7.84,0 14.71,-1.83 20.67,-5.53 5.96,-3.65 10.52,-8.88 13.8,-15.63 3.28,-6.82 4.93,-14.59 4.93,-23.35l0 0c0,-8.93 -1.65,-16.78 -4.93,-23.53 -3.28,-6.75 -7.84,-12.04 -13.8,-15.75 -5.96,-3.77 -12.82,-5.59 -20.67,-5.59l-82.82 0 0 -34.6 81.6 0c15.44,0 29,3.28 40.8,9.91 11.74,6.57 20.86,15.87 27.3,27.84 6.51,12.05 9.73,25.91 9.73,41.72l0 0c0,15.81 -3.22,29.67 -9.73,41.6 -6.45,11.92 -15.57,21.16 -27.3,27.72 -11.8,6.51 -25.36,9.79 -40.8,9.79l-81.6 0 0 -34.6zm-18.72 -123.98l36.36 0 0 259.02 -36.36 0 0 -259.02zm409.74 0l30.95 0 95.53 259.02 -39.22 0 -71.81 -208.99 -71.74 208.99 -39.22 0 95.53 -259.02zm-51.51 167.64l136.26 0 0 34.54 -136.26 0 0 -34.54zm433.88 59.83l90.3 -120.4c5.23,-6.87 9.3,-14.04 12.23,-21.46 2.91,-7.42 4.37,-14.35 4.37,-20.74l0 -0.37c0,-10.33 -3.03,-18.36 -9.12,-24.07 -6.02,-5.66 -14.65,-8.51 -25.78,-8.51 -10.58,0 -19.15,3.09 -25.66,9.3 -6.57,6.26 -10.52,15.08 -11.99,26.51l0 0.13 -37.57 0 0 -0.13c2.13,-14.89 6.51,-27.54 13.13,-38.06 6.57,-10.52 15.08,-18.54 25.54,-24.02 10.46,-5.53 22.5,-8.32 36.18,-8.32 15.45,0 28.58,2.67 39.53,7.96 10.94,5.29 19.27,12.95 24.93,23.04 5.72,10.1 8.57,22.25 8.57,36.55l0 0.18c0,9.12 -1.89,18.67 -5.72,28.64 -3.77,9.97 -9.06,19.64 -15.87,28.88l-74.98 101.91 97.96 0 0 34.53 -146.05 0 0 -31.56zm394.36 34.23c-24.2,0 -42.56,-6.51 -55.09,-19.39 -12.59,-12.95 -18.85,-31.02 -18.85,-54.18l0 -117.78c0,-23.22 6.32,-41.35 18.91,-54.24 12.58,-12.88 30.95,-19.33 55.03,-19.33 24.26,0 42.62,6.45 55.15,19.27 12.52,12.83 18.79,30.96 18.79,54.3l0 117.78c0,23.29 -6.27,41.35 -18.85,54.24 -12.58,12.89 -30.95,19.33 -55.09,19.33zm0 -34.53c12.82,0 22.31,-3.4 28.45,-10.1 6.08,-6.69 9.12,-16.36 9.12,-28.94l0 -117.78c0,-12.58 -2.98,-22.19 -9.06,-28.94 -6.08,-6.69 -15.57,-10.03 -28.51,-10.03 -12.95,0 -22.44,3.34 -28.46,10.03 -6.08,6.75 -9.12,16.36 -9.12,28.94l0 117.78c0,12.58 3.04,22.25 9.18,28.94 6.15,6.7 15.57,10.1 28.4,10.1zm251.52 0.3l90.3 -120.4c5.23,-6.87 9.3,-14.04 12.23,-21.46 2.91,-7.42 4.37,-14.35 4.37,-20.74l0 -0.37c0,-10.33 -3.03,-18.36 -9.12,-24.07 -6.02,-5.66 -14.65,-8.51 -25.78,-8.51 -10.58,0 -19.15,3.09 -25.66,9.3 -6.57,6.26 -10.52,15.08 -11.98,26.51l0 0.13 -37.58 0 0 -0.13c2.13,-14.89 6.51,-27.54 13.13,-38.06 6.57,-10.52 15.08,-18.54 25.54,-24.02 10.46,-5.53 22.5,-8.32 36.19,-8.32 15.44,0 28.57,2.67 39.52,7.96 10.95,5.29 19.27,12.95 24.93,23.04 5.72,10.1 8.57,22.25 8.57,36.55l0 0.18c0,9.12 -1.89,18.67 -5.72,28.64 -3.76,9.97 -9.06,19.64 -15.87,28.88l-74.97 101.91 97.95 0 0 34.53 -146.05 0 0 -31.56zm316.53 0l90.3 -120.4c5.23,-6.87 9.3,-14.04 12.22,-21.46 2.92,-7.42 4.38,-14.35 4.38,-20.74l0 -0.37c0,-10.33 -3.03,-18.36 -9.12,-24.07 -6.02,-5.66 -14.65,-8.51 -25.78,-8.51 -10.58,0 -19.15,3.09 -25.66,9.3 -6.57,6.26 -10.52,15.08 -11.99,26.51l0 0.13 -37.57 0 0 -0.13c2.13,-14.89 6.51,-27.54 13.13,-38.06 6.57,-10.52 15.08,-18.54 25.54,-24.02 10.46,-5.53 22.49,-8.32 36.18,-8.32 15.45,0 28.58,2.67 39.53,7.96 10.94,5.29 19.27,12.95 24.93,23.04 5.71,10.1 8.57,22.25 8.57,36.55l0 0.18c0,9.12 -1.89,18.67 -5.72,28.64 -3.77,9.97 -9.06,19.64 -15.87,28.88l-74.98 101.91 97.96 0 0 34.53 -146.05 0 0 -31.56z"/>
   <g>
    <path class="fil0" d="M629.22 497.31c-361.03,125.24 -481.99,522.14 -423.69,718.47 157.77,531.31 1567.52,1110.5 3651.21,1115.54 -875.61,-56.6 -1820.47,-215.89 -2521.74,-576.99 -266.81,-137.38 -660.57,-385.65 -777.19,-684.99 -73.09,-187.64 -25,-400.01 69.94,-569.44l1.47 -2.59z"/>
    <path class="fil1" d="M1254.35 0c-122.47,193.55 -170.93,373.01 -154.82,540.15 50.12,519.44 557.24,1032.51 1557.9,1377.73 567.57,195.8 1293.9,337.64 2185.7,396.02 -1507.79,17.95 -2738.8,-210.94 -3489.6,-597.55 -408.93,-210.57 -673.46,-447.47 -757.33,-662.79 -117.03,-300.4 77.31,-768.29 658.15,-1053.56z"/>
    <path class="fil2" d="M2139.27 1013.33c0,127.54 -91.64,191.14 -274.75,191.14 -62.27,0 -120.19,-7.36 -173.61,-22.36l23.87 -109.17c52.92,18.36 102.66,27.36 149.74,27.36 52.08,0 89.64,-5 112.33,-15.02 22.87,-10.18 34.4,-27.2 34.4,-50.92 0,-24.86 -10.87,-45.73 -32.39,-62.58 -18.53,-15.03 -56.26,-34.56 -113.01,-58.76 -51.42,-22.04 -89.81,-46.24 -114.85,-72.28 -31.55,-32.87 -47.4,-73.62 -47.4,-121.85 0,-56.08 20.71,-99.82 62.27,-131.53 41.56,-31.55 101.31,-47.4 179.27,-47.4 63.93,0 117.51,5.33 160.91,16.19l-18.19 108.51c-43.9,-16.03 -91.47,-23.87 -142.72,-23.87 -76.95,0 -115.35,20.53 -115.35,61.59 0,21.87 8.85,39.56 26.89,53.25 15.69,11.67 49.74,28.2 102.15,49.39 55.75,22.54 97.47,47.24 125.19,74.29 36.9,36.22 55.26,80.97 55.26,134.03zm636.8 -463.2c-2.99,109.67 -4.33,219.16 -4.33,328.67 0,216.5 -88.81,324.82 -266.07,324.82 -87.81,0 -153.75,-24.03 -198.14,-71.93 -44.23,-47.91 -66.45,-134.03 -66.45,-258.23 0,-109.5 -1.5,-217.34 -4.5,-323.33l138.54 0c-4.33,110.35 -6.5,216.5 -6.5,318.99 0,89.64 11.51,151.06 34.38,184.29 22.69,33.2 57.91,49.91 105.5,49.91 49.9,0 85.97,-16.54 108.17,-49.58 22.19,-33.22 33.2,-94.98 33.2,-185.62 0,-99.49 -2.17,-205.47 -6.34,-317.98l132.53 0zm594.58 166.92c0,77.78 -28.88,135.37 -86.79,172.6 -57.92,37.05 -128.87,55.75 -212.99,55.75 -15.37,0 -26.23,-0.33 -32.72,-0.99 0,61.26 1.84,142.04 5.34,242.53l-137.37 0c4.17,-94.14 6.34,-205.13 6.34,-333.01 0,-117.34 -2.17,-218.66 -6.34,-303.79l85.12 0c12.04,0 35.22,-0.33 69.44,-1.34 34.23,-1 63.77,-1.51 88.97,-1.51 61.94,0 114.18,14.03 156.9,42.07 42.74,28.04 64.11,70.6 64.11,127.69zm-126.19 26.89c0,-69.79 -46.24,-104.67 -138.88,-104.67 -23.04,0 -47.57,2.34 -73.28,7.35 3.51,61.59 5.35,131.37 5.35,209.31 8.17,0.5 17.52,0.85 28.37,0.85 119.01,0 178.44,-37.56 178.44,-112.84zm807.91 112.84c0,100.15 -30.56,183.11 -91.96,249.03 -61.27,65.77 -137.06,98.66 -227.36,98.66 -86.15,0 -158.08,-30.21 -216.16,-90.65 -58.08,-60.42 -86.97,-137.37 -86.97,-230.52 0,-100.16 30.54,-183.1 91.8,-249.04 61.43,-65.77 137.21,-98.64 227.52,-98.64 85.97,0 158.09,30.04 216.17,90.46 57.91,60.27 86.96,137.21 86.96,230.7zm-134.87 14.18c0,-68.11 -17.53,-123.37 -52.42,-165.75 -34.88,-42.39 -77.95,-63.6 -129.04,-63.6 -47.73,0 -88.12,21.37 -121.34,64.09 -33.22,42.74 -49.91,96.65 -49.91,161.92 0,67.77 17.52,123.02 52.58,165.58 35.05,42.4 77.95,63.77 128.87,63.77 47.57,0 87.96,-21.37 121.35,-64.27 33.2,-42.89 49.91,-96.82 49.91,-161.74zm758.48 315.98l-144.72 0c-37.89,-115.34 -66.92,-186.61 -87.12,-213.67 -20.21,-27.03 -52.75,-40.55 -97.82,-40.55 -18.86,0 -36.89,0.16 -54.25,0.33 0,83.79 1.51,168.43 4.34,253.88l-135.86 0c4.17,-98.49 6.34,-209.49 6.34,-333.01 0,-118.68 -2.17,-220 -6.34,-303.79l84.62 0c9.68,0 30.21,-0.33 61.26,-1.34 31.22,-1 59.92,-1.51 86.47,-1.51 149.56,0 224.34,51.25 224.34,153.58 0,81.13 -42.74,137.7 -128.04,169.59l0 7.35c32.89,9.19 61.75,34.9 86.47,77.12 24.86,42.22 58.25,119.51 100.31,232.02zm-183.44 -449.86c0,-64.94 -41.74,-97.31 -125.19,-97.31 -30.56,0 -57.75,2.17 -81.13,6.85 3.5,50.41 5.35,116.34 5.35,197.47 17.85,0.66 33.03,1.01 45.38,1.01 103.84,0 155.58,-36.07 155.58,-108.01zm710.09 -186.95l-3.51 105.17c-65.09,-4.85 -126.51,-7.36 -184.28,-7.36 -0.67,61.76 -1,130.38 -1,205.98 0,117.35 1.84,228.36 5.35,333.01l-136.87 0c4.16,-103.65 6.34,-214.65 6.34,-333.01 0,-74.27 -0.67,-143.05 -2.01,-205.98 -45.9,0 -109,2.68 -189.14,7.84l3.84 -105.66 501.27 0zm526.65 0l-3.51 105.17c-65.09,-4.85 -126.51,-7.36 -184.29,-7.36 -0.66,61.76 -0.99,130.38 -0.99,205.98 0,117.35 1.84,228.36 5.35,333.01l-136.88 0c4.17,-103.65 6.34,-214.65 6.34,-333.01 0,-74.27 -0.66,-143.05 -2,-205.98 -45.91,0 -109.01,2.68 -189.14,7.84l3.84 -105.66 501.27 0zm501.27 529.15l-4.01 107.66 -416.11 0c4.16,-98.49 6.34,-209.49 6.34,-333.01 0,-118.68 -2.18,-220 -6.34,-303.79l397.09 0 -5.34 107.16c-97.81,-5.18 -186.62,-7.84 -266.07,-7.84 3.16,45.41 4.83,98.82 4.83,160.41 68.11,0 141.04,-1.84 218.68,-5.35l0 102.17c-76.29,-3.18 -149.24,-4.85 -218.68,-4.85 0,66.11 1.34,128.2 4,185.78 89.31,0 184.46,-2.66 285.61,-8.34zm563.68 -8.17l-8.17 112.33c-46.4,11.19 -91.97,16.7 -137.04,16.7 -111.83,0 -196.96,-30.89 -255.56,-92.64 -58.41,-61.76 -87.63,-136.88 -87.63,-225.19 0,-91.63 31.06,-171.42 93.15,-239.18 62.08,-67.77 147.21,-101.65 255.56,-101.65 39.72,0 77.28,4.5 112.83,13.67l-17.03 113.01c-38.55,-12.51 -75.29,-18.69 -110.51,-18.69 -66.27,0 -115.51,21.04 -147.72,62.93 -32.37,41.9 -48.4,92.81 -48.4,152.74 0,61.26 19.18,114.5 57.4,159.4 38.4,45.08 91.98,67.6 161.09,67.6 40.56,0 84.46,-7 132.02,-21.02z"/>
   </g>
   <g>
    <path class="fil0" d="M629.22 497.31c-361.03,125.24 -481.99,522.14 -423.69,718.47 157.77,531.31 1567.52,1110.5 3651.21,1115.54 -875.61,-56.6 -1820.47,-215.89 -2521.74,-576.99 -266.81,-137.38 -660.57,-385.65 -777.19,-684.99 -73.09,-187.64 -25,-400.01 69.94,-569.44l1.47 -2.59z"/>
    <path class="fil1" d="M1254.35 0c-122.47,193.55 -170.93,373.01 -154.82,540.15 50.12,519.44 557.24,1032.51 1557.9,1377.73 567.57,195.8 1293.9,337.64 2185.7,396.02 -1507.79,17.95 -2738.8,-210.94 -3489.6,-597.55 -408.93,-210.57 -673.46,-447.47 -757.33,-662.79 -117.03,-300.4 77.31,-768.29 658.15,-1053.56z"/>
    <path class="fil2" d="M2139.27 1013.33c0,127.54 -91.64,191.14 -274.75,191.14 -62.27,0 -120.19,-7.36 -173.61,-22.36l23.87 -109.17c52.92,18.36 102.66,27.36 149.74,27.36 52.08,0 89.64,-5 112.33,-15.02 22.87,-10.18 34.4,-27.2 34.4,-50.92 0,-24.86 -10.87,-45.73 -32.39,-62.58 -18.53,-15.03 -56.26,-34.56 -113.01,-58.76 -51.42,-22.04 -89.81,-46.24 -114.85,-72.28 -31.55,-32.87 -47.4,-73.62 -47.4,-121.85 0,-56.08 20.71,-99.82 62.27,-131.53 41.56,-31.55 101.31,-47.4 179.27,-47.4 63.93,0 117.51,5.33 160.91,16.19l-18.19 108.51c-43.9,-16.03 -91.47,-23.87 -142.72,-23.87 -76.95,0 -115.35,20.53 -115.35,61.59 0,21.87 8.85,39.56 26.89,53.25 15.69,11.67 49.74,28.2 102.15,49.39 55.75,22.54 97.47,47.24 125.19,74.29 36.9,36.22 55.26,80.97 55.26,134.03zm636.8 -463.2c-2.99,109.67 -4.33,219.16 -4.33,328.67 0,216.5 -88.81,324.82 -266.07,324.82 -87.81,0 -153.75,-24.03 -198.14,-71.93 -44.23,-47.91 -66.45,-134.03 -66.45,-258.23 0,-109.5 -1.5,-217.34 -4.5,-323.33l138.54 0c-4.33,110.35 -6.5,216.5 -6.5,318.99 0,89.64 11.51,151.06 34.38,184.29 22.69,33.2 57.91,49.91 105.5,49.91 49.9,0 85.97,-16.54 108.17,-49.58 22.19,-33.22 33.2,-94.98 33.2,-185.62 0,-99.49 -2.17,-205.47 -6.34,-317.98l132.53 0zm594.58 166.92c0,77.78 -28.88,135.37 -86.79,172.6 -57.92,37.05 -128.87,55.75 -212.99,55.75 -15.37,0 -26.23,-0.33 -32.72,-0.99 0,61.26 1.84,142.04 5.34,242.53l-137.37 0c4.17,-94.14 6.34,-205.13 6.34,-333.01 0,-117.34 -2.17,-218.66 -6.34,-303.79l85.12 0c12.04,0 35.22,-0.33 69.44,-1.34 34.23,-1 63.77,-1.51 88.97,-1.51 61.94,0 114.18,14.03 156.9,42.07 42.74,28.04 64.11,70.6 64.11,127.69zm-126.19 26.89c0,-69.79 -46.24,-104.67 -138.88,-104.67 -23.04,0 -47.57,2.34 -73.28,7.35 3.51,61.59 5.35,131.37 5.35,209.31 8.17,0.5 17.52,0.85 28.37,0.85 119.01,0 178.44,-37.56 178.44,-112.84zm807.91 112.84c0,100.15 -30.56,183.11 -91.96,249.03 -61.27,65.77 -137.06,98.66 -227.36,98.66 -86.15,0 -158.08,-30.21 -216.16,-90.65 -58.08,-60.42 -86.97,-137.37 -86.97,-230.52 0,-100.16 30.54,-183.1 91.8,-249.04 61.43,-65.77 137.21,-98.64 227.52,-98.64 85.97,0 158.09,30.04 216.17,90.46 57.91,60.27 86.96,137.21 86.96,230.7zm-134.87 14.18c0,-68.11 -17.53,-123.37 -52.42,-165.75 -34.88,-42.39 -77.95,-63.6 -129.04,-63.6 -47.73,0 -88.12,21.37 -121.34,64.09 -33.22,42.74 -49.91,96.65 -49.91,161.92 0,67.77 17.52,123.02 52.58,165.58 35.05,42.4 77.95,63.77 128.87,63.77 47.57,0 87.96,-21.37 121.35,-64.27 33.2,-42.89 49.91,-96.82 49.91,-161.74zm758.48 315.98l-144.72 0c-37.89,-115.34 -66.92,-186.61 -87.12,-213.67 -20.21,-27.03 -52.75,-40.55 -97.82,-40.55 -18.86,0 -36.89,0.16 -54.25,0.33 0,83.79 1.51,168.43 4.34,253.88l-135.86 0c4.17,-98.49 6.34,-209.49 6.34,-333.01 0,-118.68 -2.17,-220 -6.34,-303.79l84.62 0c9.68,0 30.21,-0.33 61.26,-1.34 31.22,-1 59.92,-1.51 86.47,-1.51 149.56,0 224.34,51.25 224.34,153.58 0,81.13 -42.74,137.7 -128.04,169.59l0 7.35c32.89,9.19 61.75,34.9 86.47,77.12 24.86,42.22 58.25,119.51 100.31,232.02zm-183.44 -449.86c0,-64.94 -41.74,-97.31 -125.19,-97.31 -30.56,0 -57.75,2.17 -81.13,6.85 3.5,50.41 5.35,116.34 5.35,197.47 17.85,0.66 33.03,1.01 45.38,1.01 103.84,0 155.58,-36.07 155.58,-108.01zm710.09 -186.95l-3.51 105.17c-65.09,-4.85 -126.51,-7.36 -184.28,-7.36 -0.67,61.76 -1,130.38 -1,205.98 0,117.35 1.84,228.36 5.35,333.01l-136.87 0c4.16,-103.65 6.34,-214.65 6.34,-333.01 0,-74.27 -0.67,-143.05 -2.01,-205.98 -45.9,0 -109,2.68 -189.14,7.84l3.84 -105.66 501.27 0zm526.65 0l-3.51 105.17c-65.09,-4.85 -126.51,-7.36 -184.29,-7.36 -0.66,61.76 -0.99,130.38 -0.99,205.98 0,117.35 1.84,228.36 5.35,333.01l-136.88 0c4.17,-103.65 6.34,-214.65 6.34,-333.01 0,-74.27 -0.66,-143.05 -2,-205.98 -45.91,0 -109.01,2.68 -189.14,7.84l3.84 -105.66 501.27 0zm501.27 529.15l-4.01 107.66 -416.11 0c4.16,-98.49 6.34,-209.49 6.34,-333.01 0,-118.68 -2.18,-220 -6.34,-303.79l397.09 0 -5.34 107.16c-97.81,-5.18 -186.62,-7.84 -266.07,-7.84 3.16,45.41 4.83,98.82 4.83,160.41 68.11,0 141.04,-1.84 218.68,-5.35l0 102.17c-76.29,-3.18 -149.24,-4.85 -218.68,-4.85 0,66.11 1.34,128.2 4,185.78 89.31,0 184.46,-2.66 285.61,-8.34zm563.68 -8.17l-8.17 112.33c-46.4,11.19 -91.97,16.7 -137.04,16.7 -111.83,0 -196.96,-30.89 -255.56,-92.64 -58.41,-61.76 -87.63,-136.88 -87.63,-225.19 0,-91.63 31.06,-171.42 93.15,-239.18 62.08,-67.77 147.21,-101.65 255.56,-101.65 39.72,0 77.28,4.5 112.83,13.67l-17.03 113.01c-38.55,-12.51 -75.29,-18.69 -110.51,-18.69 -66.27,0 -115.51,21.04 -147.72,62.93 -32.37,41.9 -48.4,92.81 -48.4,152.74 0,61.26 19.18,114.5 57.4,159.4 38.4,45.08 91.98,67.6 161.09,67.6 40.56,0 84.46,-7 132.02,-21.02z"/>
   </g>
  </g>
 </g>
</svg>
