<?xml version="1.0" encoding="UTF-8"?>
<!DOCTYPE svg PUBLIC "-//W3C//DTD SVG 1.1//EN" "http://www.w3.org/Graphics/SVG/1.1/DTD/svg11.dtd">
<!-- Creator: CorelDRAW -->
<svg xmlns="http://www.w3.org/2000/svg" xml:space="preserve" width="27.8844mm" height="11.8952mm" version="1.1" style="shape-rendering:geometricPrecision; text-rendering:geometricPrecision; image-rendering:optimizeQuality; fill-rule:evenodd; clip-rule:evenodd"
viewBox="0 0 1108519 472883"
 xmlns:xlink="http://www.w3.org/1999/xlink"
 xmlns:xodm="http://www.corel.com/coreldraw/odm/2003">
 <defs>
  <style type="text/css">
   <![CDATA[
    .fil1 {fill:#008DD0}
    .fil0 {fill:#007CC2}
    .fil2 {fill:#201E1E;fill-rule:nonzero}
   ]]>
  </style>
 </defs>
 <g id="Camada_x0020_1">
  <metadata id="CorelCorpID_0Corel-Layer"/>
  <g id="_2348386822560">
   <g>
    <path class="fil0" d="M99846 78916c-57290,19869 -76483,82852 -67232,114007 25037,84310 248733,176214 579380,177013 -138945,-8976 -288873,-34256 -400153,-91554 -42338,-21801 -104820,-61197 -123325,-108696 -11600,-29776 -3967,-63475 11095,-90361l235 -409z"/>
    <path class="fil1" d="M199041 0c-19432,30714 -27124,59190 -24564,85714 7951,82426 88421,163839 247211,218620 90063,31068 205318,53577 346827,62839 -239256,2850 -434596,-33473 -553735,-94818 -64891,-33417 -106867,-71009 -120173,-105173 -18573,-47669 12268,-121914 104434,-167182z"/>
    <path class="fil2" d="M339464 160797c0,20239 -14542,30328 -43598,30328 -9883,0 -19074,-1165 -27550,-3546l3789 -17325c8396,2914 16291,4341 23761,4341 8265,0 14224,-791 17826,-2381 3630,-1614 5458,-4317 5458,-8078 0,-3948 -1725,-7259 -5140,-9931 -2942,-2385 -8929,-5486 -17933,-9326 -8158,-3494 -14252,-7335 -18223,-11469 -5009,-5216 -7525,-11684 -7525,-19336 0,-8897 3288,-15838 9883,-20871 6595,-5005 16077,-7521 28448,-7521 10141,0 18645,843 25534,2568l-2890 17218c-6965,-2544 -14514,-3789 -22644,-3789 -12212,0 -18303,3260 -18303,9776 0,3467 1403,6277 4266,8448 2489,1853 7891,4476 16208,7840 8845,3578 15468,7498 19865,11787 5856,5748 8770,12849 8770,21268zm101047 -73501c-473,17400 -688,34777 -688,52153 0,34355 -14093,51545 -42219,51545 -13934,0 -24397,-3816 -31442,-11417 -7021,-7601 -10543,-21268 -10543,-40975 0,-17377 -239,-34487 -716,-51307l21984 0c-688,17508 -1034,34355 -1034,50619 0,14224 1829,23972 5458,29243 3602,5267 9191,7919 16740,7919 7919,0 13640,-2624 17162,-7867 3526,-5271 5271,-15071 5271,-29454 0,-15786 -346,-32606 -1006,-50460l21030 0zm94348 26488c0,12344 -4584,21479 -13771,27387 -9191,5880 -20450,8845 -33799,8845 -2437,0 -4158,-52 -5192,-155 0,9720 290,22537 847,38486l-21797 0c660,-14940 1006,-32555 1006,-52845 0,-18621 -346,-34697 -1006,-48206l13504 0c1912,0 5589,-52 11020,-211 5430,-159 10121,-243 14117,-243 9831,0 18120,2230 24898,6679 6782,4448 10173,11203 10173,20263zm-20024 4266c0,-11075 -7335,-16609 -22036,-16609 -3657,0 -7549,370 -11628,1165 557,9776 847,20847 847,33215 1296,80 2783,135 4500,135 18887,0 28317,-5959 28317,-17905zm128199 17905c0,15890 -4846,29056 -14594,39520 -9720,10435 -21745,15651 -36077,15651 -13667,0 -25081,-4790 -34300,-14383 -9215,-9585 -13799,-21797 -13799,-36578 0,-15894 4846,-29056 14566,-39520 9748,-10435 21773,-15651 36105,-15651 13640,0 25085,4767 34300,14351 9191,9565 13799,21773 13799,36610zm-21400 2250c0,-10809 -2783,-19575 -8321,-26301 -5534,-6726 -12368,-10094 -20473,-10094 -7573,0 -13985,3391 -19257,10173 -5271,6778 -7919,15333 -7919,25693 0,10753 2783,19519 8344,26273 5562,6730 12371,10121 20450,10121 7549,0 13958,-3391 19257,-10201 5267,-6806 7919,-15365 7919,-25665zm120356 50142l-22962 0c-6015,-18303 -10618,-29613 -13823,-33906 -3208,-4289 -8372,-6436 -15524,-6436 -2993,0 -5856,28 -8611,56 0,13294 243,26723 688,40287l-21559 0c664,-15631 1006,-33242 1006,-52845 0,-18832 -342,-34908 -1006,-48206l13429 0c1538,0 4794,-52 9720,-211 4953,-159 9509,-243 13723,-243 23729,0 35600,8134 35600,24373 0,12872 -6782,21849 -20318,26910l0 1165c5220,1459 9799,5538 13723,12236 3944,6703 9243,18967 15914,36820zm-29108 -71386c0,-10304 -6619,-15440 -19865,-15440 -4846,0 -9163,342 -12872,1085 557,7999 851,18462 851,31334 2830,107 5244,159 7199,159 16478,0 24687,-5721 24687,-17138zm112679 -29665l-557 16689c-10328,-771 -20076,-1169 -29243,-1169 -103,9799 -159,20688 -159,32686 0,18621 294,36236 851,52845l-21718 0c660,-16450 1002,-34065 1002,-52845 0,-11783 -103,-22700 -314,-32686 -7287,0 -17297,425 -30014,1244l608 -16764 79544 0zm83571 0l-561 16689c-10324,-771 -20072,-1169 -29239,-1169 -107,9799 -159,20688 -159,32686 0,18621 290,36236 851,52845l-21722 0c664,-16450 1006,-34065 1006,-52845 0,-11783 -103,-22700 -318,-32686 -7283,0 -17297,425 -30010,1244l608 -16764 79544 0zm79540 83965l-636 17086 -66028 0c660,-15631 1006,-33242 1006,-52845 0,-18832 -346,-34908 -1006,-48206l63010 0 -847 17007c-15520,-823 -29613,-1248 -42223,-1248 505,7207 767,15683 767,25455 10809,0 22382,-290 34701,-847l0 16212c-12105,-505 -23682,-771 -34701,-771 0,10491 215,20346 636,29482 14172,0 29271,-421 45320,-1324zm89447 -1296l-1296 17826c-7362,1773 -14594,2648 -21745,2648 -17746,0 -31255,-4902 -40553,-14701 -9271,-9799 -13906,-21718 -13906,-35731 0,-14542 4930,-27204 14781,-37957 9855,-10753 23363,-16128 40553,-16128 6305,0 12264,716 17905,2171l-2703 17929c-6114,-1984 -11946,-2966 -17536,-2966 -10515,0 -18327,3339 -23439,9986 -5136,6651 -7680,14729 -7680,24238 0,9720 3045,18168 9108,25296 6094,7152 14598,10726 25566,10726 6432,0 13401,-1109 20946,-3335z"/>
   </g>
   <path class="fil2" d="M14308 472883c-2846,0 -5343,-628 -7506,-1888 -2163,-1264 -3828,-3061 -5017,-5375 -1189,-2318 -1785,-5009 -1785,-8058l0 -11278c0,-3049 596,-5740 1785,-8058 1189,-2314 2854,-4111 5017,-5383 2163,-1272 4659,-1912 7506,-1912 2357,0 4528,513 6504,1515 1980,1014 3630,2433 4961,4285 1332,1845 2226,3983 2699,6416l0 0 -5911 0 0 0c-358,-1284 -958,-2433 -1797,-3435 -839,-1014 -1825,-1785 -2954,-2334 -1129,-541 -2294,-823 -3502,-823 -1678,0 -3145,405 -4409,1216 -1264,811 -2246,1948 -2942,3407 -696,1467 -1042,3164 -1042,5104l0 11278c0,1920 346,3618 1042,5085 696,1475 1678,2604 2942,3407 1264,799 2731,1205 4409,1205 1228,0 2393,-250 3522,-759 1121,-513 2095,-1264 2934,-2270 839,-994 1439,-2179 1797,-3558l0 0 5911 0 0 0c-473,2429 -1379,4572 -2719,6416 -1332,1853 -2993,3280 -4969,4282 -1980,1014 -4138,1515 -6476,1515zm52177 -41527l4910 0 15158 41102 -6222 0 -11398 -33159 -11386 33159 -6222 0 15158 -41102zm-8173 26603l21622 0 0 5478 -21622 0 0 -5478zm54773 -26603l5768 0 0 41102 -5768 0 0 -41102zm2882 35624l23526 0 0 5478 -23526 0 0 -5478zm50615 -35624l5768 0 0 41102 -5768 0 0 -41102zm2799 35624l23610 0 0 5478 -23610 0 0 -5478zm0 -17667l20493 0 0 5478 -20493 0 0 -5478zm0 -17957l23610 0 0 5490 -23610 0 0 -5490zm52118 0l5228 0 20100 31771 -676 735 0 -32507 5713 0 0 41074 -5287 0 -20040 -31290 672 -731 0 32022 -5709 0 0 -41074zm64755 35624l9302 0c3029,0 5383,-791 7044,-2365 1666,-1570 2508,-3793 2508,-6655l0 -12101c0,-2866 -843,-5085 -2508,-6659 -1662,-1570 -4015,-2353 -7044,-2353l-9302 0 0 -5490 9128 0c3300,0 6118,580 8452,1729 2338,1145 4123,2827 5347,5025 1224,2210 1833,4862 1833,7979l0 11648c0,3105 -608,5760 -1833,7967 -1224,2202 -3009,3880 -5367,5029 -2342,1149 -5160,1725 -8460,1725l-9100 0 0 -5478zm-3908 -35624l5772 0 0 41102 -5772 0 0 -41102zm68377 0l4910 0 15158 41102 -6222 0 -11398 -33159 -11386 33159 -6222 0 15158 -41102zm-8173 26603l21622 0 0 5478 -21622 0 0 -5478zm7971 -32757l7804 -6929 3725 3868 -8336 6388 -3192 -3327zm49319 24389l14021 0c1089,0 2063,-258 2914,-791 847,-529 1503,-1272 1968,-2246 453,-974 684,-2087 684,-3347l0 0c0,-1264 -231,-2385 -684,-3351 -465,-974 -1121,-1725 -1960,-2246 -831,-533 -1813,-791 -2922,-791l-14021 0 0 -5490 13799 0c2373,0 4456,493 6261,1475 1793,974 3192,2365 4178,4170 994,1793 1487,3876 1487,6233l0 0c0,2353 -505,4429 -1499,6229 -1002,1797 -2401,3184 -4194,4170 -1805,974 -3880,1467 -6233,1467l-13799 0 0 -5482zm-2516 -18263l5768 0 0 41130 -5768 0 0 -41130zm13707 22469l5744 -1292 10515 19953 -6842 0 -9418 -18661zm50114 18661l-5772 0 0 -41102 5772 0 0 41102zm44087 425c-2862,0 -5391,-628 -7581,-1880 -2183,-1256 -3872,-3021 -5077,-5315 -1197,-2290 -1793,-4941 -1793,-7951l0 -11648c0,-3017 596,-5673 1793,-7959 1205,-2286 2894,-4063 5077,-5315 2190,-1256 4719,-1884 7581,-1884 2858,0 5387,628 7577,1884 2179,1252 3876,3029 5073,5315 1197,2286 1797,4941 1797,7959l0 11648c0,3009 -600,5661 -1797,7951 -1197,2294 -2894,4059 -5073,5315 -2190,1252 -4719,1880 -7577,1880zm0 -5681c1690,0 3184,-378 4476,-1149 1296,-763 2290,-1845 2993,-3244 712,-1407 1061,-3029 1061,-4882l0 -12042c0,-1841 -350,-3471 -1061,-4870 -704,-1411 -1698,-2493 -2993,-3252 -1292,-763 -2787,-1149 -4476,-1149 -1698,0 -3192,386 -4484,1149 -1292,759 -2286,1841 -2993,3252 -712,1399 -1061,3029 -1061,4870l0 12042c0,1853 350,3475 1061,4882 708,1399 1701,2481 2993,3244 1292,771 2787,1149 4484,1149zm63535 -223l9298 0c3029,0 5387,-791 7044,-2365 1670,-1570 2508,-3793 2508,-6655l0 -12101c0,-2866 -839,-5085 -2508,-6659 -1658,-1570 -4015,-2353 -7044,-2353l-9298 0 0 -5490 9128 0c3300,0 6114,580 8452,1729 2334,1145 4119,2827 5343,5025 1228,2210 1833,4862 1833,7979l0 11648c0,3105 -604,5760 -1833,7967 -1224,2202 -3009,3880 -5363,5029 -2345,1149 -5164,1725 -8464,1725l-9096 0 0 -5478zm-3908 -35624l5768 0 0 41102 -5768 0 0 -41102zm67813 0l4914 0 15158 41102 -6225 0 -11394 -33159 -11386 33159 -6222 0 15154 -41102zm-8169 26603l21622 0 0 5478 -21622 0 0 -5478zm83774 14924c-2846,0 -5347,-628 -7506,-1888 -2163,-1264 -3832,-3061 -5017,-5375 -1189,-2318 -1785,-5009 -1785,-8058l0 -11278c0,-3049 596,-5740 1785,-8058 1185,-2314 2854,-4111 5017,-5383 2159,-1272 4659,-1912 7506,-1912 2353,0 4524,513 6504,1515 1976,1014 3626,2433 4957,4285 1332,1845 2230,3983 2703,6416l0 0 -5915 0 0 0c-358,-1284 -954,-2433 -1793,-3435 -839,-1014 -1825,-1785 -2954,-2334 -1129,-541 -2298,-823 -3502,-823 -1678,0 -3145,405 -4409,1216 -1264,811 -2250,1948 -2942,3407 -696,1467 -1046,3164 -1046,5104l0 11278c0,1920 350,3618 1046,5085 692,1475 1678,2604 2942,3407 1264,799 2731,1205 4409,1205 1224,0 2393,-250 3522,-759 1117,-513 2095,-1264 2934,-2270 839,-994 1435,-2179 1793,-3558l0 0 5915 0 0 0c-473,2429 -1379,4572 -2719,6416 -1332,1853 -2993,3280 -4969,4282 -1980,1014 -4142,1515 -6476,1515zm55147 0c-2866,0 -5395,-628 -7585,-1880 -2179,-1256 -3868,-3021 -5073,-5315 -1197,-2290 -1797,-4941 -1797,-7951l0 -11648c0,-3017 600,-5673 1797,-7959 1205,-2286 2894,-4063 5073,-5315 2190,-1256 4719,-1884 7585,-1884 2858,0 5383,628 7573,1884 2183,1252 3880,3029 5077,5315 1197,2286 1793,4941 1793,7959l0 11648c0,3009 -596,5661 -1793,7951 -1197,2294 -2894,4059 -5077,5315 -2190,1252 -4715,1880 -7573,1880zm0 -5681c1690,0 3184,-378 4476,-1149 1296,-763 2290,-1845 2993,-3244 712,-1407 1061,-3029 1061,-4882l0 -12042c0,-1841 -350,-3471 -1061,-4870 -704,-1411 -1698,-2493 -2993,-3252 -1292,-763 -2787,-1149 -4476,-1149 -1698,0 -3192,386 -4484,1149 -1296,759 -2290,1841 -2993,3252 -712,1399 -1061,3029 -1061,4870l0 12042c0,1853 350,3475 1061,4882 704,1399 1698,2481 2993,3244 1292,771 2787,1149 4484,1149zm46484 -16172l13139 0c1244,0 2338,-290 3284,-879 942,-580 1666,-1407 2190,-2481 521,-1081 779,-2314 779,-3705l0 0c0,-1415 -258,-2664 -779,-3733 -525,-1069 -1248,-1912 -2190,-2501 -946,-596 -2039,-887 -3284,-887l-13139 0 0 -5490 12948 0c2449,0 4604,521 6472,1574 1864,1042 3312,2516 4333,4417 1034,1912 1546,4111 1546,6619l0 0c0,2508 -513,4711 -1546,6599 -1022,1892 -2469,3359 -4333,4401 -1868,1034 -4023,1554 -6472,1554l-12948 0 0 -5490zm-2974 -19674l5772 0 0 41102 -5772 0 0 -41102zm65018 0l4914 0 15158 41102 -6225 0 -11394 -33159 -11386 33159 -6225 0 15158 -41102zm-8173 26603l21626 0 0 5478 -21626 0 0 -5478zm68850 9493l14327 -19106c831,-1089 1479,-2226 1940,-3407 465,-1177 696,-2274 696,-3288l0 -60c0,-1638 -485,-2914 -1447,-3820 -954,-898 -2326,-1352 -4091,-1352 -1682,0 -3041,493 -4075,1479 -1042,994 -1666,2393 -1900,4206l0 20 -5963 0 0 -20c338,-2365 1034,-4373 2087,-6039 1042,-1670 2393,-2946 4051,-3812 1658,-879 3570,-1324 5740,-1324 2453,0 4536,425 6273,1264 1737,839 3057,2055 3956,3657 906,1602 1360,3530 1360,5800l0 28c0,1447 -298,2962 -906,4544 -600,1582 -1439,3117 -2520,4584l-11894 16172 15544 0 0 5478 -23177 0 0 -5005zm62577 5430c-3840,0 -6754,-1030 -8742,-3077 -1996,-2055 -2990,-4922 -2990,-8599l0 -18688c0,-3685 1002,-6559 3001,-8607 1996,-2043 4910,-3069 8730,-3069 3848,0 6762,1026 8750,3061 1988,2035 2982,4910 2982,8615l0 18688c0,3697 -994,6563 -2990,8607 -1996,2047 -4910,3069 -8742,3069zm0 -5478c2035,0 3542,-541 4516,-1602 966,-1061 1447,-2596 1447,-4596l0 -18688c0,-1996 -473,-3522 -1439,-4592 -962,-1061 -2469,-1590 -4524,-1590 -2055,0 -3562,529 -4516,1590 -966,1069 -1447,2596 -1447,4592l0 18688c0,2000 481,3534 1459,4596 974,1061 2469,1602 4504,1602zm39913 48l14327 -19106c831,-1089 1475,-2226 1940,-3407 461,-1177 696,-2274 696,-3288l0 -60c0,-1638 -485,-2914 -1447,-3820 -958,-898 -2326,-1352 -4095,-1352 -1678,0 -3037,493 -4071,1479 -1042,994 -1670,2393 -1900,4206l0 20 -5963 0 0 -20c338,-2365 1034,-4373 2083,-6039 1046,-1670 2393,-2946 4055,-3812 1658,-879 3570,-1324 5740,-1324 2449,0 4536,425 6273,1264 1733,839 3057,2055 3956,3657 906,1602 1360,3530 1360,5800l0 28c0,1447 -298,2962 -906,4544 -600,1582 -1439,3117 -2520,4584l-11894 16172 15544 0 0 5478 -23177 0 0 -5005zm50225 0l14327 -19106c831,-1089 1479,-2226 1940,-3407 465,-1177 696,-2274 696,-3288l0 -60c0,-1638 -481,-2914 -1447,-3820 -954,-898 -2326,-1352 -4091,-1352 -1682,0 -3041,493 -4071,1479 -1046,994 -1670,2393 -1904,4206l0 20 -5963 0 0 -20c338,-2365 1034,-4373 2087,-6039 1042,-1670 2393,-2946 4051,-3812 1662,-879 3570,-1324 5740,-1324 2453,0 4536,425 6273,1264 1737,839 3057,2055 3956,3657 906,1602 1360,3530 1360,5800l0 28c0,1447 -298,2962 -906,4544 -596,1582 -1439,3117 -2516,4584l-11898 16172 15544 0 0 5478 -23177 0 0 -5005z"/>
   <g>
    <path class="fil0" d="M99846 78916c-57290,19869 -76483,82852 -67232,114007 25037,84310 248733,176214 579380,177013 -138945,-8976 -288873,-34256 -400153,-91554 -42338,-21801 -104820,-61197 -123325,-108696 -11600,-29776 -3967,-63475 11095,-90361l235 -409z"/>
    <path class="fil1" d="M199041 0c-19432,30714 -27124,59190 -24564,85714 7951,82426 88421,163839 247211,218620 90063,31068 205318,53577 346827,62839 -239256,2850 -434596,-33473 -553735,-94818 -64891,-33417 -106867,-71009 -120173,-105173 -18573,-47669 12268,-121914 104434,-167182z"/>
    <path class="fil2" d="M339464 160797c0,20239 -14542,30328 -43598,30328 -9883,0 -19074,-1165 -27550,-3546l3789 -17325c8396,2914 16291,4341 23761,4341 8265,0 14224,-791 17826,-2381 3630,-1614 5458,-4317 5458,-8078 0,-3948 -1725,-7259 -5140,-9931 -2942,-2385 -8929,-5486 -17933,-9326 -8158,-3494 -14252,-7335 -18223,-11469 -5009,-5216 -7525,-11684 -7525,-19336 0,-8897 3288,-15838 9883,-20871 6595,-5005 16077,-7521 28448,-7521 10141,0 18645,843 25534,2568l-2890 17218c-6965,-2544 -14514,-3789 -22644,-3789 -12212,0 -18303,3260 -18303,9776 0,3467 1403,6277 4266,8448 2489,1853 7891,4476 16208,7840 8845,3578 15468,7498 19865,11787 5856,5748 8770,12849 8770,21268zm101047 -73501c-473,17400 -688,34777 -688,52153 0,34355 -14093,51545 -42219,51545 -13934,0 -24397,-3816 -31442,-11417 -7021,-7601 -10543,-21268 -10543,-40975 0,-17377 -239,-34487 -716,-51307l21984 0c-688,17508 -1034,34355 -1034,50619 0,14224 1829,23972 5458,29243 3602,5267 9191,7919 16740,7919 7919,0 13640,-2624 17162,-7867 3526,-5271 5271,-15071 5271,-29454 0,-15786 -346,-32606 -1006,-50460l21030 0zm94348 26488c0,12344 -4584,21479 -13771,27387 -9191,5880 -20450,8845 -33799,8845 -2437,0 -4158,-52 -5192,-155 0,9720 290,22537 847,38486l-21797 0c660,-14940 1006,-32555 1006,-52845 0,-18621 -346,-34697 -1006,-48206l13504 0c1912,0 5589,-52 11020,-211 5430,-159 10121,-243 14117,-243 9831,0 18120,2230 24898,6679 6782,4448 10173,11203 10173,20263zm-20024 4266c0,-11075 -7335,-16609 -22036,-16609 -3657,0 -7549,370 -11628,1165 557,9776 847,20847 847,33215 1296,80 2783,135 4500,135 18887,0 28317,-5959 28317,-17905zm128199 17905c0,15890 -4846,29056 -14594,39520 -9720,10435 -21745,15651 -36077,15651 -13667,0 -25081,-4790 -34300,-14383 -9215,-9585 -13799,-21797 -13799,-36578 0,-15894 4846,-29056 14566,-39520 9748,-10435 21773,-15651 36105,-15651 13640,0 25085,4767 34300,14351 9191,9565 13799,21773 13799,36610zm-21400 2250c0,-10809 -2783,-19575 -8321,-26301 -5534,-6726 -12368,-10094 -20473,-10094 -7573,0 -13985,3391 -19257,10173 -5271,6778 -7919,15333 -7919,25693 0,10753 2783,19519 8344,26273 5562,6730 12371,10121 20450,10121 7549,0 13958,-3391 19257,-10201 5267,-6806 7919,-15365 7919,-25665zm120356 50142l-22962 0c-6015,-18303 -10618,-29613 -13823,-33906 -3208,-4289 -8372,-6436 -15524,-6436 -2993,0 -5856,28 -8611,56 0,13294 243,26723 688,40287l-21559 0c664,-15631 1006,-33242 1006,-52845 0,-18832 -342,-34908 -1006,-48206l13429 0c1538,0 4794,-52 9720,-211 4953,-159 9509,-243 13723,-243 23729,0 35600,8134 35600,24373 0,12872 -6782,21849 -20318,26910l0 1165c5220,1459 9799,5538 13723,12236 3944,6703 9243,18967 15914,36820zm-29108 -71386c0,-10304 -6619,-15440 -19865,-15440 -4846,0 -9163,342 -12872,1085 557,7999 851,18462 851,31334 2830,107 5244,159 7199,159 16478,0 24687,-5721 24687,-17138zm112679 -29665l-557 16689c-10328,-771 -20076,-1169 -29243,-1169 -103,9799 -159,20688 -159,32686 0,18621 294,36236 851,52845l-21718 0c660,-16450 1002,-34065 1002,-52845 0,-11783 -103,-22700 -314,-32686 -7287,0 -17297,425 -30014,1244l608 -16764 79544 0zm83571 0l-561 16689c-10324,-771 -20072,-1169 -29239,-1169 -107,9799 -159,20688 -159,32686 0,18621 290,36236 851,52845l-21722 0c664,-16450 1006,-34065 1006,-52845 0,-11783 -103,-22700 -318,-32686 -7283,0 -17297,425 -30010,1244l608 -16764 79544 0zm79540 83965l-636 17086 -66028 0c660,-15631 1006,-33242 1006,-52845 0,-18832 -346,-34908 -1006,-48206l63010 0 -847 17007c-15520,-823 -29613,-1248 -42223,-1248 505,7207 767,15683 767,25455 10809,0 22382,-290 34701,-847l0 16212c-12105,-505 -23682,-771 -34701,-771 0,10491 215,20346 636,29482 14172,0 29271,-421 45320,-1324zm89447 -1296l-1296 17826c-7362,1773 -14594,2648 -21745,2648 -17746,0 -31255,-4902 -40553,-14701 -9271,-9799 -13906,-21718 -13906,-35731 0,-14542 4930,-27204 14781,-37957 9855,-10753 23363,-16128 40553,-16128 6305,0 12264,716 17905,2171l-2703 17929c-6114,-1984 -11946,-2966 -17536,-2966 -10515,0 -18327,3339 -23439,9986 -5136,6651 -7680,14729 -7680,24238 0,9720 3045,18168 9108,25296 6094,7152 14598,10726 25566,10726 6432,0 13401,-1109 20946,-3335z"/>
   </g>
   <g>
    <path class="fil0" d="M99846 78916c-57290,19869 -76483,82852 -67232,114007 25037,84310 248733,176214 579380,177013 -138945,-8976 -288873,-34256 -400153,-91554 -42338,-21801 -104820,-61197 -123325,-108696 -11600,-29776 -3967,-63475 11095,-90361l235 -409z"/>
    <path class="fil1" d="M199041 0c-19432,30714 -27124,59190 -24564,85714 7951,82426 88421,163839 247211,218620 90063,31068 205318,53577 346827,62839 -239256,2850 -434596,-33473 -553735,-94818 -64891,-33417 -106867,-71009 -120173,-105173 -18573,-47669 12268,-121914 104434,-167182z"/>
    <path class="fil2" d="M339464 160797c0,20239 -14542,30328 -43598,30328 -9883,0 -19074,-1165 -27550,-3546l3789 -17325c8396,2914 16291,4341 23761,4341 8265,0 14224,-791 17826,-2381 3630,-1614 5458,-4317 5458,-8078 0,-3948 -1725,-7259 -5140,-9931 -2942,-2385 -8929,-5486 -17933,-9326 -8158,-3494 -14252,-7335 -18223,-11469 -5009,-5216 -7525,-11684 -7525,-19336 0,-8897 3288,-15838 9883,-20871 6595,-5005 16077,-7521 28448,-7521 10141,0 18645,843 25534,2568l-2890 17218c-6965,-2544 -14514,-3789 -22644,-3789 -12212,0 -18303,3260 -18303,9776 0,3467 1403,6277 4266,8448 2489,1853 7891,4476 16208,7840 8845,3578 15468,7498 19865,11787 5856,5748 8770,12849 8770,21268zm101047 -73501c-473,17400 -688,34777 -688,52153 0,34355 -14093,51545 -42219,51545 -13934,0 -24397,-3816 -31442,-11417 -7021,-7601 -10543,-21268 -10543,-40975 0,-17377 -239,-34487 -716,-51307l21984 0c-688,17508 -1034,34355 -1034,50619 0,14224 1829,23972 5458,29243 3602,5267 9191,7919 16740,7919 7919,0 13640,-2624 17162,-7867 3526,-5271 5271,-15071 5271,-29454 0,-15786 -346,-32606 -1006,-50460l21030 0zm94348 26488c0,12344 -4584,21479 -13771,27387 -9191,5880 -20450,8845 -33799,8845 -2437,0 -4158,-52 -5192,-155 0,9720 290,22537 847,38486l-21797 0c660,-14940 1006,-32555 1006,-52845 0,-18621 -346,-34697 -1006,-48206l13504 0c1912,0 5589,-52 11020,-211 5430,-159 10121,-243 14117,-243 9831,0 18120,2230 24898,6679 6782,4448 10173,11203 10173,20263zm-20024 4266c0,-11075 -7335,-16609 -22036,-16609 -3657,0 -7549,370 -11628,1165 557,9776 847,20847 847,33215 1296,80 2783,135 4500,135 18887,0 28317,-5959 28317,-17905zm128199 17905c0,15890 -4846,29056 -14594,39520 -9720,10435 -21745,15651 -36077,15651 -13667,0 -25081,-4790 -34300,-14383 -9215,-9585 -13799,-21797 -13799,-36578 0,-15894 4846,-29056 14566,-39520 9748,-10435 21773,-15651 36105,-15651 13640,0 25085,4767 34300,14351 9191,9565 13799,21773 13799,36610zm-21400 2250c0,-10809 -2783,-19575 -8321,-26301 -5534,-6726 -12368,-10094 -20473,-10094 -7573,0 -13985,3391 -19257,10173 -5271,6778 -7919,15333 -7919,25693 0,10753 2783,19519 8344,26273 5562,6730 12371,10121 20450,10121 7549,0 13958,-3391 19257,-10201 5267,-6806 7919,-15365 7919,-25665zm120356 50142l-22962 0c-6015,-18303 -10618,-29613 -13823,-33906 -3208,-4289 -8372,-6436 -15524,-6436 -2993,0 -5856,28 -8611,56 0,13294 243,26723 688,40287l-21559 0c664,-15631 1006,-33242 1006,-52845 0,-18832 -342,-34908 -1006,-48206l13429 0c1538,0 4794,-52 9720,-211 4953,-159 9509,-243 13723,-243 23729,0 35600,8134 35600,24373 0,12872 -6782,21849 -20318,26910l0 1165c5220,1459 9799,5538 13723,12236 3944,6703 9243,18967 15914,36820zm-29108 -71386c0,-10304 -6619,-15440 -19865,-15440 -4846,0 -9163,342 -12872,1085 557,7999 851,18462 851,31334 2830,107 5244,159 7199,159 16478,0 24687,-5721 24687,-17138zm112679 -29665l-557 16689c-10328,-771 -20076,-1169 -29243,-1169 -103,9799 -159,20688 -159,32686 0,18621 294,36236 851,52845l-21718 0c660,-16450 1002,-34065 1002,-52845 0,-11783 -103,-22700 -314,-32686 -7287,0 -17297,425 -30014,1244l608 -16764 79544 0zm83571 0l-561 16689c-10324,-771 -20072,-1169 -29239,-1169 -107,9799 -159,20688 -159,32686 0,18621 290,36236 851,52845l-21722 0c664,-16450 1006,-34065 1006,-52845 0,-11783 -103,-22700 -318,-32686 -7283,0 -17297,425 -30010,1244l608 -16764 79544 0zm79540 83965l-636 17086 -66028 0c660,-15631 1006,-33242 1006,-52845 0,-18832 -346,-34908 -1006,-48206l63010 0 -847 17007c-15520,-823 -29613,-1248 -42223,-1248 505,7207 767,15683 767,25455 10809,0 22382,-290 34701,-847l0 16212c-12105,-505 -23682,-771 -34701,-771 0,10491 215,20346 636,29482 14172,0 29271,-421 45320,-1324zm89447 -1296l-1296 17826c-7362,1773 -14594,2648 -21745,2648 -17746,0 -31255,-4902 -40553,-14701 -9271,-9799 -13906,-21718 -13906,-35731 0,-14542 4930,-27204 14781,-37957 9855,-10753 23363,-16128 40553,-16128 6305,0 12264,716 17905,2171l-2703 17929c-6114,-1984 -11946,-2966 -17536,-2966 -10515,0 -18327,3339 -23439,9986 -5136,6651 -7680,14729 -7680,24238 0,9720 3045,18168 9108,25296 6094,7152 14598,10726 25566,10726 6432,0 13401,-1109 20946,-3335z"/>
   </g>
  </g>
 </g>
</svg>
