<?xml version="1.0" encoding="UTF-8"?>
<!DOCTYPE svg PUBLIC "-//W3C//DTD SVG 1.1//EN" "http://www.w3.org/Graphics/SVG/1.1/DTD/svg11.dtd">
<!-- Creator: CorelDRAW -->
<svg xmlns="http://www.w3.org/2000/svg" xml:space="preserve" width="70mm" height="29.8613mm" version="1.1" style="shape-rendering:geometricPrecision; text-rendering:geometricPrecision; image-rendering:optimizeQuality; fill-rule:evenodd; clip-rule:evenodd"
viewBox="0 0 6985809 2980076"
 xmlns:xlink="http://www.w3.org/1999/xlink"
 xmlns:xodm="http://www.corel.com/coreldraw/odm/2003">
 <defs>
  <style type="text/css">
   <![CDATA[
    .fil1 {fill:#008DD0}
    .fil0 {fill:#007CC2}
    .fil2 {fill:#201E1E;fill-rule:nonzero}
   ]]>
  </style>
 </defs>
 <g id="Camada_x0020_1">
  <metadata id="CorelCorpID_0Corel-Layer"/>
  <g id="_2348386841904">
   <g>
    <path class="fil0" d="M629222 497310c-361027,125236 -481991,522139 -423689,718470 157770,531311 1567516,1110504 3651213,1115544 -875611,-56595 -1820472,-215891 -2521737,-576988 -266808,-137381 -660568,-385647 -777191,-684988 -73092,-187639 -24999,-400007 69938,-569443l1467 -2595z"/>
    <path class="fil1" d="M1254352 0c-122471,193547 -170933,373012 -154816,540153 50118,519445 557238,1032513 1557895,1377731 567567,195802 1293902,337644 2185700,396016 -1507787,17954 -2738796,-210941 -3489601,-597546 -408929,-210572 -673462,-447471 -757332,-662794 -117032,-300400 77313,-768289 658153,-1053560z"/>
    <path class="fil2" d="M2139274 1013331c0,127541 -91644,191142 -274752,191142 -62273,0 -120186,-7355 -173607,-22365l23872 -109168c52922,18363 102661,27364 149736,27364 52084,0 89638,-5000 112332,-15019 22874,-10179 34400,-27205 34400,-50917 0,-24859 -10868,-45727 -32394,-62583 -18532,-15029 -56256,-34560 -113010,-58761 -51416,-22035 -89808,-46236 -114847,-72283 -31546,-32873 -47404,-73620 -47404,-121852 0,-56076 20708,-99817 62273,-131533 41556,-31546 101314,-47404 179266,-47404 63930,0 117511,5329 160913,16187l-18193 108510c-43901,-16027 -91474,-23872 -142720,-23872 -76954,0 -115346,20528 -115346,61595 0,21866 8852,39560 26885,53252 15688,11666 49739,28203 102152,49390 55747,22544 97472,47244 125186,74289 36895,36216 55258,80966 55258,134028zm636796 -463199c-2994,109667 -4331,219165 -4331,328672 0,216500 -88810,324820 -266069,324820 -87812,0 -153748,-24031 -198137,-71934 -44230,-47913 -66445,-134028 -66445,-258225 0,-109498 -1497,-217338 -4501,-323333l138539 0c-4331,110346 -6497,216500 -6497,318992 0,89638 11507,151063 34380,184286 22694,33203 57912,49909 105496,49909 49899,0 85965,-16536 108170,-49579 22195,-33223 33203,-94977 33203,-185623 0,-99488 -2166,-205473 -6337,-317984l132531 0zm594582 166921c0,77782 -28881,135365 -86794,172599 -57922,37055 -128868,55747 -212987,55747 -15369,0 -26227,-329 -32724,-988 0,61256 1836,142041 5339,242527l-137371 0c4172,-94139 6337,-205133 6337,-333014 0,-117342 -2166,-218656 -6337,-303793l85117 0c12036,0 35218,-329 69439,-1337 34230,-998 63770,-1507 88969,-1507 61944,0 114178,14031 156901,42075 42743,28043 64110,70597 64110,127691zm-126194 26885c0,-69788 -46236,-104667 -138878,-104667 -23043,0 -47573,2335 -73281,7345 3513,61595 5349,131373 5349,209315 8173,499 17524,848 28372,848 119008,0 178438,-37564 178438,-112841zm807909 112841c0,100147 -30558,183108 -91963,249034 -61266,65766 -137062,98660 -227358,98660 -86145,0 -158079,-30209 -216161,-90646 -58082,-60417 -86973,-137371 -86973,-230522 0,-100157 30538,-183098 91804,-249044 61425,-65766 137211,-98640 227518,-98640 85965,0 158089,30039 216171,90456 57912,60268 86963,137211 86963,230701zm-134866 14181c0,-68112 -17534,-123369 -52424,-165753 -34879,-42394 -77952,-63601 -129038,-63601 -47733,0 -88121,21367 -121343,64090 -33223,42743 -49909,96654 -49909,161921 0,67772 17524,123020 52583,165584 35049,42404 77952,63770 128868,63770 47573,0 87961,-21367 121353,-64269 33203,-42893 49909,-96823 49909,-161741zm758479 315978l-144716 0c-37893,-115336 -66924,-186611 -87123,-213666 -20209,-27025 -52753,-40548 -97821,-40548 -18862,0 -36885,160 -54250,329 0,83790 1507,168428 4341,253884l-135864 0c4172,-98490 6337,-209494 6337,-333014 0,-118679 -2166,-220003 -6337,-303793l84618 0c9680,0 30209,-329 61256,-1337 31217,-998 59918,-1507 86474,-1507 149556,0 224344,51246 224344,153578 0,81125 -42743,137700 -128040,169585l0 7345c32893,9191 61755,34899 86474,77123 24859,42224 58252,119507 100306,232019zm-183437 -449856c0,-64938 -41735,-97312 -125186,-97312 -30558,0 -57753,2166 -81125,6846 3503,50408 5349,116344 5349,197469 17854,659 33033,1008 45378,1008 103839,0 155584,-36067 155584,-108011zm710088 -186950l-3513 105166c-65088,-4850 -126513,-7355 -184276,-7355 -669,61765 -998,130375 -998,205982 0,117352 1836,228356 5349,333014l-136872 0c4162,-103649 6337,-214654 6337,-333014 0,-74269 -669,-143049 -2006,-205982 -45897,0 -108999,2685 -189136,7844l3842 -105655 501272 0zm526650 0l-3513 105166c-65088,-4850 -126513,-7355 -184286,-7355 -659,61765 -988,130375 -988,205982 0,117352 1836,228356 5349,333014l-136882 0c4172,-103649 6337,-214654 6337,-333014 0,-74269 -659,-143049 -1996,-205982 -45907,0 -109009,2685 -189136,7844l3842 -105655 501272 0zm501272 529145l-4012 107661 -416115 0c4162,-98490 6337,-209494 6337,-333014 0,-118679 -2176,-220003 -6337,-303793l397093 0 -5339 107162c-97811,-5179 -186621,-7844 -266069,-7844 3164,45408 4830,98819 4830,160414 68112,0 141043,-1836 218676,-5349l0 102172c-76285,-3184 -149237,-4850 -218676,-4850 0,66106 1337,128200 4002,185783 89309,0 184455,-2665 285610,-8343zm563685 -8173l-8173 112332c-46396,11187 -91973,16696 -137042,16696 -111833,0 -196960,-30887 -255561,-92642 -58411,-61765 -87632,-136882 -87632,-225193 0,-91634 31057,-171422 93151,-239184 62084,-67772 147211,-101653 255561,-101653 39719,0 77283,4501 112831,13672l-17025 113010c-38552,-12515 -75287,-18692 -110506,-18692 -66265,0 -115505,21037 -147720,62932 -32374,41905 -48402,92811 -48402,152740 0,61256 19181,114497 57403,159396 38402,45078 91983,67603 161093,67603 40558,0 84458,-6996 132022,-21017z"/>
   </g>
   <path class="fil2" d="M90177 2980076c-17944,0 -33692,-3952 -47314,-11916 -13612,-7964 -24131,-19271 -31616,-33871 -7475,-14590 -11247,-31556 -11247,-50767l0 -71086c0,-19211 3772,-36177 11247,-50767 7485,-14590 18003,-25907 31616,-33931 13622,-8024 29370,-12036 47314,-12036 14830,0 28512,3223 40977,9541 12465,6387 22864,15329 31257,27005 8393,11606 14041,25109 17025,40428l0 0 -37274 0 0 0c-2245,-8084 -6018,-15319 -11307,-21646 -5289,-6377 -11497,-11247 -18612,-14710 -7106,-3403 -14471,-5169 -22065,-5169 -10579,0 -19830,2555 -27794,7664 -7964,5100 -14161,12275 -18542,21456 -4381,9251 -6567,19949 -6567,32165l0 71086c0,12095 2186,22804 6567,32045 4381,9301 10579,16417 18542,21466 7964,5040 17215,7595 27794,7595 7714,0 15079,-1577 22195,-4800 7046,-3223 13193,-7964 18482,-14291 5289,-6257 9062,-13742 11307,-22434l0 0 37274 0 0 0c-2984,15319 -8692,28821 -17145,40438 -8393,11666 -18852,20668 -31316,26995 -12465,6387 -26087,9541 -40797,9541zm328802 -261698l30947 0 95526 259024 -39220 0 -71804 -208985 -71754 208985 -39220 0 95526 -259024zm-51495 167639l136263 0 0 34540 -136263 0 0 -34540zm345159 -167639l36366 0 0 259024 -36366 0 0 -259024zm18183 224494l148239 0 0 34530 -148239 0 0 -34530zm318952 -224494l36366 0 0 259024 -36366 0 0 -259024zm17634 224494l148788 0 0 34530 -148788 0 0 -34530zm0 -111334l129148 0 0 34530 -129148 0 0 -34530zm0 -113160l148788 0 0 34600 -148788 0 0 -34600zm328443 0l32953 0 126663 200233 -4261 4621 0 -204854 35997 0 0 258844 -33322 0 -126283 -197189 4251 -4621 0 201810 -35997 0 0 -258844zm408101 224494l58611 0c19091,0 33931,-4990 44390,-14900 10519,-9910 15808,-23901 15808,-41955l0 -76255c0,-18053 -5289,-32045 -15808,-41955 -10459,-9910 -25299,-14830 -44390,-14830l-58611 0 0 -34600 57513 0c20798,0 38552,3643 53272,10888 14710,7235 25957,17814 33682,31676 7724,13922 11557,30648 11557,50288l0 73391c0,19580 -3832,36296 -11557,50218 -7724,13872 -18971,24450 -33801,31686 -14780,7235 -32534,10878 -53332,10878l-57334 0 0 -34530zm-24630 -224494l36366 0 0 259024 -36366 0 0 -259024zm430895 0l30957 0 95526 259024 -39220 0 -71814 -208985 -71754 208985 -39210 0 95516 -259024zm-51495 167639l136263 0 0 34540 -136263 0 0 -34540zm50218 -206431l49200 -43661 23462 24380 -52533 40258 -20129 -20977zm310809 153708l88351 0c6876,0 13014,-1637 18363,-4980 5359,-3343 9491,-8034 12405,-14171 2864,-6138 4321,-13133 4321,-21097l0 0c0,-7964 -1457,-15019 -4321,-21097 -2914,-6148 -7046,-10888 -12345,-14171 -5219,-3343 -11427,-4990 -18423,-4990l-88351 0 0 -34590 86953 0c14960,0 28093,3094 39460,9301 11317,6138 20129,14900 26336,26267 6257,11307 9361,24440 9361,39280l0 0c0,14830 -3164,27903 -9421,39280 -6327,11307 -15149,20059 -26456,26267 -11367,6138 -24440,9241 -39280,9241l-86953 0 0 -34540zm-15868 -115096l36366 0 0 259203 -36366 0 0 -259203zm86404 141612l36177 -8153 66285 125745 -43112 0 -59349 -117591zm315798 117591l-36366 0 0 -259024 36366 0 0 259024zm277846 2675c-18053,0 -33981,-3952 -47783,-11856 -13742,-7904 -24390,-19031 -31985,-33502 -7545,-14411 -11317,-31127 -11317,-50098l0 -73391c0,-19031 3772,-35757 11317,-50168 7595,-14411 18243,-25598 31985,-33502 13802,-7904 29730,-11856 47783,-11856 18003,0 33931,3952 47733,11856 13742,7904 24450,19091 31985,33502 7545,14411 11317,31137 11317,50168l0 73391c0,18971 -3772,35688 -11317,50098 -7535,14471 -18243,25598 -31985,33502 -13802,7904 -29730,11856 -47733,11856zm0 -35807c10648,0 20069,-2375 28223,-7235 8143,-4810 14411,-11616 18842,-20438 4501,-8872 6696,-19091 6696,-30767l0 -75876c0,-11616 -2196,-21896 -6696,-30708 -4431,-8882 -10698,-15688 -18842,-20488 -8153,-4810 -17574,-7245 -28223,-7245 -10698,0 -20119,2435 -28273,7245 -8143,4800 -14411,11606 -18842,20488 -4501,8812 -6696,19091 -6696,30708l0 75876c0,11676 2196,21896 6696,30767 4431,8822 10698,15628 18842,20438 8153,4860 17574,7235 28273,7235zm400377 -1397l58621 0c19091,0 33931,-4990 44380,-14900 10529,-9910 15818,-23901 15818,-41955l0 -76255c0,-18053 -5289,-32045 -15818,-41955 -10449,-9910 -25289,-14830 -44380,-14830l-58621 0 0 -34600 57523 0c20798,0 38552,3643 53262,10888 14720,7235 25967,17814 33692,31676 7724,13922 11547,30648 11547,50288l0 73391c0,19580 -3822,36296 -11547,50218 -7724,13872 -18971,24450 -33811,31686 -14770,7235 -32524,10878 -53322,10878l-57344 0 0 -34530zm-24620 -224494l36356 0 0 259024 -36356 0 0 -259024zm427372 0l30947 0 95526 259024 -39220 0 -71814 -208985 -71744 208985 -39220 0 95526 -259024zm-51505 167639l136263 0 0 34540 -136263 0 0 -34540zm527948 94059c-17944,0 -33692,-3952 -47314,-11916 -13612,-7964 -24141,-19271 -31616,-33871 -7475,-14590 -11247,-31556 -11247,-50767l0 -71086c0,-19211 3772,-36177 11247,-50767 7475,-14590 18003,-25907 31616,-33931 13622,-8024 29370,-12036 47314,-12036 14830,0 28512,3223 40977,9541 12465,6387 22864,15329 31257,27005 8393,11606 14041,25109 17025,40428l0 0 -37274 0 0 0c-2255,-8084 -6018,-15319 -11307,-21646 -5289,-6377 -11497,-11247 -18612,-14710 -7116,-3403 -14471,-5169 -22065,-5169 -10588,0 -19830,2555 -27794,7664 -7964,5100 -14161,12275 -18542,21456 -4381,9251 -6567,19949 -6567,32165l0 71086c0,12095 2186,22804 6567,32045 4381,9301 10579,16417 18542,21466 7964,5040 17205,7595 27794,7595 7714,0 15079,-1577 22185,-4800 7056,-3223 13203,-7964 18492,-14291 5289,-6257 9052,-13742 11307,-22434l0 0 37274 0 0 0c-2984,15319 -8692,28821 -17145,40438 -8393,11666 -18852,20668 -31316,26995 -12465,6387 -26087,9541 -40797,9541zm347534 0c-18063,0 -33991,-3952 -47793,-11856 -13742,-7904 -24390,-19031 -31985,-33502 -7545,-14411 -11307,-31127 -11307,-50098l0 -73391c0,-19031 3762,-35757 11307,-50168 7595,-14411 18243,-25598 31985,-33502 13802,-7904 29730,-11856 47793,-11856 17993,0 33921,3952 47723,11856 13752,7904 24450,19091 31985,33502 7545,14411 11317,31137 11317,50168l0 73391c0,18971 -3772,35688 -11317,50098 -7535,14471 -18233,25598 -31985,33502 -13802,7904 -29730,11856 -47723,11856zm0 -35807c10638,0 20059,-2375 28213,-7235 8143,-4810 14411,-11616 18852,-20438 4491,-8872 6686,-19091 6686,-30767l0 -75876c0,-11616 -2196,-21896 -6686,-30708 -4441,-8882 -10708,-15688 -18852,-20488 -8153,-4810 -17574,-7245 -28213,-7245 -10708,0 -20129,2435 -28283,7245 -8143,4800 -14411,11606 -18842,20488 -4501,8812 -6696,19091 -6696,30708l0 75876c0,11676 2196,21896 6696,30767 4431,8822 10698,15628 18842,20438 8153,4860 17574,7235 28283,7235zm292925 -101913l82822 0c7844,0 14710,-1826 20668,-5529 5958,-3653 10519,-8882 13802,-15628 3283,-6816 4930,-14590 4930,-23353l0 0c0,-8932 -1647,-16776 -4930,-23532 -3283,-6746 -7844,-12036 -13802,-15748 -5958,-3772 -12824,-5589 -20668,-5589l-82822 0 0 -34600 81604 0c15439,0 29001,3283 40797,9910 11736,6567 20858,15868 27305,27843 6507,12046 9730,25907 9730,41715l0 0c0,15808 -3223,29670 -9730,41596 -6447,11916 -15568,21157 -27305,27724 -11796,6507 -25358,9790 -40797,9790l-81604 0 0 -34600zm-18722 -123978l36356 0 0 259024 -36356 0 0 -259024zm409738 0l30947 0 95526 259024 -39220 0 -71814 -208985 -71744 208985 -39220 0 95526 -259024zm-51505 167639l136263 0 0 34540 -136263 0 0 -34540zm433879 59828l90297 -120395c5229,-6866 9301,-14041 12225,-21456 2914,-7425 4371,-14351 4371,-20738l0 -369c0,-10329 -3034,-18363 -9121,-24071 -6018,-5659 -14650,-8513 -25778,-8513 -10579,0 -19151,3094 -25658,9301 -6567,6257 -10519,15079 -11986,26506l0 130 -37574 0 0 -130c2126,-14890 6507,-27544 13133,-38063 6567,-10519 15079,-18542 25538,-24021 10459,-5529 22504,-8323 36177,-8323 15449,0 28582,2675 39530,7964 10938,5289 19271,12954 24929,23043 5718,10099 8573,22255 8573,36546l0 180c0,9121 -1886,18672 -5718,28642 -3772,9970 -9062,19640 -15868,28881l-74978 101913 97961 0 0 34530 -146053 0 0 -31556zm394359 34230c-24201,0 -42564,-6507 -55088,-19391 -12594,-12954 -18852,-31017 -18852,-54180l0 -117781c0,-23223 6317,-41346 18912,-54240 12584,-12884 30947,-19331 55028,-19331 24261,0 42623,6447 55148,19271 12525,12834 18792,30957 18792,54300l0 117781c0,23293 -6267,41346 -18852,54240 -12584,12894 -30947,19331 -55088,19331zm0 -34530c12824,0 22315,-3403 28452,-10099 6078,-6686 9121,-16357 9121,-28941l0 -117781c0,-12584 -2984,-22195 -9062,-28941 -6078,-6686 -15568,-10030 -28512,-10030 -12954,0 -22444,3343 -28462,10030 -6078,6746 -9121,16357 -9121,28941l0 117781c0,12584 3044,22255 9181,28941 6148,6696 15568,10099 28402,10099zm251519 299l90297 -120395c5229,-6866 9301,-14041 12225,-21456 2914,-7425 4371,-14351 4371,-20738l0 -369c0,-10329 -3034,-18363 -9121,-24071 -6018,-5659 -14650,-8513 -25778,-8513 -10579,0 -19151,3094 -25658,9301 -6567,6257 -10519,15079 -11976,26506l0 130 -37584 0 0 -130c2126,-14890 6507,-27544 13133,-38063 6567,-10519 15079,-18542 25538,-24021 10459,-5529 22504,-8323 36186,-8323 15439,0 28572,2675 39520,7964 10948,5289 19271,12954 24929,23043 5718,10099 8573,22255 8573,36546l0 180c0,9121 -1886,18672 -5718,28642 -3762,9970 -9062,19640 -15868,28881l-74968 101913 97951 0 0 34530 -146053 0 0 -31556zm316527 0l90297 -120395c5229,-6866 9301,-14041 12215,-21456 2924,-7425 4381,-14351 4381,-20738l0 -369c0,-10329 -3034,-18363 -9121,-24071 -6018,-5659 -14650,-8513 -25778,-8513 -10579,0 -19151,3094 -25658,9301 -6567,6257 -10519,15079 -11986,26506l0 130 -37574 0 0 -130c2126,-14890 6507,-27544 13133,-38063 6567,-10519 15079,-18542 25538,-24021 10459,-5529 22494,-8323 36177,-8323 15449,0 28582,2675 39530,7964 10938,5289 19271,12954 24929,23043 5708,10099 8573,22255 8573,36546l0 180c0,9121 -1886,18672 -5718,28642 -3772,9970 -9062,19640 -15868,28881l-74978 101913 97961 0 0 34530 -146053 0 0 -31556z"/>
   <g>
    <path class="fil0" d="M629222 497310c-361027,125236 -481991,522139 -423689,718470 157770,531311 1567516,1110504 3651213,1115544 -875611,-56595 -1820472,-215891 -2521737,-576988 -266808,-137381 -660568,-385647 -777191,-684988 -73092,-187639 -24999,-400007 69938,-569443l1467 -2595z"/>
    <path class="fil1" d="M1254352 0c-122471,193547 -170933,373012 -154816,540153 50118,519445 557238,1032513 1557895,1377731 567567,195802 1293902,337644 2185700,396016 -1507787,17954 -2738796,-210941 -3489601,-597546 -408929,-210572 -673462,-447471 -757332,-662794 -117032,-300400 77313,-768289 658153,-1053560z"/>
    <path class="fil2" d="M2139274 1013331c0,127541 -91644,191142 -274752,191142 -62273,0 -120186,-7355 -173607,-22365l23872 -109168c52922,18363 102661,27364 149736,27364 52084,0 89638,-5000 112332,-15019 22874,-10179 34400,-27205 34400,-50917 0,-24859 -10868,-45727 -32394,-62583 -18532,-15029 -56256,-34560 -113010,-58761 -51416,-22035 -89808,-46236 -114847,-72283 -31546,-32873 -47404,-73620 -47404,-121852 0,-56076 20708,-99817 62273,-131533 41556,-31546 101314,-47404 179266,-47404 63930,0 117511,5329 160913,16187l-18193 108510c-43901,-16027 -91474,-23872 -142720,-23872 -76954,0 -115346,20528 -115346,61595 0,21866 8852,39560 26885,53252 15688,11666 49739,28203 102152,49390 55747,22544 97472,47244 125186,74289 36895,36216 55258,80966 55258,134028zm636796 -463199c-2994,109667 -4331,219165 -4331,328672 0,216500 -88810,324820 -266069,324820 -87812,0 -153748,-24031 -198137,-71934 -44230,-47913 -66445,-134028 -66445,-258225 0,-109498 -1497,-217338 -4501,-323333l138539 0c-4331,110346 -6497,216500 -6497,318992 0,89638 11507,151063 34380,184286 22694,33203 57912,49909 105496,49909 49899,0 85965,-16536 108170,-49579 22195,-33223 33203,-94977 33203,-185623 0,-99488 -2166,-205473 -6337,-317984l132531 0zm594582 166921c0,77782 -28881,135365 -86794,172599 -57922,37055 -128868,55747 -212987,55747 -15369,0 -26227,-329 -32724,-988 0,61256 1836,142041 5339,242527l-137371 0c4172,-94139 6337,-205133 6337,-333014 0,-117342 -2166,-218656 -6337,-303793l85117 0c12036,0 35218,-329 69439,-1337 34230,-998 63770,-1507 88969,-1507 61944,0 114178,14031 156901,42075 42743,28043 64110,70597 64110,127691zm-126194 26885c0,-69788 -46236,-104667 -138878,-104667 -23043,0 -47573,2335 -73281,7345 3513,61595 5349,131373 5349,209315 8173,499 17524,848 28372,848 119008,0 178438,-37564 178438,-112841zm807909 112841c0,100147 -30558,183108 -91963,249034 -61266,65766 -137062,98660 -227358,98660 -86145,0 -158079,-30209 -216161,-90646 -58082,-60417 -86973,-137371 -86973,-230522 0,-100157 30538,-183098 91804,-249044 61425,-65766 137211,-98640 227518,-98640 85965,0 158089,30039 216171,90456 57912,60268 86963,137211 86963,230701zm-134866 14181c0,-68112 -17534,-123369 -52424,-165753 -34879,-42394 -77952,-63601 -129038,-63601 -47733,0 -88121,21367 -121343,64090 -33223,42743 -49909,96654 -49909,161921 0,67772 17524,123020 52583,165584 35049,42404 77952,63770 128868,63770 47573,0 87961,-21367 121353,-64269 33203,-42893 49909,-96823 49909,-161741zm758479 315978l-144716 0c-37893,-115336 -66924,-186611 -87123,-213666 -20209,-27025 -52753,-40548 -97821,-40548 -18862,0 -36885,160 -54250,329 0,83790 1507,168428 4341,253884l-135864 0c4172,-98490 6337,-209494 6337,-333014 0,-118679 -2166,-220003 -6337,-303793l84618 0c9680,0 30209,-329 61256,-1337 31217,-998 59918,-1507 86474,-1507 149556,0 224344,51246 224344,153578 0,81125 -42743,137700 -128040,169585l0 7345c32893,9191 61755,34899 86474,77123 24859,42224 58252,119507 100306,232019zm-183437 -449856c0,-64938 -41735,-97312 -125186,-97312 -30558,0 -57753,2166 -81125,6846 3503,50408 5349,116344 5349,197469 17854,659 33033,1008 45378,1008 103839,0 155584,-36067 155584,-108011zm710088 -186950l-3513 105166c-65088,-4850 -126513,-7355 -184276,-7355 -669,61765 -998,130375 -998,205982 0,117352 1836,228356 5349,333014l-136872 0c4162,-103649 6337,-214654 6337,-333014 0,-74269 -669,-143049 -2006,-205982 -45897,0 -108999,2685 -189136,7844l3842 -105655 501272 0zm526650 0l-3513 105166c-65088,-4850 -126513,-7355 -184286,-7355 -659,61765 -988,130375 -988,205982 0,117352 1836,228356 5349,333014l-136882 0c4172,-103649 6337,-214654 6337,-333014 0,-74269 -659,-143049 -1996,-205982 -45907,0 -109009,2685 -189136,7844l3842 -105655 501272 0zm501272 529145l-4012 107661 -416115 0c4162,-98490 6337,-209494 6337,-333014 0,-118679 -2176,-220003 -6337,-303793l397093 0 -5339 107162c-97811,-5179 -186621,-7844 -266069,-7844 3164,45408 4830,98819 4830,160414 68112,0 141043,-1836 218676,-5349l0 102172c-76285,-3184 -149237,-4850 -218676,-4850 0,66106 1337,128200 4002,185783 89309,0 184455,-2665 285610,-8343zm563685 -8173l-8173 112332c-46396,11187 -91973,16696 -137042,16696 -111833,0 -196960,-30887 -255561,-92642 -58411,-61765 -87632,-136882 -87632,-225193 0,-91634 31057,-171422 93151,-239184 62084,-67772 147211,-101653 255561,-101653 39719,0 77283,4501 112831,13672l-17025 113010c-38552,-12515 -75287,-18692 -110506,-18692 -66265,0 -115505,21037 -147720,62932 -32374,41905 -48402,92811 -48402,152740 0,61256 19181,114497 57403,159396 38402,45078 91983,67603 161093,67603 40558,0 84458,-6996 132022,-21017z"/>
   </g>
   <g>
    <path class="fil0" d="M629222 497310c-361027,125236 -481991,522139 -423689,718470 157770,531311 1567516,1110504 3651213,1115544 -875611,-56595 -1820472,-215891 -2521737,-576988 -266808,-137381 -660568,-385647 -777191,-684988 -73092,-187639 -24999,-400007 69938,-569443l1467 -2595z"/>
    <path class="fil1" d="M1254352 0c-122471,193547 -170933,373012 -154816,540153 50118,519445 557238,1032513 1557895,1377731 567567,195802 1293902,337644 2185700,396016 -1507787,17954 -2738796,-210941 -3489601,-597546 -408929,-210572 -673462,-447471 -757332,-662794 -117032,-300400 77313,-768289 658153,-1053560z"/>
    <path class="fil2" d="M2139274 1013331c0,127541 -91644,191142 -274752,191142 -62273,0 -120186,-7355 -173607,-22365l23872 -109168c52922,18363 102661,27364 149736,27364 52084,0 89638,-5000 112332,-15019 22874,-10179 34400,-27205 34400,-50917 0,-24859 -10868,-45727 -32394,-62583 -18532,-15029 -56256,-34560 -113010,-58761 -51416,-22035 -89808,-46236 -114847,-72283 -31546,-32873 -47404,-73620 -47404,-121852 0,-56076 20708,-99817 62273,-131533 41556,-31546 101314,-47404 179266,-47404 63930,0 117511,5329 160913,16187l-18193 108510c-43901,-16027 -91474,-23872 -142720,-23872 -76954,0 -115346,20528 -115346,61595 0,21866 8852,39560 26885,53252 15688,11666 49739,28203 102152,49390 55747,22544 97472,47244 125186,74289 36895,36216 55258,80966 55258,134028zm636796 -463199c-2994,109667 -4331,219165 -4331,328672 0,216500 -88810,324820 -266069,324820 -87812,0 -153748,-24031 -198137,-71934 -44230,-47913 -66445,-134028 -66445,-258225 0,-109498 -1497,-217338 -4501,-323333l138539 0c-4331,110346 -6497,216500 -6497,318992 0,89638 11507,151063 34380,184286 22694,33203 57912,49909 105496,49909 49899,0 85965,-16536 108170,-49579 22195,-33223 33203,-94977 33203,-185623 0,-99488 -2166,-205473 -6337,-317984l132531 0zm594582 166921c0,77782 -28881,135365 -86794,172599 -57922,37055 -128868,55747 -212987,55747 -15369,0 -26227,-329 -32724,-988 0,61256 1836,142041 5339,242527l-137371 0c4172,-94139 6337,-205133 6337,-333014 0,-117342 -2166,-218656 -6337,-303793l85117 0c12036,0 35218,-329 69439,-1337 34230,-998 63770,-1507 88969,-1507 61944,0 114178,14031 156901,42075 42743,28043 64110,70597 64110,127691zm-126194 26885c0,-69788 -46236,-104667 -138878,-104667 -23043,0 -47573,2335 -73281,7345 3513,61595 5349,131373 5349,209315 8173,499 17524,848 28372,848 119008,0 178438,-37564 178438,-112841zm807909 112841c0,100147 -30558,183108 -91963,249034 -61266,65766 -137062,98660 -227358,98660 -86145,0 -158079,-30209 -216161,-90646 -58082,-60417 -86973,-137371 -86973,-230522 0,-100157 30538,-183098 91804,-249044 61425,-65766 137211,-98640 227518,-98640 85965,0 158089,30039 216171,90456 57912,60268 86963,137211 86963,230701zm-134866 14181c0,-68112 -17534,-123369 -52424,-165753 -34879,-42394 -77952,-63601 -129038,-63601 -47733,0 -88121,21367 -121343,64090 -33223,42743 -49909,96654 -49909,161921 0,67772 17524,123020 52583,165584 35049,42404 77952,63770 128868,63770 47573,0 87961,-21367 121353,-64269 33203,-42893 49909,-96823 49909,-161741zm758479 315978l-144716 0c-37893,-115336 -66924,-186611 -87123,-213666 -20209,-27025 -52753,-40548 -97821,-40548 -18862,0 -36885,160 -54250,329 0,83790 1507,168428 4341,253884l-135864 0c4172,-98490 6337,-209494 6337,-333014 0,-118679 -2166,-220003 -6337,-303793l84618 0c9680,0 30209,-329 61256,-1337 31217,-998 59918,-1507 86474,-1507 149556,0 224344,51246 224344,153578 0,81125 -42743,137700 -128040,169585l0 7345c32893,9191 61755,34899 86474,77123 24859,42224 58252,119507 100306,232019zm-183437 -449856c0,-64938 -41735,-97312 -125186,-97312 -30558,0 -57753,2166 -81125,6846 3503,50408 5349,116344 5349,197469 17854,659 33033,1008 45378,1008 103839,0 155584,-36067 155584,-108011zm710088 -186950l-3513 105166c-65088,-4850 -126513,-7355 -184276,-7355 -669,61765 -998,130375 -998,205982 0,117352 1836,228356 5349,333014l-136872 0c4162,-103649 6337,-214654 6337,-333014 0,-74269 -669,-143049 -2006,-205982 -45897,0 -108999,2685 -189136,7844l3842 -105655 501272 0zm526650 0l-3513 105166c-65088,-4850 -126513,-7355 -184286,-7355 -659,61765 -988,130375 -988,205982 0,117352 1836,228356 5349,333014l-136882 0c4172,-103649 6337,-214654 6337,-333014 0,-74269 -659,-143049 -1996,-205982 -45907,0 -109009,2685 -189136,7844l3842 -105655 501272 0zm501272 529145l-4012 107661 -416115 0c4162,-98490 6337,-209494 6337,-333014 0,-118679 -2176,-220003 -6337,-303793l397093 0 -5339 107162c-97811,-5179 -186621,-7844 -266069,-7844 3164,45408 4830,98819 4830,160414 68112,0 141043,-1836 218676,-5349l0 102172c-76285,-3184 -149237,-4850 -218676,-4850 0,66106 1337,128200 4002,185783 89309,0 184455,-2665 285610,-8343zm563685 -8173l-8173 112332c-46396,11187 -91973,16696 -137042,16696 -111833,0 -196960,-30887 -255561,-92642 -58411,-61765 -87632,-136882 -87632,-225193 0,-91634 31057,-171422 93151,-239184 62084,-67772 147211,-101653 255561,-101653 39719,0 77283,4501 112831,13672l-17025 113010c-38552,-12515 -75287,-18692 -110506,-18692 -66265,0 -115505,21037 -147720,62932 -32374,41905 -48402,92811 -48402,152740 0,61256 19181,114497 57403,159396 38402,45078 91983,67603 161093,67603 40558,0 84458,-6996 132022,-21017z"/>
   </g>
  </g>
 </g>
</svg>
