<?xml version="1.0" encoding="UTF-8"?>
<!DOCTYPE svg PUBLIC "-//W3C//DTD SVG 1.1//EN" "http://www.w3.org/Graphics/SVG/1.1/DTD/svg11.dtd">
<!-- Creator: CorelDRAW -->
<svg xmlns="http://www.w3.org/2000/svg" xml:space="preserve" width="50.2mm" height="21.4296mm" version="1.1" style="shape-rendering:geometricPrecision; text-rendering:geometricPrecision; image-rendering:optimizeQuality; fill-rule:evenodd; clip-rule:evenodd"
viewBox="0 0 5020000 2142960"
 xmlns:xlink="http://www.w3.org/1999/xlink"
 xmlns:xodm="http://www.corel.com/coreldraw/odm/2003">
 <defs>
  <style type="text/css">
   <![CDATA[
    .str0 {stroke:#FEFEFE;stroke-width:20000;stroke-miterlimit:22.9256}
    .fil5 {fill:#00AFEF}
    .fil4 {fill:#007CC2}
    .fil0 {fill:#007CC2}
    .fil1 {fill:#008DD0}
    .fil3 {fill:#FEFEFE;fill-rule:nonzero}
    .fil2 {fill:#201E1E;fill-rule:nonzero}
   ]]>
  </style>
 </defs>
 <g id="Camada_x0020_1">
  <metadata id="CorelCorpID_0Corel-Layer"/>
  <g id="_1871923111808">
   <path class="fil0" d="M460360 355940c-258400,89640 -344980,373720 -303250,514240 112920,380280 1121920,794830 2613300,798430 -626700,-40500 -1302970,-154520 -1804890,-412970 -190970,-98330 -472800,-276020 -556270,-490270 -52320,-134300 -17900,-286300 50060,-407570l1050 -1860z"/>
   <path class="fil1" d="M907780 0c-87650,138530 -122340,266980 -110800,386610 35870,371780 398830,739000 1115040,986090 406230,140140 926100,241670 1564380,283440 -1079170,12850 -1960250,-150980 -2497630,-427680 -292690,-150720 -482020,-320280 -542050,-474390 -83770,-215010 55340,-549900 471060,-754070z"/>
   <path class="fil2" d="M1541150 725280c0,91280 -65580,136800 -196640,136800 -44570,0 -86030,-5260 -124260,-16000l17090 -78140c37870,13140 73470,19590 107170,19590 37270,0 64150,-3580 80400,-10750 16370,-7290 24620,-19480 24620,-36440 0,-17800 -7780,-32740 -23190,-44800 -13260,-10760 -40260,-24740 -80880,-42060 -36800,-15770 -64280,-33090 -82200,-51730 -22580,-23530 -33930,-52690 -33930,-87220 0,-40130 14820,-71440 44570,-94140 29750,-22580 72520,-33930 128310,-33930 45750,0 84100,3820 115170,11590l-13030 77660c-31410,-11470 -65470,-17080 -102140,-17080 -55080,0 -82560,14690 -82560,44080 0,15650 6340,28320 19240,38120 11230,8350 35600,20180 73120,35350 39900,16130 69760,33810 89600,53170 26400,25920 39540,57950 39540,95930zm455790 -331530c-2150,78490 -3110,156860 -3110,235240 0,154960 -63560,232490 -190430,232490 -62850,0 -110040,-17210 -141820,-51490 -31650,-34290 -47550,-95930 -47550,-184820 0,-78370 -1070,-155560 -3220,-231420l99160 0c-3110,78970 -4660,154950 -4660,228310 0,64160 8240,108120 24610,131900 16240,23770 41450,35720 75510,35720 35710,0 61530,-11830 77420,-35480 15890,-23780 23760,-67980 23760,-132860 0,-71200 -1550,-147060 -4530,-227590l94860 0zm425560 119470c0,55670 -20670,96890 -62120,123530 -41460,26530 -92240,39910 -152450,39910 -10990,0 -18760,-240 -23420,-710 0,43840 1320,101660 3830,173580l-98330 0c2990,-67370 4540,-146820 4540,-238340 0,-83990 -1550,-156510 -4540,-217440l60920 0c8620,0 25210,-240 49700,-960 24500,-710 45650,-1080 63680,-1080 44340,0 81730,10050 112310,30120 30590,20070 45880,50530 45880,91390zm-90320 19240c0,-49950 -33090,-74910 -99400,-74910 -16500,0 -34050,1670 -52450,5260 2510,44080 3820,94020 3820,149810 5850,360 12550,610 20310,610 85180,0 127720,-26890 127720,-80770zm578250 80770c0,71670 -21870,131050 -65830,178240 -43840,47070 -98090,70610 -162720,70610 -61660,0 -113140,-21620 -154720,-64880 -41570,-43240 -62240,-98320 -62240,-164980 0,-71690 21850,-131060 65700,-178260 43970,-47070 98210,-70600 162850,-70600 61520,0 113140,21500 154710,64750 41460,43130 62250,98200 62250,165120zm-96530 10150c0,-48750 -12550,-88300 -37520,-118640 -24970,-30340 -55790,-45520 -92360,-45520 -34160,0 -63070,15300 -86850,45870 -23780,30590 -35720,69180 -35720,115900 0,48500 12550,88050 37640,118510 25080,30350 55790,45640 92230,45640 34050,0 62960,-15290 86860,-46000 23760,-30700 35720,-69300 35720,-115760zm542870 226150l-103580 0c-27120,-82550 -47900,-133560 -62350,-152920 -14470,-19350 -37760,-29030 -70020,-29030 -13500,0 -26400,120 -38830,240 0,59970 1080,120550 3110,181710l-97250 0c2990,-70490 4540,-149940 4540,-238340 0,-84950 -1550,-157470 -4540,-217440l60570 0c6930,0 21620,-240 43850,-960 22340,-710 42880,-1080 61890,-1080 107040,0 160570,36680 160570,109920 0,58070 -30590,98560 -91640,121380l0 5260c23540,6580 44200,24980 61890,55200 17790,30220 41690,85540 71790,166060zm-131290 -321970c0,-46480 -29870,-69660 -89600,-69660 -21870,0 -41340,1560 -58070,4910 2510,36080 3830,83260 3830,141330 12780,470 23650,720 32480,720 74330,0 111360,-25810 111360,-77300zm508230 -133810l-2510 75270c-46580,-3470 -90550,-5260 -131900,-5260 -470,44200 -710,93310 -710,147430 0,83980 1320,163430 3830,238340l-97970 0c2990,-74180 4540,-153630 4540,-238340 0,-53160 -470,-102390 -1430,-147430 -32850,0 -78020,1920 -135370,5610l2750 -75620 358770 0zm376950 0l-2520 75270c-46580,-3470 -90550,-5260 -131900,-5260 -470,44200 -710,93310 -710,147430 0,83980 1320,163430 3830,238340l-97970 0c2990,-74180 4540,-153630 4540,-238340 0,-53160 -470,-102390 -1430,-147430 -32860,0 -78020,1920 -135370,5610l2750 -75620 358780 0zm358770 378730l-2870 77050 -297830 0c2990,-70490 4540,-149940 4540,-238340 0,-84950 -1550,-157470 -4540,-217440l284220 0 -3820 76700c-70010,-3710 -133570,-5620 -190440,-5620 2260,32500 3460,70740 3460,114820 48750,0 100950,-1320 156520,-3830l0 73130c-54610,-2280 -106820,-3480 -156520,-3480 0,47320 960,91760 2870,132980 63920,0 132010,-1910 204410,-5970zm403460 -5850l-5850 80390c-33210,8010 -65830,11960 -98090,11960 -80040,0 -140970,-22110 -182910,-66310 -41810,-44210 -62720,-97970 -62720,-161180 0,-65580 22220,-122690 66660,-171190 44440,-48510 105370,-72760 182920,-72760 28430,0 55310,3220 80760,9790l-12190 80880c-27590,-8960 -53880,-13380 -79090,-13380 -47430,0 -82680,15060 -105730,45050 -23170,29990 -34650,66430 -34650,109320 0,43840 13740,81950 41090,114090 27490,32260 65840,48380 115300,48380 29030,0 60450,-5010 94500,-15040z"/>
   <path class="fil3 str0" d="M74540 2132960c-12840,0 -24110,-2830 -33860,-8530 -9750,-5700 -17280,-13790 -22630,-24240 -5350,-10440 -8050,-22590 -8050,-36340l0 -50870c0,-13760 2700,-25900 8050,-36340 5350,-10450 12880,-18540 22630,-24290 9750,-5740 21020,-8610 33860,-8610 10620,0 20410,2300 29330,6830 8920,4570 16370,10970 22370,19320 6010,8310 10060,17980 12190,28940l0 0 -26680 0 0 0c-1610,-5790 -4310,-10960 -8090,-15490 -3790,-4570 -8230,-8050 -13320,-10530 -5090,-2440 -10360,-3700 -15800,-3700 -7570,0 -14190,1830 -19890,5480 -5700,3660 -10140,8790 -13270,15360 -3140,6620 -4700,14280 -4700,23030l0 50870c0,8660 1560,16320 4700,22940 3130,6660 7570,11750 13270,15360 5700,3610 12320,5440 19890,5440 5530,0 10790,-1130 15890,-3440 5040,-2300 9440,-5700 13230,-10230 3780,-4480 6480,-9830 8090,-16050l0 0 26680 0 0 0c-2130,10960 -6230,20620 -12270,28940 -6010,8350 -13500,14790 -22420,19320 -8920,4570 -18670,6830 -29200,6830zm235340 -187310l22150 0 68370 185400 -28070 0 -51400 -149580 -51350 149580 -28070 0 68370 -185400zm-36860 119990l97530 0 0 24720 -97530 0 0 -24720zm247040 -119990l26030 0 0 185400 -26030 0 0 -185400zm13020 160680l106100 0 0 24720 -106100 0 0 -24720zm228290 -160680l26020 0 0 185400 -26020 0 0 -185400zm12620 160680l106490 0 0 24720 -106490 0 0 -24720zm0 -79690l92430 0 0 24720 -92430 0 0 -24720zm0 -80990l106490 0 0 24760 -106490 0 0 -24760zm235080 0l23580 0 90660 143310 -3050 3310 0 -146620 25760 0 0 185270 -23850 0 -90390 -141140 3050 -3310 0 144450 -25760 0 0 -185270zm292080 160680l41960 0c13660,0 24280,-3570 31770,-10660 7530,-7100 11310,-17110 11310,-30030l0 -54580c0,-12920 -3780,-22930 -11310,-30030 -7490,-7090 -18110,-10620 -31770,-10620l-41960 0 0 -24760 41170 0c14890,0 27600,2610 38130,7790 10530,5180 18580,12750 24110,22670 5530,9970 8270,21940 8270,36000l0 52530c0,14010 -2740,25980 -8270,35940 -5530,9930 -13580,17500 -24200,22680 -10570,5180 -23280,7790 -38170,7790l-41040 0 0 -24720zm-17620 -160680l26020 0 0 185400 -26020 0 0 -185400zm308410 0l22150 0 68370 185400 -28070 0 -51400 -149580 -51350 149580 -28070 0 68370 -185400zm-36860 119990l97530 0 0 24720 -97530 0 0 -24720zm35940 -147760l35210 -31240 16800 17450 -37600 28810 -14410 -15020zm222460 110020l63240 0c4910,0 9310,-1170 13140,-3560 3830,-2400 6790,-5750 8880,-10150 2040,-4390 3090,-9400 3090,-15100l0 0c0,-5700 -1050,-10750 -3090,-15100 -2090,-4390 -5050,-7790 -8840,-10140 -3740,-2390 -8180,-3570 -13180,-3570l-63240 0 0 -24760 62240 0c10700,0 20100,2220 28240,6660 8100,4390 14410,10660 18850,18800 4480,8090 6700,17490 6700,28110l0 0c0,10620 -2270,19980 -6750,28120 -4520,8090 -10840,14360 -18930,18800 -8140,4390 -17500,6610 -28110,6610l-62240 0 0 -24720zm-11360 -82390l26030 0 0 185530 -26030 0 0 -185530zm61850 101360l25890 -5830 47440 90000 -30860 0 -42470 -84170zm226020 84180l-26020 0 0 -185400 26020 0 0 185400zm198870 1910c-12920,0 -24330,-2830 -34210,-8480 -9830,-5660 -17450,-13630 -22890,-23980 -5390,-10320 -8090,-22290 -8090,-35860l0 -52530c0,-13630 2700,-25590 8090,-35910 5440,-10310 13060,-18320 22890,-23980 9880,-5660 21290,-8480 34210,-8480 12880,0 24290,2820 34160,8480 9840,5660 17500,13670 22900,23980 5390,10320 8090,22280 8090,35910l0 52530c0,13570 -2700,25540 -8090,35860 -5400,10350 -13060,18320 -22900,23980 -9870,5650 -21280,8480 -34160,8480zm0 -25630c7620,0 14360,-1700 20190,-5180 5840,-3440 10320,-8310 13500,-14620 3220,-6360 4780,-13670 4780,-22020l0 -54320c0,-8310 -1560,-15670 -4780,-21980 -3180,-6350 -7660,-11220 -13500,-14660 -5830,-3440 -12570,-5180 -20190,-5180 -7660,0 -14400,1740 -20240,5180 -5830,3440 -10310,8310 -13490,14660 -3220,6310 -4780,13670 -4780,21980l0 54320c0,8350 1560,15660 4780,22020 3180,6310 7660,11180 13490,14620 5840,3480 12580,5180 20240,5180zm286560 -1000l41960 0c13660,0 24280,-3570 31770,-10660 7530,-7100 11310,-17110 11310,-30030l0 -54580c0,-12920 -3780,-22930 -11310,-30030 -7490,-7090 -18110,-10620 -31770,-10620l-41960 0 0 -24760 41170 0c14890,0 27600,2610 38130,7790 10530,5180 18580,12750 24110,22670 5520,9970 8270,21940 8270,36000l0 52530c0,14010 -2750,25980 -8270,35940 -5530,9930 -13580,17500 -24200,22680 -10580,5180 -23280,7790 -38170,7790l-41040 0 0 -24720zm-17620 -160680l26020 0 0 185400 -26020 0 0 -185400zm305880 0l22150 0 68380 185400 -28080 0 -51390 -149580 -51360 149580 -28070 0 68370 -185400zm-36860 119990l97530 0 0 24720 -97530 0 0 -24720zm377870 67320c-12840,0 -24110,-2830 -33860,-8530 -9750,-5700 -17280,-13790 -22630,-24240 -5350,-10440 -8050,-22590 -8050,-36340l0 -50870c0,-13760 2700,-25900 8050,-36340 5350,-10450 12880,-18540 22630,-24290 9750,-5740 21020,-8610 33860,-8610 10620,0 20410,2300 29330,6830 8920,4570 16370,10970 22370,19320 6010,8310 10050,17980 12190,28940l0 0 -26680 0 0 0c-1610,-5790 -4310,-10960 -8100,-15490 -3780,-4570 -8220,-8050 -13310,-10530 -5090,-2440 -10360,-3700 -15800,-3700 -7570,0 -14190,1830 -19890,5480 -5700,3660 -10140,8790 -13270,15360 -3140,6620 -4700,14280 -4700,23030l0 50870c0,8660 1560,16320 4700,22940 3130,6660 7570,11750 13270,15360 5700,3610 12320,5440 19890,5440 5530,0 10790,-1130 15880,-3440 5050,-2300 9450,-5700 13230,-10230 3790,-4480 6490,-9830 8100,-16050l0 0 26680 0 0 0c-2140,10960 -6230,20620 -12280,28940 -6000,8350 -13490,14790 -22410,19320 -8920,4570 -18670,6830 -29200,6830zm248740 0c-12920,0 -24320,-2830 -34200,-8480 -9840,-5660 -17460,-13630 -22900,-23980 -5390,-10320 -8090,-22290 -8090,-35860l0 -52530c0,-13630 2700,-25590 8090,-35910 5440,-10310 13060,-18320 22900,-23980 9880,-5660 21280,-8480 34200,-8480 12890,0 24290,2820 34170,8480 9830,5660 17490,13670 22890,23980 5390,10320 8090,22280 8090,35910l0 52530c0,13570 -2700,25540 -8090,35860 -5400,10350 -13060,18320 -22890,23980 -9880,5650 -21280,8480 -34170,8480zm0 -25630c7620,0 14360,-1700 20200,-5180 5830,-3440 10310,-8310 13490,-14620 3220,-6360 4790,-13670 4790,-22020l0 -54320c0,-8310 -1570,-15670 -4790,-21980 -3180,-6350 -7660,-11220 -13490,-14660 -5840,-3440 -12580,-5180 -20200,-5180 -7660,0 -14400,1740 -20230,5180 -5840,3440 -10320,8310 -13500,14660 -3220,6310 -4780,13670 -4780,21980l0 54320c0,8350 1560,15660 4780,22020 3180,6310 7660,11180 13500,14620 5830,3480 12570,5180 20230,5180zm209660 -72940l59280 0c5610,0 10530,-1310 14800,-3960 4260,-2610 7530,-6360 9880,-11190 2350,-4870 3520,-10440 3520,-16710l0 0c0,-6400 -1170,-12010 -3520,-16840 -2350,-4830 -5620,-8620 -9880,-11270 -4270,-2700 -9190,-4010 -14800,-4010l-59280 0 0 -24760 58410 0c11050,0 20760,2350 29200,7090 8400,4700 14930,11360 19540,19940 4660,8610 6970,18540 6970,29850l0 0c0,11320 -2310,21240 -6970,29770 -4610,8530 -11140,15140 -19540,19840 -8440,4660 -18150,7010 -29200,7010l-58410 0 0 -24760zm-13400 -88740l26030 0 0 185400 -26030 0 0 -185400zm293270 0l22150 0 68370 185400 -28070 0 -51400 -149580 -51350 149580 -28080 0 68380 -185400zm-36870 119990l97530 0 0 24720 -97530 0 0 -24720zm310550 42820l64620 -86170c3750,-4920 6660,-10050 8750,-15360 2090,-5310 3130,-10270 3130,-14840l0 -260c0,-7400 -2170,-13150 -6520,-17240 -4310,-4050 -10490,-6090 -18460,-6090 -7570,0 -13700,2220 -18360,6660 -4700,4480 -7530,10790 -8580,18970l0 90 -26890 0 0 -90c1520,-10660 4660,-19710 9400,-27240 4700,-7530 10790,-13280 18280,-17190 7480,-3960 16100,-5960 25890,-5960 11060,0 20460,1910 28290,5700 7830,3780 13800,9270 17840,16490 4100,7230 6140,15930 6140,26160l0 130c0,6530 -1350,13360 -4090,20500 -2700,7130 -6480,14050 -11360,20670l-53660 72940 70110 0 0 24720 -104530 0 0 -22590zm282250 24500c-17320,0 -30460,-4650 -39430,-13880 -9010,-9270 -13490,-22200 -13490,-38780l0 -84300c0,-16620 4530,-29590 13530,-38820 9010,-9220 22160,-13840 39390,-13840 17360,0 30510,4620 39470,13800 8970,9180 13450,22150 13450,38860l0 84300c0,16670 -4480,29600 -13490,38820 -9010,9230 -22150,13840 -39430,13840zm0 -24720c9180,0 15970,-2430 20370,-7220 4350,-4790 6530,-11710 6530,-20720l0 -84300c0,-9000 -2140,-15880 -6490,-20710 -4350,-4790 -11140,-7180 -20410,-7180 -9270,0 -16060,2390 -20370,7180 -4350,4830 -6530,11710 -6530,20710l0 84300c0,9010 2180,15930 6580,20720 4390,4790 11140,7220 20320,7220zm180030 220l64620 -86170c3750,-4920 6660,-10050 8750,-15360 2090,-5310 3130,-10270 3130,-14840l0 -260c0,-7400 -2170,-13150 -6520,-17240 -4310,-4050 -10490,-6090 -18460,-6090 -7570,0 -13710,2220 -18360,6660 -4700,4480 -7530,10790 -8580,18970l0 90 -26890 0 0 -90c1520,-10660 4660,-19710 9400,-27240 4700,-7530 10790,-13280 18280,-17190 7480,-3960 16100,-5960 25890,-5960 11060,0 20460,1910 28290,5700 7830,3780 13800,9270 17840,16490 4090,7230 6140,15930 6140,26160l0 130c0,6530 -1350,13360 -4090,20500 -2700,7130 -6490,14050 -11360,20670l-53660 72940 70110 0 0 24720 -104530 0 0 -22590zm226540 0l64630 -86170c3740,-4920 6660,-10050 8750,-15360 2090,-5310 3130,-10270 3130,-14840l0 -260c0,-7400 -2170,-13150 -6530,-17240 -4300,-4050 -10480,-6090 -18450,-6090 -7570,0 -13710,2220 -18360,6660 -4700,4480 -7530,10790 -8580,18970l0 90 -26890 0 0 -90c1520,-10660 4650,-19710 9400,-27240 4700,-7530 10790,-13280 18280,-17190 7480,-3960 16100,-5960 25890,-5960 11050,0 20460,1910 28290,5700 7830,3780 13790,9270 17840,16490 4090,7230 6140,15930 6140,26160l0 130c0,6530 -1350,13360 -4090,20500 -2700,7130 -6490,14050 -11360,20670l-53660 72940 70110 0 0 24720 -104540 0 0 -22590z"/>
   <path class="fil0" d="M460360 355940c-258400,89640 -344980,373720 -303250,514240 112920,380280 1121920,794830 2613300,798430 -626700,-40500 -1302970,-154520 -1804890,-412970 -190970,-98330 -472800,-276020 -556270,-490270 -52320,-134300 -17900,-286300 50060,-407570l1050 -1860z"/>
   <path class="fil1" d="M907780 0c-87650,138530 -122340,266980 -110800,386610 35870,371780 398830,739000 1115040,986090 406230,140140 926100,241670 1564380,283440 -1079170,12850 -1960250,-150980 -2497630,-427680 -292690,-150720 -482020,-320280 -542050,-474390 -83770,-215010 55340,-549900 471060,-754070z"/>
   <path class="fil2" d="M1541150 725280c0,91280 -65580,136800 -196640,136800 -44570,0 -86030,-5260 -124260,-16000l17090 -78140c37870,13140 73470,19590 107170,19590 37270,0 64150,-3580 80400,-10750 16370,-7290 24620,-19480 24620,-36440 0,-17800 -7780,-32740 -23190,-44800 -13260,-10760 -40260,-24740 -80880,-42060 -36800,-15770 -64280,-33090 -82200,-51730 -22580,-23530 -33930,-52690 -33930,-87220 0,-40130 14820,-71440 44570,-94140 29750,-22580 72520,-33930 128310,-33930 45750,0 84100,3820 115170,11590l-13030 77660c-31410,-11470 -65470,-17080 -102140,-17080 -55080,0 -82560,14690 -82560,44080 0,15650 6340,28320 19240,38120 11230,8350 35600,20180 73120,35350 39900,16130 69760,33810 89600,53170 26400,25920 39540,57950 39540,95930zm455790 -331530c-2150,78490 -3110,156860 -3110,235240 0,154960 -63560,232490 -190430,232490 -62850,0 -110040,-17210 -141820,-51490 -31650,-34290 -47550,-95930 -47550,-184820 0,-78370 -1070,-155560 -3220,-231420l99160 0c-3110,78970 -4660,154950 -4660,228310 0,64160 8240,108120 24610,131900 16240,23770 41450,35720 75510,35720 35710,0 61530,-11830 77420,-35480 15890,-23780 23760,-67980 23760,-132860 0,-71200 -1550,-147060 -4530,-227590l94860 0zm425560 119470c0,55670 -20670,96890 -62120,123530 -41460,26530 -92240,39910 -152450,39910 -10990,0 -18760,-240 -23420,-710 0,43840 1320,101660 3830,173580l-98330 0c2990,-67370 4540,-146820 4540,-238340 0,-83990 -1550,-156510 -4540,-217440l60920 0c8620,0 25210,-240 49700,-960 24500,-710 45650,-1080 63680,-1080 44340,0 81730,10050 112310,30120 30590,20070 45880,50530 45880,91390zm-90320 19240c0,-49950 -33090,-74910 -99400,-74910 -16500,0 -34050,1670 -52450,5260 2510,44080 3820,94020 3820,149810 5850,360 12550,610 20310,610 85180,0 127720,-26890 127720,-80770zm578250 80770c0,71670 -21870,131050 -65830,178240 -43840,47070 -98090,70610 -162720,70610 -61660,0 -113140,-21620 -154720,-64880 -41570,-43240 -62240,-98320 -62240,-164980 0,-71690 21850,-131060 65700,-178260 43970,-47070 98210,-70600 162850,-70600 61520,0 113140,21500 154710,64750 41460,43130 62250,98200 62250,165120zm-96530 10150c0,-48750 -12550,-88300 -37520,-118640 -24970,-30340 -55790,-45520 -92360,-45520 -34160,0 -63070,15300 -86850,45870 -23780,30590 -35720,69180 -35720,115900 0,48500 12550,88050 37640,118510 25080,30350 55790,45640 92230,45640 34050,0 62960,-15290 86860,-46000 23760,-30700 35720,-69300 35720,-115760zm542870 226150l-103580 0c-27120,-82550 -47900,-133560 -62350,-152920 -14470,-19350 -37760,-29030 -70020,-29030 -13500,0 -26400,120 -38830,240 0,59970 1080,120550 3110,181710l-97250 0c2990,-70490 4540,-149940 4540,-238340 0,-84950 -1550,-157470 -4540,-217440l60570 0c6930,0 21620,-240 43850,-960 22340,-710 42880,-1080 61890,-1080 107040,0 160570,36680 160570,109920 0,58070 -30590,98560 -91640,121380l0 5260c23540,6580 44200,24980 61890,55200 17790,30220 41690,85540 71790,166060zm-131290 -321970c0,-46480 -29870,-69660 -89600,-69660 -21870,0 -41340,1560 -58070,4910 2510,36080 3830,83260 3830,141330 12780,470 23650,720 32480,720 74330,0 111360,-25810 111360,-77300zm508230 -133810l-2510 75270c-46580,-3470 -90550,-5260 -131900,-5260 -470,44200 -710,93310 -710,147430 0,83980 1320,163430 3830,238340l-97970 0c2990,-74180 4540,-153630 4540,-238340 0,-53160 -470,-102390 -1430,-147430 -32850,0 -78020,1920 -135370,5610l2750 -75620 358770 0zm376950 0l-2520 75270c-46580,-3470 -90550,-5260 -131900,-5260 -470,44200 -710,93310 -710,147430 0,83980 1320,163430 3830,238340l-97970 0c2990,-74180 4540,-153630 4540,-238340 0,-53160 -470,-102390 -1430,-147430 -32860,0 -78020,1920 -135370,5610l2750 -75620 358780 0zm358770 378730l-2870 77050 -297830 0c2990,-70490 4540,-149940 4540,-238340 0,-84950 -1550,-157470 -4540,-217440l284220 0 -3820 76700c-70010,-3710 -133570,-5620 -190440,-5620 2260,32500 3460,70740 3460,114820 48750,0 100950,-1320 156520,-3830l0 73130c-54610,-2280 -106820,-3480 -156520,-3480 0,47320 960,91760 2870,132980 63920,0 132010,-1910 204410,-5970zm403460 -5850l-5850 80390c-33210,8010 -65830,11960 -98090,11960 -80040,0 -140970,-22110 -182910,-66310 -41810,-44210 -62720,-97970 -62720,-161180 0,-65580 22220,-122690 66660,-171190 44440,-48510 105370,-72760 182920,-72760 28430,0 55310,3220 80760,9790l-12190 80880c-27590,-8960 -53880,-13380 -79090,-13380 -47430,0 -82680,15060 -105730,45050 -23170,29990 -34650,66430 -34650,109320 0,43840 13740,81950 41090,114090 27490,32260 65840,48380 115300,48380 29030,0 60450,-5010 94500,-15040z"/>
   <path class="fil4" d="M460360 355940c-258400,89640 -344980,373720 -303250,514240 112920,380280 1121920,794830 2613300,798430 -626700,-40500 -1302970,-154520 -1804890,-412970 -190970,-98330 -472800,-276020 -556270,-490270 -52320,-134300 -17900,-286300 50060,-407570l1050 -1860z"/>
   <path class="fil5" d="M907780 0c-87650,138530 -122340,266980 -110800,386610 35870,371780 398830,739000 1115040,986090 406230,140140 926100,241670 1564380,283440 -1079170,12850 -1960250,-150980 -2497630,-427680 -292690,-150720 -482020,-320280 -542050,-474390 -83770,-215010 55340,-549900 471060,-754070z"/>
   <path class="fil3 str0" d="M1541150 725280c0,91280 -65580,136800 -196640,136800 -44570,0 -86030,-5260 -124260,-16000l17090 -78140c37870,13140 73470,19590 107170,19590 37270,0 64150,-3580 80400,-10750 16370,-7290 24620,-19480 24620,-36440 0,-17800 -7780,-32740 -23190,-44800 -13260,-10760 -40260,-24740 -80880,-42060 -36800,-15770 -64280,-33090 -82200,-51730 -22580,-23530 -33930,-52690 -33930,-87220 0,-40130 14820,-71440 44570,-94140 29750,-22580 72520,-33930 128310,-33930 45750,0 84100,3820 115170,11590l-13030 77660c-31410,-11470 -65470,-17080 -102140,-17080 -55080,0 -82560,14690 -82560,44080 0,15650 6340,28320 19240,38120 11230,8350 35600,20180 73120,35350 39900,16130 69760,33810 89600,53170 26400,25920 39540,57950 39540,95930zm455790 -331530c-2150,78490 -3110,156860 -3110,235240 0,154960 -63560,232490 -190430,232490 -62850,0 -110040,-17210 -141820,-51490 -31650,-34290 -47550,-95930 -47550,-184820 0,-78370 -1070,-155560 -3220,-231420l99160 0c-3110,78970 -4660,154950 -4660,228310 0,64160 8240,108120 24610,131900 16240,23770 41450,35720 75510,35720 35710,0 61530,-11830 77420,-35480 15890,-23780 23760,-67980 23760,-132860 0,-71200 -1550,-147060 -4530,-227590l94860 0zm425560 119470c0,55670 -20670,96890 -62120,123530 -41460,26530 -92240,39910 -152450,39910 -10990,0 -18760,-240 -23420,-710 0,43840 1320,101660 3830,173580l-98330 0c2990,-67370 4540,-146820 4540,-238340 0,-83990 -1550,-156510 -4540,-217440l60920 0c8620,0 25210,-240 49700,-960 24500,-710 45650,-1080 63680,-1080 44340,0 81730,10050 112310,30120 30590,20070 45880,50530 45880,91390zm-90320 19240c0,-49950 -33090,-74910 -99400,-74910 -16500,0 -34050,1670 -52450,5260 2510,44080 3820,94020 3820,149810 5850,360 12550,610 20310,610 85180,0 127720,-26890 127720,-80770zm578250 80770c0,71670 -21870,131050 -65830,178240 -43840,47070 -98090,70610 -162720,70610 -61660,0 -113140,-21620 -154720,-64880 -41570,-43240 -62240,-98320 -62240,-164980 0,-71690 21850,-131060 65700,-178260 43970,-47070 98210,-70600 162850,-70600 61520,0 113140,21500 154710,64750 41460,43130 62250,98200 62250,165120zm-96530 10150c0,-48750 -12550,-88300 -37520,-118640 -24970,-30340 -55790,-45520 -92360,-45520 -34160,0 -63070,15300 -86850,45870 -23780,30590 -35720,69180 -35720,115900 0,48500 12550,88050 37640,118510 25080,30350 55790,45640 92230,45640 34050,0 62960,-15290 86860,-46000 23760,-30700 35720,-69300 35720,-115760zm542870 226150l-103580 0c-27120,-82550 -47900,-133560 -62350,-152920 -14470,-19350 -37760,-29030 -70020,-29030 -13500,0 -26400,120 -38830,240 0,59970 1080,120550 3110,181710l-97250 0c2990,-70490 4540,-149940 4540,-238340 0,-84950 -1550,-157470 -4540,-217440l60570 0c6930,0 21620,-240 43850,-960 22340,-710 42880,-1080 61890,-1080 107040,0 160570,36680 160570,109920 0,58070 -30590,98560 -91640,121380l0 5260c23540,6580 44200,24980 61890,55200 17790,30220 41690,85540 71790,166060zm-131290 -321970c0,-46480 -29870,-69660 -89600,-69660 -21870,0 -41340,1560 -58070,4910 2510,36080 3830,83260 3830,141330 12780,470 23650,720 32480,720 74330,0 111360,-25810 111360,-77300zm508230 -133810l-2510 75270c-46580,-3470 -90550,-5260 -131900,-5260 -470,44200 -710,93310 -710,147430 0,83980 1320,163430 3830,238340l-97970 0c2990,-74180 4540,-153630 4540,-238340 0,-53160 -470,-102390 -1430,-147430 -32850,0 -78020,1920 -135370,5610l2750 -75620 358770 0zm376950 0l-2520 75270c-46580,-3470 -90550,-5260 -131900,-5260 -470,44200 -710,93310 -710,147430 0,83980 1320,163430 3830,238340l-97970 0c2990,-74180 4540,-153630 4540,-238340 0,-53160 -470,-102390 -1430,-147430 -32860,0 -78020,1920 -135370,5610l2750 -75620 358780 0zm358770 378730l-2870 77050 -297830 0c2990,-70490 4540,-149940 4540,-238340 0,-84950 -1550,-157470 -4540,-217440l284220 0 -3820 76700c-70010,-3710 -133570,-5620 -190440,-5620 2260,32500 3460,70740 3460,114820 48750,0 100950,-1320 156520,-3830l0 73130c-54610,-2280 -106820,-3480 -156520,-3480 0,47320 960,91760 2870,132980 63920,0 132010,-1910 204410,-5970zm403460 -5850l-5850 80390c-33210,8010 -65830,11960 -98090,11960 -80040,0 -140970,-22110 -182910,-66310 -41810,-44210 -62720,-97970 -62720,-161180 0,-65580 22220,-122690 66660,-171190 44440,-48510 105370,-72760 182920,-72760 28430,0 55310,3220 80760,9790l-12190 80880c-27590,-8960 -53880,-13380 -79090,-13380 -47430,0 -82680,15060 -105730,45050 -23170,29990 -34650,66430 -34650,109320 0,43840 13740,81950 41090,114090 27490,32260 65840,48380 115300,48380 29030,0 60450,-5010 94500,-15040z"/>
  </g>
 </g>
</svg>
