<?xml version="1.0" encoding="UTF-8"?>
<!DOCTYPE svg PUBLIC "-//W3C//DTD SVG 1.1//EN" "http://www.w3.org/Graphics/SVG/1.1/DTD/svg11.dtd">
<!-- Creator: CorelDRAW -->
<svg xmlns="http://www.w3.org/2000/svg" xml:space="preserve" width="50mm" height="21.3295mm" version="1.1" style="shape-rendering:geometricPrecision; text-rendering:geometricPrecision; image-rendering:optimizeQuality; fill-rule:evenodd; clip-rule:evenodd"
viewBox="0 0 2709798 1155973"
 xmlns:xlink="http://www.w3.org/1999/xlink"
 xmlns:xodm="http://www.corel.com/coreldraw/odm/2003">
 <defs>
  <style type="text/css">
   <![CDATA[
    .fil1 {fill:#008DD0}
    .fil0 {fill:#007CC2}
    .fil2 {fill:#201E1E;fill-rule:nonzero}
   ]]>
  </style>
 </defs>
 <g id="Camada_x0020_1">
  <metadata id="CorelCorpID_0Corel-Layer"/>
  <g id="_2348201108528">
   <g>
    <path class="fil0" d="M244077 192905c-140042,48581 -186965,202541 -164349,278697 61198,206096 608035,430766 1416303,432717 -339646,-21949 -706157,-83744 -978177,-223813 -103498,-53291 -256238,-149592 -301476,-265707 -28355,-72785 -9701,-155163 27130,-220886l569 -1008z"/>
    <path class="fil1" d="M486560 0c-47503,75078 -66303,144692 -60049,209527 19440,201490 216150,400508 604307,534421 220160,75950 501909,130975 847831,153613 -584867,6964 -1062376,-81825 -1353615,-231785 -158626,-81684 -261235,-173579 -293769,-257100 -45400,-116527 29992,-298024 255295,-408675z"/>
    <path class="fil2" d="M829821 393072c0,49470 -35542,74140 -106571,74140 -24155,0 -46625,-2851 -67344,-8671l9262 -42349c20524,7121 39818,10617 58082,10617 20199,0 34767,-1940 43574,-5826 8872,-3951 13343,-10557 13343,-19749 0,-9647 -4216,-17744 -12568,-24280 -7186,-5831 -21819,-13408 -43834,-22795 -19944,-8547 -34837,-17933 -44549,-28036 -12237,-12752 -18389,-28556 -18389,-47270 0,-21749 8032,-38718 24155,-51020 16123,-12237 39303,-18389 69539,-18389 24795,0 45579,2070 62417,6281l-7062 42089c-17023,-6216 -35482,-9257 -55356,-9257 -29851,0 -44744,7961 -44744,23890 0,8482 3436,15348 10427,20659 6086,4525 19294,10937 39628,19158 21624,8742 37807,18324 48560,28816 14308,14048 21429,31407 21429,51990zm247020 -179676c-1165,42538 -1685,85012 -1685,127491 0,83982 -34447,126000 -103205,126000 -34062,0 -59637,-9327 -76861,-27905 -17153,-18584 -25770,-51990 -25770,-100165 0,-42473 -580,-84307 -1745,-125420l53741 0c-1685,42799 -2526,83977 -2526,123735 0,34772 4466,58597 13338,71484 8801,12882 22464,19359 40923,19359 19353,0 33347,-6411 41959,-19229 8612,-12888 12877,-36842 12877,-72005 0,-38588 -840,-79701 -2455,-123345l51410 0zm230636 64748c0,30171 -11202,52510 -33667,66948 -22470,14378 -49990,21630 -82622,21630 -5956,0 -10167,-130 -12693,-385 0,23760 715,55096 2076,94073l-53291 0c1620,-36512 2460,-79571 2460,-129171 0,-45519 -840,-84822 -2460,-117844l33016 0c4672,0 13663,-130 26935,-520 13278,-385 24740,-585 34512,-585 24030,0 44294,5447 60867,16324 16579,10877 24865,27385 24865,49530zm-48950 10427c0,-27071 -17933,-40598 -53871,-40598 -8942,0 -18454,905 -28426,2851 1360,23890 2070,50955 2070,81191 3170,195 6802,331 11007,331 46164,0 69219,-14573 69219,-43774zm313388 43774c0,38842 -11853,71024 -35677,96599 -23760,25510 -53161,38268 -88188,38268 -33417,0 -61317,-11717 -83852,-35162 -22529,-23434 -33732,-53285 -33732,-89412 0,-38853 11842,-71029 35607,-96610 23830,-25510 53226,-38262 88258,-38262 33341,0 61317,11652 83847,35092 22470,23375 33737,53220 33737,89488zm-52315 5501c0,-26421 -6802,-47855 -20334,-64298 -13533,-16443 -30236,-24670 -50055,-24670 -18513,0 -34181,8292 -47069,24860 -12888,16579 -19359,37493 -19359,62813 0,26285 6802,47720 20399,64228 13592,16448 30236,24735 49985,24735 18454,0 34122,-8287 47075,-24930 12877,-16638 19359,-37558 19359,-62737zm294214 122564l-56136 0c-14698,-44739 -25960,-72384 -33791,-82876 -7842,-10487 -20464,-15733 -37948,-15733 -7316,0 -14308,65 -21044,130 0,32501 585,65333 1685,98479l-52706 0c1620,-38203 2460,-81261 2460,-129171 0,-46039 -840,-85342 -2460,-117844l32826 0c3756,0 11717,-130 23765,-520 12107,-385 23239,-585 33542,-585 58011,0 87022,19879 87022,59572 0,31472 -16579,53416 -49665,65783l0 2851c12758,3566 23955,13538 33542,29916 9641,16378 22594,46359 38907,89998zm-71154 -174495c0,-25190 -16188,-37753 -48560,-37753 -11853,0 -22405,845 -31472,2661 1360,19554 2076,45124 2076,76595 6926,255 12817,390 17603,390 40284,0 60353,-13988 60353,-41893zm275440 -72520l-1360 40793c-25244,-1881 -49074,-2851 -71484,-2851 -255,23955 -385,50570 -385,79901 0,45514 715,88572 2076,129171l-53096 0c1620,-40203 2460,-83261 2460,-129171 0,-28811 -255,-55491 -775,-79901 -17803,0 -42284,1041 -73365,3040l1490 -40983 194439 0zm204292 0l-1366 40793c-25244,-1881 -49074,-2851 -71484,-2851 -255,23955 -385,50570 -385,79901 0,45514 715,88572 2076,129171l-53096 0c1620,-40203 2460,-83261 2460,-129171 0,-28811 -255,-55491 -775,-79901 -17809,0 -42284,1041 -73365,3040l1490 -40983 194444 0zm194439 205256l-1555 41758 -161412 0c1620,-38203 2460,-81261 2460,-129171 0,-46039 -840,-85342 -2460,-117844l154036 0 -2070 41568c-37943,-2011 -72390,-3046 -103211,-3046 1225,17614 1875,38338 1875,62228 26421,0 54711,-715 84828,-2076l0 39634c-29596,-1236 -57892,-1886 -84828,-1886 0,25646 520,49730 1555,72070 34642,0 71544,-1035 110782,-3235zm218659 -3170l-3170 43568c-17998,4341 -35677,6482 -53161,6482 -43378,0 -76400,-11983 -99130,-35937 -22659,-23960 -33992,-53096 -33992,-87353 0,-35542 12042,-66493 36127,-92778 24085,-26290 57106,-39433 99135,-39433 15408,0 29976,1745 43769,5306l-6606 43834c-14953,-4856 -29201,-7251 -42864,-7251 -25705,0 -44809,8162 -57301,24415 -12557,16253 -18779,36002 -18779,59247 0,23760 7447,44414 22269,61832 14898,17484 35683,26220 62488,26220 15733,0 32761,-2715 51215,-8151z"/>
   </g>
   <path class="fil2" d="M34978 1155973c-6959,0 -13067,-1534 -18351,-4623 -5284,-3089 -9365,-7474 -12265,-13137 -2899,-5658 -4363,-12243 -4363,-19695l0 -27569c0,-7457 1463,-14037 4363,-19695 2899,-5663 6980,-10048 12265,-13164 5284,-3111 11392,-4666 18351,-4666 5756,0 11061,1247 15896,3702 4834,2477 8872,5945 12124,10471 3257,4504 5452,9744 6606,15684l0 0 -14459 0 0 0c-873,-3138 -2336,-5940 -4384,-8395 -2054,-2477 -4460,-4363 -7219,-5707 -2759,-1322 -5615,-2005 -8563,-2005 -4103,0 -7690,992 -10780,2970 -3089,1984 -5495,4764 -7192,8324 -1702,3588 -2547,7739 -2547,12481l0 27569c0,4693 845,8845 2547,12433 1696,3609 4103,6368 7192,8324 3089,1956 6677,2948 10780,2948 2997,0 5848,-612 8612,-1864 2731,-1247 5116,-3089 7170,-5544 2049,-2428 3512,-5327 4384,-8698l0 0 14459 0 0 0c-1154,5940 -3376,11175 -6650,15684 -3257,4525 -7316,8016 -12151,10471 -4834,2477 -10118,3702 -15825,3702zm127545 -101514l12004 0 37054 100479 -15213 0 -27857 -81066 -27830 81066 -15213 0 37054 -100479zm-19977 65030l52857 0 0 13397 -52857 0 0 -13397zm133886 -65030l14107 0 0 100479 -14107 0 0 -100479zm7056 87082l57502 0 0 13397 -57502 0 0 -13397zm123724 -87082l14102 0 0 100479 -14102 0 0 -100479zm6840 87082l57713 0 0 13397 -57713 0 0 -13397zm0 -43189l50093 0 0 13397 -50093 0 0 -13397zm0 -43893l57713 0 0 13419 -57713 0 0 -13419zm127404 0l12779 0 49134 77668 -1653 1794 0 -79462 13961 0 0 100409 -12926 0 -48988 -76492 1653 -1794 0 78286 -13961 0 0 -100409zm158296 87082l22741 0c7403,0 13159,-1935 17218,-5777 4081,-3848 6130,-9273 6130,-16275l0 -29580c0,-7002 -2049,-12427 -6130,-16275 -4059,-3842 -9815,-5756 -17218,-5756l-22741 0 0 -13419 22312 0c8070,0 14958,1415 20665,4222 5707,2807 10070,6910 13067,12286 2997,5403 4482,11891 4482,19511l0 28469c0,7593 -1485,14080 -4482,19478 -2997,5382 -7360,9484 -13115,12292 -5729,2807 -12617,4222 -20687,4222l-22242 0 0 -13397zm-9549 -87082l14102 0 0 100479 -14102 0 0 -100479zm167146 0l12004 0 37054 100479 -15213 0 -27857 -81066 -27830 81066 -15213 0 37054 -100479zm-19977 65030l52857 0 0 13397 -52857 0 0 -13397zm19478 -80080l19082 -16931 9105 9457 -20378 15614 -7810 -8140zm120564 59626l34274 0c2661,0 5046,-634 7121,-1929 2076,-1301 3680,-3116 4813,-5501 1106,-2379 1675,-5094 1675,-8184l0 0c0,-3089 -569,-5826 -1675,-8184 -1133,-2379 -2737,-4222 -4791,-5495 -2027,-1295 -4433,-1935 -7143,-1935l-34274 0 0 -13419 33732 0c5799,0 10893,1203 15305,3609 4390,2379 7810,5777 10216,10189 2428,4384 3631,9479 3631,15234l0 0c0,5756 -1230,10828 -3658,15240 -2450,4384 -5875,7783 -10259,10189 -4412,2379 -9484,3582 -15234,3582l-33732 0 0 -13397zm-6157 -44647l14107 0 0 100550 -14107 0 0 -100550zm33520 54933l14031 -3160 25711 48776 -16725 0 -23017 -45617zm122494 45617l-14102 0 0 -100479 14102 0 0 100479zm107780 1035c-7002,0 -13186,-1534 -18540,-4596 -5327,-3067 -9457,-7387 -12405,-12996 -2921,-5593 -4384,-12080 -4384,-19435l0 -28469c0,-7387 1463,-13869 4384,-19462 2948,-5588 7078,-9929 12405,-12996 5355,-3067 11538,-4596 18540,-4596 6980,0 13164,1528 18513,4596 5333,3067 9484,7409 12411,12996 2921,5593 4384,12075 4384,19462l0 28469c0,7354 -1463,13842 -4384,19435 -2927,5609 -7078,9929 -12411,12996 -5349,3062 -11533,4596 -18513,4596zm0 -13890c4130,0 7783,-921 10942,-2807 3165,-1864 5593,-4504 7316,-7923 1745,-3447 2591,-7409 2591,-11934l0 -29439c0,-4504 -845,-8493 -2591,-11912 -1723,-3441 -4151,-6081 -7316,-7945 -3160,-1864 -6812,-2807 -10942,-2807 -4151,0 -7804,943 -10969,2807 -3160,1864 -5588,4504 -7311,7945 -1745,3420 -2591,7409 -2591,11912l0 29439c0,4525 845,8487 2591,11934 1723,3420 4151,6059 7311,7923 3165,1886 6818,2807 10969,2807zm155304 -542l22741 0c7403,0 13159,-1935 17218,-5777 4081,-3848 6130,-9273 6130,-16275l0 -29580c0,-7002 -2049,-12427 -6130,-16275 -4059,-3842 -9815,-5756 -17218,-5756l-22741 0 0 -13419 22312 0c8070,0 14958,1415 20665,4222 5707,2807 10070,6910 13067,12286 2992,5403 4482,11891 4482,19511l0 28469c0,7593 -1490,14080 -4482,19478 -2997,5382 -7360,9484 -13115,12292 -5734,2807 -12617,4222 -20687,4222l-22242 0 0 -13397zm-9549 -87082l14102 0 0 100479 -14102 0 0 -100479zm165775 0l12004 0 37059 100479 -15218 0 -27851 -81066 -27835 81066 -15213 0 37054 -100479zm-19977 65030l52857 0 0 13397 -52857 0 0 -13397zm204790 36485c-6959,0 -13067,-1534 -18351,-4623 -5284,-3089 -9365,-7474 -12265,-13137 -2899,-5658 -4363,-12243 -4363,-19695l0 -27569c0,-7457 1463,-14037 4363,-19695 2899,-5663 6980,-10048 12265,-13164 5284,-3111 11392,-4666 18351,-4666 5756,0 11061,1247 15896,3702 4834,2477 8872,5945 12124,10471 3257,4504 5447,9744 6606,15684l0 0 -14459 0 0 0c-873,-3138 -2336,-5940 -4390,-8395 -2049,-2477 -4455,-4363 -7213,-5707 -2759,-1322 -5615,-2005 -8563,-2005 -4103,0 -7690,992 -10780,2970 -3089,1984 -5495,4764 -7192,8324 -1702,3588 -2547,7739 -2547,12481l0 27569c0,4693 845,8845 2547,12433 1696,3609 4103,6368 7192,8324 3089,1956 6677,2948 10780,2948 2997,0 5848,-612 8606,-1864 2737,-1247 5122,-3089 7170,-5544 2054,-2428 3517,-5327 4390,-8698l0 0 14459 0 0 0c-1160,5940 -3376,11175 -6655,15684 -3252,4525 -7311,8016 -12145,10471 -4834,2477 -10118,3702 -15825,3702zm134807 0c-7002,0 -13180,-1534 -18535,-4596 -5333,-3067 -9463,-7387 -12411,-12996 -2921,-5593 -4384,-12080 -4384,-19435l0 -28469c0,-7387 1463,-13869 4384,-19462 2948,-5588 7078,-9929 12411,-12996 5355,-3067 11533,-4596 18535,-4596 6986,0 13164,1528 18519,4596 5327,3067 9479,7409 12405,12996 2921,5593 4384,12075 4384,19462l0 28469c0,7354 -1463,13842 -4384,19435 -2927,5609 -7078,9929 -12405,12996 -5355,3062 -11533,4596 -18519,4596zm0 -13890c4130,0 7783,-921 10948,-2807 3160,-1864 5588,-4504 7311,-7923 1745,-3447 2596,-7409 2596,-11934l0 -29439c0,-4504 -851,-8493 -2596,-11912 -1723,-3441 -4151,-6081 -7311,-7945 -3165,-1864 -6818,-2807 -10948,-2807 -4151,0 -7804,943 -10964,2807 -3165,1864 -5593,4504 -7316,7945 -1745,3420 -2591,7409 -2591,11912l0 29439c0,4525 845,8487 2591,11934 1723,3420 4151,6059 7316,7923 3160,1886 6812,2807 10964,2807zm113627 -39531l32127 0c3040,0 5707,-710 8021,-2146 2309,-1415 4081,-3447 5355,-6065 1274,-2639 1908,-5658 1908,-9056l0 0c0,-3469 -634,-6509 -1908,-9127 -1274,-2618 -3046,-4672 -5355,-6108 -2314,-1463 -4981,-2173 -8021,-2173l-32127 0 0 -13419 31656 0c5989,0 11251,1274 15825,3842 4552,2547 8091,6157 10590,10807 2526,4666 3777,10048 3777,16177l0 0c0,6135 -1252,11511 -3777,16134 -2498,4623 -6037,8205 -10590,10752 -4574,2526 -9837,3799 -15825,3799l-31656 0 0 -13419zm-7262 -48093l14107 0 0 100479 -14107 0 0 -100479zm158940 0l12004 0 37054 100479 -15213 0 -27857 -81066 -27830 81066 -15218 0 37059 -100479zm-19982 65030l52857 0 0 13397 -52857 0 0 -13397zm168306 23207l35021 -46701c2032,-2666 3609,-5447 4742,-8324 1133,-2878 1696,-5566 1696,-8043l0 -141c0,-4011 -1176,-7127 -3534,-9343 -2336,-2195 -5685,-3301 -10005,-3301 -4103,0 -7425,1203 -9950,3609 -2547,2428 -4081,5848 -4650,10281l0 49 -14573 0 0 -49c824,-5777 2526,-10682 5094,-14763 2547,-4081 5848,-7197 9907,-9316 4054,-2146 8726,-3230 14031,-3230 5994,0 11088,1035 15332,3089 4244,2049 7479,5024 9669,8937 2222,3918 3328,8633 3328,14178l0 70c0,3539 -732,7241 -2217,11110 -1463,3864 -3512,7615 -6157,11202l-29082 39531 37997 0 0 13397 -56651 0 0 -12243zm152968 13278c-9387,0 -16508,-2520 -21369,-7522 -4883,-5024 -7311,-12032 -7311,-21017l0 -45687c0,-9007 2455,-16037 7333,-21039 4883,-4997 12010,-7501 21348,-7501 9408,0 16535,2504 21391,7479 4861,4975 7289,12004 7289,21061l0 45687c0,9034 -2428,16042 -7311,21039 -4883,5002 -12004,7501 -21369,7501zm0 -13397c4975,0 8655,-1317 11040,-3913 2358,-2596 3539,-6346 3539,-11229l0 -45687c0,-4878 -1160,-8606 -3517,-11224 -2358,-2596 -6037,-3891 -11061,-3891 -5024,0 -8704,1295 -11040,3891 -2358,2618 -3539,6346 -3539,11224l0 45687c0,4883 1181,8633 3566,11229 2379,2596 6037,3913 11013,3913zm97569 119l35021 -46701c2032,-2666 3609,-5447 4742,-8324 1133,-2878 1696,-5566 1696,-8043l0 -141c0,-4011 -1176,-7127 -3534,-9343 -2336,-2195 -5685,-3301 -10005,-3301 -4103,0 -7430,1203 -9950,3609 -2547,2428 -4081,5848 -4650,10281l0 49 -14573 0 0 -49c824,-5777 2526,-10682 5094,-14763 2547,-4081 5848,-7197 9907,-9316 4054,-2146 8726,-3230 14031,-3230 5994,0 11088,1035 15332,3089 4244,2049 7479,5024 9669,8937 2217,3918 3328,8633 3328,14178l0 70c0,3539 -732,7241 -2217,11110 -1463,3864 -3517,7615 -6157,11202l-29082 39531 37997 0 0 13397 -56651 0 0 -12243zm122776 0l35027 -46701c2027,-2666 3609,-5447 4742,-8324 1133,-2878 1696,-5566 1696,-8043l0 -141c0,-4011 -1176,-7127 -3539,-9343 -2330,-2195 -5680,-3301 -9999,-3301 -4103,0 -7430,1203 -9950,3609 -2547,2428 -4081,5848 -4650,10281l0 49 -14573 0 0 -49c824,-5777 2520,-10682 5094,-14763 2547,-4081 5848,-7197 9907,-9316 4054,-2146 8726,-3230 14031,-3230 5989,0 11088,1035 15332,3089 4244,2049 7474,5024 9669,8937 2217,3918 3328,8633 3328,14178l0 70c0,3539 -732,7241 -2217,11110 -1463,3864 -3517,7615 -6157,11202l-29082 39531 37997 0 0 13397 -56656 0 0 -12243z"/>
   <g>
    <path class="fil0" d="M244077 192905c-140042,48581 -186965,202541 -164349,278697 61198,206096 608035,430766 1416303,432717 -339646,-21949 -706157,-83744 -978177,-223813 -103498,-53291 -256238,-149592 -301476,-265707 -28355,-72785 -9701,-155163 27130,-220886l569 -1008z"/>
    <path class="fil1" d="M486560 0c-47503,75078 -66303,144692 -60049,209527 19440,201490 216150,400508 604307,534421 220160,75950 501909,130975 847831,153613 -584867,6964 -1062376,-81825 -1353615,-231785 -158626,-81684 -261235,-173579 -293769,-257100 -45400,-116527 29992,-298024 255295,-408675z"/>
    <path class="fil2" d="M829821 393072c0,49470 -35542,74140 -106571,74140 -24155,0 -46625,-2851 -67344,-8671l9262 -42349c20524,7121 39818,10617 58082,10617 20199,0 34767,-1940 43574,-5826 8872,-3951 13343,-10557 13343,-19749 0,-9647 -4216,-17744 -12568,-24280 -7186,-5831 -21819,-13408 -43834,-22795 -19944,-8547 -34837,-17933 -44549,-28036 -12237,-12752 -18389,-28556 -18389,-47270 0,-21749 8032,-38718 24155,-51020 16123,-12237 39303,-18389 69539,-18389 24795,0 45579,2070 62417,6281l-7062 42089c-17023,-6216 -35482,-9257 -55356,-9257 -29851,0 -44744,7961 -44744,23890 0,8482 3436,15348 10427,20659 6086,4525 19294,10937 39628,19158 21624,8742 37807,18324 48560,28816 14308,14048 21429,31407 21429,51990zm247020 -179676c-1165,42538 -1685,85012 -1685,127491 0,83982 -34447,126000 -103205,126000 -34062,0 -59637,-9327 -76861,-27905 -17153,-18584 -25770,-51990 -25770,-100165 0,-42473 -580,-84307 -1745,-125420l53741 0c-1685,42799 -2526,83977 -2526,123735 0,34772 4466,58597 13338,71484 8801,12882 22464,19359 40923,19359 19353,0 33347,-6411 41959,-19229 8612,-12888 12877,-36842 12877,-72005 0,-38588 -840,-79701 -2455,-123345l51410 0zm230636 64748c0,30171 -11202,52510 -33667,66948 -22470,14378 -49990,21630 -82622,21630 -5956,0 -10167,-130 -12693,-385 0,23760 715,55096 2076,94073l-53291 0c1620,-36512 2460,-79571 2460,-129171 0,-45519 -840,-84822 -2460,-117844l33016 0c4672,0 13663,-130 26935,-520 13278,-385 24740,-585 34512,-585 24030,0 44294,5447 60867,16324 16579,10877 24865,27385 24865,49530zm-48950 10427c0,-27071 -17933,-40598 -53871,-40598 -8942,0 -18454,905 -28426,2851 1360,23890 2070,50955 2070,81191 3170,195 6802,331 11007,331 46164,0 69219,-14573 69219,-43774zm313388 43774c0,38842 -11853,71024 -35677,96599 -23760,25510 -53161,38268 -88188,38268 -33417,0 -61317,-11717 -83852,-35162 -22529,-23434 -33732,-53285 -33732,-89412 0,-38853 11842,-71029 35607,-96610 23830,-25510 53226,-38262 88258,-38262 33341,0 61317,11652 83847,35092 22470,23375 33737,53220 33737,89488zm-52315 5501c0,-26421 -6802,-47855 -20334,-64298 -13533,-16443 -30236,-24670 -50055,-24670 -18513,0 -34181,8292 -47069,24860 -12888,16579 -19359,37493 -19359,62813 0,26285 6802,47720 20399,64228 13592,16448 30236,24735 49985,24735 18454,0 34122,-8287 47075,-24930 12877,-16638 19359,-37558 19359,-62737zm294214 122564l-56136 0c-14698,-44739 -25960,-72384 -33791,-82876 -7842,-10487 -20464,-15733 -37948,-15733 -7316,0 -14308,65 -21044,130 0,32501 585,65333 1685,98479l-52706 0c1620,-38203 2460,-81261 2460,-129171 0,-46039 -840,-85342 -2460,-117844l32826 0c3756,0 11717,-130 23765,-520 12107,-385 23239,-585 33542,-585 58011,0 87022,19879 87022,59572 0,31472 -16579,53416 -49665,65783l0 2851c12758,3566 23955,13538 33542,29916 9641,16378 22594,46359 38907,89998zm-71154 -174495c0,-25190 -16188,-37753 -48560,-37753 -11853,0 -22405,845 -31472,2661 1360,19554 2076,45124 2076,76595 6926,255 12817,390 17603,390 40284,0 60353,-13988 60353,-41893zm275440 -72520l-1360 40793c-25244,-1881 -49074,-2851 -71484,-2851 -255,23955 -385,50570 -385,79901 0,45514 715,88572 2076,129171l-53096 0c1620,-40203 2460,-83261 2460,-129171 0,-28811 -255,-55491 -775,-79901 -17803,0 -42284,1041 -73365,3040l1490 -40983 194439 0zm204292 0l-1366 40793c-25244,-1881 -49074,-2851 -71484,-2851 -255,23955 -385,50570 -385,79901 0,45514 715,88572 2076,129171l-53096 0c1620,-40203 2460,-83261 2460,-129171 0,-28811 -255,-55491 -775,-79901 -17809,0 -42284,1041 -73365,3040l1490 -40983 194444 0zm194439 205256l-1555 41758 -161412 0c1620,-38203 2460,-81261 2460,-129171 0,-46039 -840,-85342 -2460,-117844l154036 0 -2070 41568c-37943,-2011 -72390,-3046 -103211,-3046 1225,17614 1875,38338 1875,62228 26421,0 54711,-715 84828,-2076l0 39634c-29596,-1236 -57892,-1886 -84828,-1886 0,25646 520,49730 1555,72070 34642,0 71544,-1035 110782,-3235zm218659 -3170l-3170 43568c-17998,4341 -35677,6482 -53161,6482 -43378,0 -76400,-11983 -99130,-35937 -22659,-23960 -33992,-53096 -33992,-87353 0,-35542 12042,-66493 36127,-92778 24085,-26290 57106,-39433 99135,-39433 15408,0 29976,1745 43769,5306l-6606 43834c-14953,-4856 -29201,-7251 -42864,-7251 -25705,0 -44809,8162 -57301,24415 -12557,16253 -18779,36002 -18779,59247 0,23760 7447,44414 22269,61832 14898,17484 35683,26220 62488,26220 15733,0 32761,-2715 51215,-8151z"/>
   </g>
   <g>
    <path class="fil0" d="M244077 192905c-140042,48581 -186965,202541 -164349,278697 61198,206096 608035,430766 1416303,432717 -339646,-21949 -706157,-83744 -978177,-223813 -103498,-53291 -256238,-149592 -301476,-265707 -28355,-72785 -9701,-155163 27130,-220886l569 -1008z"/>
    <path class="fil1" d="M486560 0c-47503,75078 -66303,144692 -60049,209527 19440,201490 216150,400508 604307,534421 220160,75950 501909,130975 847831,153613 -584867,6964 -1062376,-81825 -1353615,-231785 -158626,-81684 -261235,-173579 -293769,-257100 -45400,-116527 29992,-298024 255295,-408675z"/>
    <path class="fil2" d="M829821 393072c0,49470 -35542,74140 -106571,74140 -24155,0 -46625,-2851 -67344,-8671l9262 -42349c20524,7121 39818,10617 58082,10617 20199,0 34767,-1940 43574,-5826 8872,-3951 13343,-10557 13343,-19749 0,-9647 -4216,-17744 -12568,-24280 -7186,-5831 -21819,-13408 -43834,-22795 -19944,-8547 -34837,-17933 -44549,-28036 -12237,-12752 -18389,-28556 -18389,-47270 0,-21749 8032,-38718 24155,-51020 16123,-12237 39303,-18389 69539,-18389 24795,0 45579,2070 62417,6281l-7062 42089c-17023,-6216 -35482,-9257 -55356,-9257 -29851,0 -44744,7961 -44744,23890 0,8482 3436,15348 10427,20659 6086,4525 19294,10937 39628,19158 21624,8742 37807,18324 48560,28816 14308,14048 21429,31407 21429,51990zm247020 -179676c-1165,42538 -1685,85012 -1685,127491 0,83982 -34447,126000 -103205,126000 -34062,0 -59637,-9327 -76861,-27905 -17153,-18584 -25770,-51990 -25770,-100165 0,-42473 -580,-84307 -1745,-125420l53741 0c-1685,42799 -2526,83977 -2526,123735 0,34772 4466,58597 13338,71484 8801,12882 22464,19359 40923,19359 19353,0 33347,-6411 41959,-19229 8612,-12888 12877,-36842 12877,-72005 0,-38588 -840,-79701 -2455,-123345l51410 0zm230636 64748c0,30171 -11202,52510 -33667,66948 -22470,14378 -49990,21630 -82622,21630 -5956,0 -10167,-130 -12693,-385 0,23760 715,55096 2076,94073l-53291 0c1620,-36512 2460,-79571 2460,-129171 0,-45519 -840,-84822 -2460,-117844l33016 0c4672,0 13663,-130 26935,-520 13278,-385 24740,-585 34512,-585 24030,0 44294,5447 60867,16324 16579,10877 24865,27385 24865,49530zm-48950 10427c0,-27071 -17933,-40598 -53871,-40598 -8942,0 -18454,905 -28426,2851 1360,23890 2070,50955 2070,81191 3170,195 6802,331 11007,331 46164,0 69219,-14573 69219,-43774zm313388 43774c0,38842 -11853,71024 -35677,96599 -23760,25510 -53161,38268 -88188,38268 -33417,0 -61317,-11717 -83852,-35162 -22529,-23434 -33732,-53285 -33732,-89412 0,-38853 11842,-71029 35607,-96610 23830,-25510 53226,-38262 88258,-38262 33341,0 61317,11652 83847,35092 22470,23375 33737,53220 33737,89488zm-52315 5501c0,-26421 -6802,-47855 -20334,-64298 -13533,-16443 -30236,-24670 -50055,-24670 -18513,0 -34181,8292 -47069,24860 -12888,16579 -19359,37493 -19359,62813 0,26285 6802,47720 20399,64228 13592,16448 30236,24735 49985,24735 18454,0 34122,-8287 47075,-24930 12877,-16638 19359,-37558 19359,-62737zm294214 122564l-56136 0c-14698,-44739 -25960,-72384 -33791,-82876 -7842,-10487 -20464,-15733 -37948,-15733 -7316,0 -14308,65 -21044,130 0,32501 585,65333 1685,98479l-52706 0c1620,-38203 2460,-81261 2460,-129171 0,-46039 -840,-85342 -2460,-117844l32826 0c3756,0 11717,-130 23765,-520 12107,-385 23239,-585 33542,-585 58011,0 87022,19879 87022,59572 0,31472 -16579,53416 -49665,65783l0 2851c12758,3566 23955,13538 33542,29916 9641,16378 22594,46359 38907,89998zm-71154 -174495c0,-25190 -16188,-37753 -48560,-37753 -11853,0 -22405,845 -31472,2661 1360,19554 2076,45124 2076,76595 6926,255 12817,390 17603,390 40284,0 60353,-13988 60353,-41893zm275440 -72520l-1360 40793c-25244,-1881 -49074,-2851 -71484,-2851 -255,23955 -385,50570 -385,79901 0,45514 715,88572 2076,129171l-53096 0c1620,-40203 2460,-83261 2460,-129171 0,-28811 -255,-55491 -775,-79901 -17803,0 -42284,1041 -73365,3040l1490 -40983 194439 0zm204292 0l-1366 40793c-25244,-1881 -49074,-2851 -71484,-2851 -255,23955 -385,50570 -385,79901 0,45514 715,88572 2076,129171l-53096 0c1620,-40203 2460,-83261 2460,-129171 0,-28811 -255,-55491 -775,-79901 -17809,0 -42284,1041 -73365,3040l1490 -40983 194444 0zm194439 205256l-1555 41758 -161412 0c1620,-38203 2460,-81261 2460,-129171 0,-46039 -840,-85342 -2460,-117844l154036 0 -2070 41568c-37943,-2011 -72390,-3046 -103211,-3046 1225,17614 1875,38338 1875,62228 26421,0 54711,-715 84828,-2076l0 39634c-29596,-1236 -57892,-1886 -84828,-1886 0,25646 520,49730 1555,72070 34642,0 71544,-1035 110782,-3235zm218659 -3170l-3170 43568c-17998,4341 -35677,6482 -53161,6482 -43378,0 -76400,-11983 -99130,-35937 -22659,-23960 -33992,-53096 -33992,-87353 0,-35542 12042,-66493 36127,-92778 24085,-26290 57106,-39433 99135,-39433 15408,0 29976,1745 43769,5306l-6606 43834c-14953,-4856 -29201,-7251 -42864,-7251 -25705,0 -44809,8162 -57301,24415 -12557,16253 -18779,36002 -18779,59247 0,23760 7447,44414 22269,61832 14898,17484 35683,26220 62488,26220 15733,0 32761,-2715 51215,-8151z"/>
   </g>
  </g>
 </g>
</svg>
