<?xml version="1.0" encoding="UTF-8"?>
<!DOCTYPE svg PUBLIC "-//W3C//DTD SVG 1.1//EN" "http://www.w3.org/Graphics/SVG/1.1/DTD/svg11.dtd">
<!-- Creator: CorelDRAW -->
<svg xmlns="http://www.w3.org/2000/svg" xml:space="preserve" width="20mm" height="8.5318mm" version="1.1" style="shape-rendering:geometricPrecision; text-rendering:geometricPrecision; image-rendering:optimizeQuality; fill-rule:evenodd; clip-rule:evenodd"
viewBox="0 0 642490 274080"
 xmlns:xlink="http://www.w3.org/1999/xlink"
 xmlns:xodm="http://www.corel.com/coreldraw/odm/2003">
 <defs>
  <style type="text/css">
   <![CDATA[
    .fil1 {fill:#008DD0}
    .fil0 {fill:#007CC2}
    .fil2 {fill:#201E1E;fill-rule:nonzero}
   ]]>
  </style>
 </defs>
 <g id="Camada_x0020_1">
  <metadata id="CorelCorpID_0Corel-Layer"/>
  <g id="_2348388084576">
   <g>
    <path class="fil0" d="M57869 45739c-33204,11517 -44329,48020 -38967,66077 14511,48865 144165,102133 335807,102596 -80533,-5204 -167430,-19853 -231926,-53063 -24540,-12635 -60754,-35469 -71480,-62999 -6724,-17257 -2300,-36789 6431,-52373l135 -238z"/>
    <path class="fil1" d="M115362 0c-11263,17800 -15719,34306 -14238,49677 4610,47776 51251,94963 143282,126712 52199,18009 119002,31055 201019,36423 -138672,1651 -251888,-19400 -320940,-54959 -37611,-19365 -61939,-41155 -69652,-60956 -10765,-27630 7109,-70661 60529,-96897z"/>
    <path class="fil2" d="M196750 93196c0,11732 -8426,17579 -25269,17579 -5725,0 -11054,-675 -15966,-2056l2194 -10039c4870,1687 9445,2515 13772,2515 4790,0 8246,-459 10331,-1381 2104,-935 3164,-2502 3164,-4681 0,-2287 -999,-4208 -2978,-5757 -1706,-1385 -5175,-3180 -10395,-5407 -4729,-2024 -8259,-4250 -10563,-6647 -2901,-3023 -4359,-6772 -4359,-11208 0,-5156 1905,-9178 5728,-12095 3823,-2901 9319,-4359 16486,-4359 5879,0 10807,488 14800,1487l-1674 9981c-4038,-1475 -8413,-2197 -13126,-2197 -7077,0 -10608,1889 -10608,5667 0,2011 816,3636 2474,4896 1442,1073 4575,2596 9393,4542 5127,2075 8966,4346 11513,6833 3396,3331 5082,7446 5082,12326zm58569 -42600c-276,10087 -402,20158 -402,30229 0,19911 -8166,29873 -24469,29873 -8076,0 -14141,-2210 -18224,-6614 -4067,-4407 -6110,-12329 -6110,-23750 0,-10071 -138,-19991 -414,-29738l12744 0c-398,10148 -601,19911 -601,29339 0,8243 1060,13891 3164,16949 2085,3052 5326,4587 9702,4587 4591,0 7906,-1519 9949,-4558 2040,-3055 3055,-8735 3055,-17071 0,-9149 -202,-18899 -585,-29246l12191 0zm54682 15352c0,7154 -2657,12448 -7983,15873 -5326,3408 -11851,5127 -19590,5127 -1413,0 -2409,-29 -3010,-90 0,5635 170,13062 495,22304l-12638 0c385,-8658 585,-18867 585,-30624 0,-10794 -199,-20113 -585,-27942l7829 0c1108,0 3241,-29 6386,-122 3148,-93 5866,-138 8185,-138 5696,0 10498,1288 14430,3868 3929,2580 5895,6492 5895,11745zm-11607 2474c0,-6418 -4250,-9628 -12773,-9628 -2120,0 -4375,215 -6740,675 324,5667 492,12082 492,19252 752,45 1613,77 2609,77 10948,0 16412,-3453 16412,-10376zm74304 10376c0,9210 -2811,16840 -8458,22905 -5635,6049 -12606,9072 -20910,9072 -7922,0 -14540,-2779 -19879,-8336 -5342,-5554 -7999,-12635 -7999,-21199 0,-9213 2808,-16843 8442,-22908 5651,-6046 12618,-9072 20926,-9072 7906,0 14536,2766 19879,8320 5326,5545 7999,12622 7999,21218zm-12403 1304c0,-6264 -1613,-11346 -4822,-15243 -3206,-3900 -7167,-5850 -11867,-5850 -4391,0 -8105,1966 -11160,5895 -3055,3929 -4591,8889 -4591,14893 0,6232 1613,11314 4838,15227 3222,3900 7167,5866 11851,5866 4375,0 8089,-1966 11160,-5911 3055,-3945 4591,-8905 4591,-14877zm69758 29060l-13309 0c-3486,-10608 -6155,-17161 -8012,-19651 -1860,-2486 -4854,-3730 -8998,-3730 -1735,0 -3392,16 -4989,32 0,7707 138,15490 398,23348l-12496 0c385,-9056 585,-19265 585,-30624 0,-10916 -199,-20235 -585,-27942l7784 0c890,0 2779,-29 5635,-122 2869,-93 5509,-138 7951,-138 13756,0 20634,4713 20634,14122 0,7463 -3932,12667 -11777,15600l0 675c3026,845 5683,3209 7954,7093 2287,3884 5358,10990 9226,21337zm-16872 -41373c0,-5972 -3839,-8950 -11513,-8950 -2811,0 -5310,199 -7459,630 321,4639 492,10701 492,18163 1642,61 3039,90 4173,90 9551,0 14308,-3315 14308,-9933zm65309 -17193l-324 9673c-5985,-447 -11635,-678 -16949,-678 -61,5680 -90,11992 -90,18947 0,10791 167,21000 492,30624l-12590 0c382,-9531 585,-19740 585,-30624 0,-6833 -61,-13158 -186,-18947 -4221,0 -10023,247 -17395,723l353 -9718 46105 0zm48434 0l-321 9673c-5988,-447 -11635,-678 -16949,-678 -61,5680 -93,11992 -93,18947 0,10791 170,21000 492,30624l-12586 0c382,-9531 581,-19740 581,-30624 0,-6833 -61,-13158 -183,-18947 -4221,0 -10026,247 -17395,723l353 -9718 46102 0zm46102 48665l-366 9901 -38273 0c385,-9056 585,-19265 585,-30624 0,-10916 -199,-20235 -585,-27942l36522 0 -492 9856c-8995,-475 -17164,-723 -24469,-723 289,4176 443,9091 443,14755 6264,0 12972,-170 20113,-492l0 9396c-7019,-292 -13727,-447 -20113,-447 0,6081 122,11790 369,17087 8211,0 16962,-244 26265,-768zm51846 -752l-755 10331c-4266,1028 -8458,1536 -12602,1536 -10286,0 -18115,-2840 -23505,-8519 -5371,-5680 -8057,-12590 -8057,-20711 0,-8429 2856,-15767 8564,-21999 5712,-6232 13540,-9348 23505,-9348 3653,0 7106,414 10376,1256l-1564 10395c-3547,-1153 -6926,-1722 -10164,-1722 -6094,0 -10624,1937 -13585,5789 -2978,3855 -4452,8535 -4452,14048 0,5635 1767,10530 5281,14662 3530,4144 8458,6216 14816,6216 3730,0 7768,-642 12143,-1934z"/>
   </g>
   <path class="fil2" d="M8295 274080c-1651,0 -3100,-363 -4353,-1095 -1253,-732 -2220,-1773 -2907,-3116 -687,-1340 -1034,-2901 -1034,-4668l0 -6537c0,-1767 347,-3328 1034,-4671 687,-1343 1654,-2380 2907,-3119 1253,-739 2702,-1108 4353,-1108 1362,0 2621,296 3768,877 1147,588 2101,1410 2875,2483 771,1070 1291,2310 1564,3720l0 0 -3428 0 0 0c-206,-745 -553,-1410 -1041,-1992 -485,-588 -1057,-1034 -1709,-1352 -655,-312 -1333,-475 -2030,-475 -973,0 -1825,235 -2557,704 -732,472 -1304,1131 -1706,1976 -402,848 -604,1834 -604,2959l0 6537c0,1112 202,2098 604,2946 402,858 973,1510 1706,1976 732,463 1584,697 2557,697 710,0 1385,-145 2040,-440 649,-299 1214,-732 1699,-1314 488,-578 835,-1266 1041,-2066l0 0 3428 0 0 0c-273,1410 -800,2650 -1577,3720 -771,1073 -1732,1902 -2878,2483 -1147,588 -2400,877 -3752,877zm30239 -24068l2846 0 8786 23824 -3608 0 -6605 -19223 -6598 19223 -3608 0 8786 -23824zm-4735 15417l12532 0 0 3177 -12532 0 0 -3177zm31745 -15417l3344 0 0 23824 -3344 0 0 -23824zm1670 20646l13634 0 0 3177 -13634 0 0 -3177zm29336 -20646l3344 0 0 23824 -3344 0 0 -23824zm1619 20646l13685 0 0 3177 -13685 0 0 -3177zm0 -10241l11880 0 0 3177 -11880 0 0 -3177zm0 -10405l13685 0 0 3180 -13685 0 0 -3180zm30210 0l3029 0 11648 18414 -392 427 0 -18841 3312 0 0 23804 -3065 0 -11616 -18134 392 -424 0 18558 -3309 0 0 -23804zm37531 20646l5390 0c1757,0 3123,-459 4083,-1372 967,-909 1455,-2197 1455,-3858l0 -7013c0,-1661 -488,-2946 -1455,-3858 -961,-912 -2326,-1365 -4083,-1365l-5390 0 0 -3180 5291 0c1911,0 3547,334 4899,999 1352,665 2387,1638 3097,2914 710,1282 1063,2821 1063,4626l0 6749c0,1802 -353,3338 -1063,4620 -710,1275 -1744,2249 -3110,2914 -1359,665 -2991,1002 -4902,1002l-5275 0 0 -3177zm-2265 -20646l3344 0 0 23824 -3344 0 0 -23824zm39632 0l2846 0 8783 23824 -3604 0 -6605 -19223 -6598 19223 -3608 0 8786 -23824zm-4738 15417l12532 0 0 3177 -12532 0 0 -3177zm4620 -18986l4523 -4016 2159 2242 -4832 3704 -1850 -1931zm28584 14138l8127 0c630,0 1195,-151 1687,-459 495,-308 874,-739 1144,-1304 260,-562 395,-1208 395,-1940l0 0c0,-732 -135,-1381 -395,-1940 -270,-562 -649,-999 -1137,-1301 -482,-308 -1050,-459 -1693,-459l-8127 0 0 -3184 7999 0c1375,0 2583,286 3627,858 1041,565 1854,1369 2422,2416 578,1041 861,2249 861,3611l0 0c0,1365 -289,2567 -867,3614 -581,1041 -1391,1844 -2432,2416 -1044,565 -2249,851 -3611,851l-7999 0 0 -3177zm-1458 -10588l3344 0 0 23843 -3344 0 0 -23843zm7948 13026l3325 -749 6097 11565 -3964 0 -5458 -10816zm29044 10816l-3344 0 0 -23824 3344 0 0 23824zm25552 244c-1661,0 -3126,-363 -4395,-1089 -1262,-729 -2242,-1751 -2939,-3081 -694,-1327 -1041,-2866 -1041,-4610l0 -6749c0,-1751 347,-3290 1041,-4613 697,-1327 1677,-2355 2939,-3081 1269,-729 2734,-1092 4395,-1092 1658,0 3123,363 4391,1092 1262,726 2249,1754 2943,3081 694,1324 1038,2862 1038,4613l0 6749c0,1744 -344,3283 -1038,4610 -694,1330 -1680,2352 -2943,3081 -1269,726 -2734,1089 -4391,1089zm0 -3293c980,0 1847,-218 2596,-665 749,-443 1327,-1070 1735,-1879 414,-816 614,-1757 614,-2830l0 -6981c0,-1067 -199,-2011 -614,-2824 -408,-816 -986,-1442 -1735,-1882 -749,-443 -1616,-668 -2596,-668 -983,0 -1850,225 -2599,668 -749,440 -1327,1067 -1735,1882 -414,813 -614,1757 -614,2824l0 6981c0,1073 199,2014 614,2830 408,810 986,1436 1735,1879 749,447 1616,665 2599,665zm36824 -128l5390 0c1757,0 3119,-459 4083,-1372 967,-909 1452,-2197 1452,-3858l0 -7013c0,-1661 -485,-2946 -1452,-3858 -964,-912 -2326,-1365 -4083,-1365l-5390 0 0 -3180 5291 0c1911,0 3543,334 4899,999 1352,665 2387,1638 3097,2914 710,1282 1063,2821 1063,4626l0 6749c0,1802 -353,3338 -1063,4620 -710,1275 -1744,2249 -3110,2914 -1359,665 -2991,1002 -4902,1002l-5275 0 0 -3177zm-2265 -20646l3344 0 0 23824 -3344 0 0 -23824zm39304 0l2846 0 8786 23824 -3608 0 -6605 -19223 -6598 19223 -3604 0 8783 -23824zm-4735 15417l12532 0 0 3177 -12532 0 0 -3177zm48556 8651c-1651,0 -3100,-363 -4353,-1095 -1253,-732 -2220,-1773 -2907,-3116 -687,-1340 -1034,-2901 -1034,-4668l0 -6537c0,-1767 347,-3328 1034,-4671 687,-1343 1654,-2380 2907,-3119 1253,-739 2702,-1108 4353,-1108 1362,0 2621,296 3768,877 1147,588 2101,1410 2875,2483 771,1070 1291,2310 1564,3720l0 0 -3428 0 0 0c-206,-745 -553,-1410 -1041,-1992 -485,-588 -1057,-1034 -1712,-1352 -652,-312 -1330,-475 -2027,-475 -973,0 -1825,235 -2557,704 -732,472 -1304,1131 -1706,1976 -402,848 -604,1834 -604,2959l0 6537c0,1112 202,2098 604,2946 402,858 973,1510 1706,1976 732,463 1584,697 2557,697 710,0 1385,-145 2040,-440 649,-299 1214,-732 1699,-1314 488,-578 835,-1266 1041,-2066l0 0 3428 0 0 0c-273,1410 -800,2650 -1577,3720 -771,1073 -1732,1902 -2878,2483 -1147,588 -2400,877 -3752,877zm31961 0c-1661,0 -3126,-363 -4395,-1089 -1262,-729 -2242,-1751 -2943,-3081 -691,-1327 -1038,-2866 -1038,-4610l0 -6749c0,-1751 347,-3290 1038,-4613 700,-1327 1680,-2355 2943,-3081 1269,-729 2734,-1092 4395,-1092 1658,0 3123,363 4391,1092 1262,726 2249,1754 2943,3081 691,1324 1038,2862 1038,4613l0 6749c0,1744 -347,3283 -1038,4610 -694,1330 -1680,2352 -2943,3081 -1269,726 -2734,1089 -4391,1089zm0 -3293c980,0 1847,-218 2596,-665 749,-443 1327,-1070 1735,-1879 414,-816 614,-1757 614,-2830l0 -6981c0,-1067 -199,-2011 -614,-2824 -408,-816 -986,-1442 -1735,-1882 -749,-443 -1616,-668 -2596,-668 -983,0 -1850,225 -2599,668 -749,440 -1327,1067 -1735,1882 -414,813 -614,1757 -614,2824l0 6981c0,1073 199,2014 614,2830 408,810 986,1436 1735,1879 749,447 1616,665 2599,665zm26943 -9374l7617 0c720,0 1352,-167 1902,-508 546,-337 967,-816 1269,-1439 302,-626 453,-1340 453,-2146l0 0c0,-822 -151,-1545 -453,-2165 -302,-620 -723,-1105 -1269,-1449 -549,-347 -1182,-514 -1902,-514l-7617 0 0 -3180 7504 0c1420,0 2666,302 3752,909 1079,604 1918,1462 2512,2564 598,1105 893,2380 893,3836l0 0c0,1455 -296,2727 -893,3826 -594,1095 -1433,1944 -2512,2547 -1086,601 -2332,903 -3752,903l-7504 0 0 -3184zm-1722 -11401l3344 0 0 23824 -3344 0 0 -23824zm37682 0l2846 0 8786 23824 -3608 0 -6605 -19223 -6598 19223 -3608 0 8786 -23824zm-4735 15417l12532 0 0 3177 -12532 0 0 -3177zm39902 5503l8307 -11073c479,-630 855,-1291 1121,-1972 270,-684 405,-1320 405,-1908l0 -32c0,-951 -279,-1690 -838,-2217 -556,-520 -1349,-781 -2371,-781 -973,0 -1764,283 -2361,855 -604,575 -967,1388 -1102,2438l0 10 -3457 0 0 -10c196,-1372 598,-2535 1208,-3502 604,-967 1388,-1706 2348,-2207 964,-511 2069,-768 3328,-768 1420,0 2628,247 3636,732 1005,488 1770,1192 2290,2120 527,928 790,2046 790,3360l0 16c0,842 -173,1719 -527,2634 -347,919 -832,1809 -1458,2657l-6897 9374 9011 0 0 3177 -13434 0 0 -2904zm36272 3148c-2226,0 -3916,-598 -5069,-1783 -1156,-1192 -1732,-2853 -1732,-4983l0 -10832c0,-2136 581,-3804 1738,-4989 1160,-1185 2846,-1780 5063,-1780 2229,0 3919,594 5072,1773 1150,1182 1725,2846 1725,4995l0 10832c0,2143 -575,3804 -1732,4989 -1160,1185 -2846,1776 -5066,1776zm0 -3177c1179,0 2050,-312 2615,-928 559,-614 838,-1503 838,-2660l0 -10832c0,-1160 -273,-2043 -832,-2663 -559,-614 -1433,-922 -2621,-922 -1192,0 -2066,308 -2618,922 -559,620 -838,1503 -838,2663l0 10832c0,1156 279,2046 845,2660 562,617 1430,928 2612,928zm23133 29l8304 -11073c479,-630 855,-1291 1124,-1972 267,-684 402,-1320 402,-1908l0 -32c0,-951 -279,-1690 -838,-2217 -553,-520 -1349,-781 -2371,-781 -973,0 -1764,283 -2361,855 -604,575 -967,1388 -1102,2438l0 10 -3457 0 0 -10c196,-1372 601,-2535 1208,-3502 604,-967 1388,-1706 2352,-2207 961,-511 2069,-768 3325,-768 1420,0 2628,247 3636,732 1005,488 1773,1192 2294,2120 524,928 787,2046 787,3360l0 16c0,842 -173,1719 -527,2634 -347,919 -832,1809 -1458,2657l-6894 9374 9008 0 0 3177 -13431 0 0 -2904zm29111 0l8304 -11073c479,-630 855,-1291 1124,-1972 267,-684 402,-1320 402,-1908l0 -32c0,-951 -279,-1690 -838,-2217 -556,-520 -1349,-781 -2371,-781 -973,0 -1764,283 -2361,855 -604,575 -967,1388 -1102,2438l0 10 -3457 0 0 -10c196,-1372 601,-2535 1208,-3502 604,-967 1388,-1706 2348,-2207 964,-511 2072,-768 3328,-768 1420,0 2628,247 3636,732 1005,488 1773,1192 2290,2120 527,928 790,2046 790,3360l0 16c0,842 -173,1719 -527,2634 -347,919 -832,1809 -1458,2657l-6894 9374 9008 0 0 3177 -13431 0 0 -2904z"/>
   <g>
    <path class="fil0" d="M57869 45739c-33204,11517 -44329,48020 -38967,66077 14511,48865 144165,102133 335807,102596 -80533,-5204 -167430,-19853 -231926,-53063 -24540,-12635 -60754,-35469 -71480,-62999 -6724,-17257 -2300,-36789 6431,-52373l135 -238z"/>
    <path class="fil1" d="M115362 0c-11263,17800 -15719,34306 -14238,49677 4610,47776 51251,94963 143282,126712 52199,18009 119002,31055 201019,36423 -138672,1651 -251888,-19400 -320940,-54959 -37611,-19365 -61939,-41155 -69652,-60956 -10765,-27630 7109,-70661 60529,-96897z"/>
    <path class="fil2" d="M196750 93196c0,11732 -8426,17579 -25269,17579 -5725,0 -11054,-675 -15966,-2056l2194 -10039c4870,1687 9445,2515 13772,2515 4790,0 8246,-459 10331,-1381 2104,-935 3164,-2502 3164,-4681 0,-2287 -999,-4208 -2978,-5757 -1706,-1385 -5175,-3180 -10395,-5407 -4729,-2024 -8259,-4250 -10563,-6647 -2901,-3023 -4359,-6772 -4359,-11208 0,-5156 1905,-9178 5728,-12095 3823,-2901 9319,-4359 16486,-4359 5879,0 10807,488 14800,1487l-1674 9981c-4038,-1475 -8413,-2197 -13126,-2197 -7077,0 -10608,1889 -10608,5667 0,2011 816,3636 2474,4896 1442,1073 4575,2596 9393,4542 5127,2075 8966,4346 11513,6833 3396,3331 5082,7446 5082,12326zm58569 -42600c-276,10087 -402,20158 -402,30229 0,19911 -8166,29873 -24469,29873 -8076,0 -14141,-2210 -18224,-6614 -4067,-4407 -6110,-12329 -6110,-23750 0,-10071 -138,-19991 -414,-29738l12744 0c-398,10148 -601,19911 -601,29339 0,8243 1060,13891 3164,16949 2085,3052 5326,4587 9702,4587 4591,0 7906,-1519 9949,-4558 2040,-3055 3055,-8735 3055,-17071 0,-9149 -202,-18899 -585,-29246l12191 0zm54682 15352c0,7154 -2657,12448 -7983,15873 -5326,3408 -11851,5127 -19590,5127 -1413,0 -2409,-29 -3010,-90 0,5635 170,13062 495,22304l-12638 0c385,-8658 585,-18867 585,-30624 0,-10794 -199,-20113 -585,-27942l7829 0c1108,0 3241,-29 6386,-122 3148,-93 5866,-138 8185,-138 5696,0 10498,1288 14430,3868 3929,2580 5895,6492 5895,11745zm-11607 2474c0,-6418 -4250,-9628 -12773,-9628 -2120,0 -4375,215 -6740,675 324,5667 492,12082 492,19252 752,45 1613,77 2609,77 10948,0 16412,-3453 16412,-10376zm74304 10376c0,9210 -2811,16840 -8458,22905 -5635,6049 -12606,9072 -20910,9072 -7922,0 -14540,-2779 -19879,-8336 -5342,-5554 -7999,-12635 -7999,-21199 0,-9213 2808,-16843 8442,-22908 5651,-6046 12618,-9072 20926,-9072 7906,0 14536,2766 19879,8320 5326,5545 7999,12622 7999,21218zm-12403 1304c0,-6264 -1613,-11346 -4822,-15243 -3206,-3900 -7167,-5850 -11867,-5850 -4391,0 -8105,1966 -11160,5895 -3055,3929 -4591,8889 -4591,14893 0,6232 1613,11314 4838,15227 3222,3900 7167,5866 11851,5866 4375,0 8089,-1966 11160,-5911 3055,-3945 4591,-8905 4591,-14877zm69758 29060l-13309 0c-3486,-10608 -6155,-17161 -8012,-19651 -1860,-2486 -4854,-3730 -8998,-3730 -1735,0 -3392,16 -4989,32 0,7707 138,15490 398,23348l-12496 0c385,-9056 585,-19265 585,-30624 0,-10916 -199,-20235 -585,-27942l7784 0c890,0 2779,-29 5635,-122 2869,-93 5509,-138 7951,-138 13756,0 20634,4713 20634,14122 0,7463 -3932,12667 -11777,15600l0 675c3026,845 5683,3209 7954,7093 2287,3884 5358,10990 9226,21337zm-16872 -41373c0,-5972 -3839,-8950 -11513,-8950 -2811,0 -5310,199 -7459,630 321,4639 492,10701 492,18163 1642,61 3039,90 4173,90 9551,0 14308,-3315 14308,-9933zm65309 -17193l-324 9673c-5985,-447 -11635,-678 -16949,-678 -61,5680 -90,11992 -90,18947 0,10791 167,21000 492,30624l-12590 0c382,-9531 585,-19740 585,-30624 0,-6833 -61,-13158 -186,-18947 -4221,0 -10023,247 -17395,723l353 -9718 46105 0zm48434 0l-321 9673c-5988,-447 -11635,-678 -16949,-678 -61,5680 -93,11992 -93,18947 0,10791 170,21000 492,30624l-12586 0c382,-9531 581,-19740 581,-30624 0,-6833 -61,-13158 -183,-18947 -4221,0 -10026,247 -17395,723l353 -9718 46102 0zm46102 48665l-366 9901 -38273 0c385,-9056 585,-19265 585,-30624 0,-10916 -199,-20235 -585,-27942l36522 0 -492 9856c-8995,-475 -17164,-723 -24469,-723 289,4176 443,9091 443,14755 6264,0 12972,-170 20113,-492l0 9396c-7019,-292 -13727,-447 -20113,-447 0,6081 122,11790 369,17087 8211,0 16962,-244 26265,-768zm51846 -752l-755 10331c-4266,1028 -8458,1536 -12602,1536 -10286,0 -18115,-2840 -23505,-8519 -5371,-5680 -8057,-12590 -8057,-20711 0,-8429 2856,-15767 8564,-21999 5712,-6232 13540,-9348 23505,-9348 3653,0 7106,414 10376,1256l-1564 10395c-3547,-1153 -6926,-1722 -10164,-1722 -6094,0 -10624,1937 -13585,5789 -2978,3855 -4452,8535 -4452,14048 0,5635 1767,10530 5281,14662 3530,4144 8458,6216 14816,6216 3730,0 7768,-642 12143,-1934z"/>
   </g>
   <g>
    <path class="fil0" d="M57869 45739c-33204,11517 -44329,48020 -38967,66077 14511,48865 144165,102133 335807,102596 -80533,-5204 -167430,-19853 -231926,-53063 -24540,-12635 -60754,-35469 -71480,-62999 -6724,-17257 -2300,-36789 6431,-52373l135 -238z"/>
    <path class="fil1" d="M115362 0c-11263,17800 -15719,34306 -14238,49677 4610,47776 51251,94963 143282,126712 52199,18009 119002,31055 201019,36423 -138672,1651 -251888,-19400 -320940,-54959 -37611,-19365 -61939,-41155 -69652,-60956 -10765,-27630 7109,-70661 60529,-96897z"/>
    <path class="fil2" d="M196750 93196c0,11732 -8426,17579 -25269,17579 -5725,0 -11054,-675 -15966,-2056l2194 -10039c4870,1687 9445,2515 13772,2515 4790,0 8246,-459 10331,-1381 2104,-935 3164,-2502 3164,-4681 0,-2287 -999,-4208 -2978,-5757 -1706,-1385 -5175,-3180 -10395,-5407 -4729,-2024 -8259,-4250 -10563,-6647 -2901,-3023 -4359,-6772 -4359,-11208 0,-5156 1905,-9178 5728,-12095 3823,-2901 9319,-4359 16486,-4359 5879,0 10807,488 14800,1487l-1674 9981c-4038,-1475 -8413,-2197 -13126,-2197 -7077,0 -10608,1889 -10608,5667 0,2011 816,3636 2474,4896 1442,1073 4575,2596 9393,4542 5127,2075 8966,4346 11513,6833 3396,3331 5082,7446 5082,12326zm58569 -42600c-276,10087 -402,20158 -402,30229 0,19911 -8166,29873 -24469,29873 -8076,0 -14141,-2210 -18224,-6614 -4067,-4407 -6110,-12329 -6110,-23750 0,-10071 -138,-19991 -414,-29738l12744 0c-398,10148 -601,19911 -601,29339 0,8243 1060,13891 3164,16949 2085,3052 5326,4587 9702,4587 4591,0 7906,-1519 9949,-4558 2040,-3055 3055,-8735 3055,-17071 0,-9149 -202,-18899 -585,-29246l12191 0zm54682 15352c0,7154 -2657,12448 -7983,15873 -5326,3408 -11851,5127 -19590,5127 -1413,0 -2409,-29 -3010,-90 0,5635 170,13062 495,22304l-12638 0c385,-8658 585,-18867 585,-30624 0,-10794 -199,-20113 -585,-27942l7829 0c1108,0 3241,-29 6386,-122 3148,-93 5866,-138 8185,-138 5696,0 10498,1288 14430,3868 3929,2580 5895,6492 5895,11745zm-11607 2474c0,-6418 -4250,-9628 -12773,-9628 -2120,0 -4375,215 -6740,675 324,5667 492,12082 492,19252 752,45 1613,77 2609,77 10948,0 16412,-3453 16412,-10376zm74304 10376c0,9210 -2811,16840 -8458,22905 -5635,6049 -12606,9072 -20910,9072 -7922,0 -14540,-2779 -19879,-8336 -5342,-5554 -7999,-12635 -7999,-21199 0,-9213 2808,-16843 8442,-22908 5651,-6046 12618,-9072 20926,-9072 7906,0 14536,2766 19879,8320 5326,5545 7999,12622 7999,21218zm-12403 1304c0,-6264 -1613,-11346 -4822,-15243 -3206,-3900 -7167,-5850 -11867,-5850 -4391,0 -8105,1966 -11160,5895 -3055,3929 -4591,8889 -4591,14893 0,6232 1613,11314 4838,15227 3222,3900 7167,5866 11851,5866 4375,0 8089,-1966 11160,-5911 3055,-3945 4591,-8905 4591,-14877zm69758 29060l-13309 0c-3486,-10608 -6155,-17161 -8012,-19651 -1860,-2486 -4854,-3730 -8998,-3730 -1735,0 -3392,16 -4989,32 0,7707 138,15490 398,23348l-12496 0c385,-9056 585,-19265 585,-30624 0,-10916 -199,-20235 -585,-27942l7784 0c890,0 2779,-29 5635,-122 2869,-93 5509,-138 7951,-138 13756,0 20634,4713 20634,14122 0,7463 -3932,12667 -11777,15600l0 675c3026,845 5683,3209 7954,7093 2287,3884 5358,10990 9226,21337zm-16872 -41373c0,-5972 -3839,-8950 -11513,-8950 -2811,0 -5310,199 -7459,630 321,4639 492,10701 492,18163 1642,61 3039,90 4173,90 9551,0 14308,-3315 14308,-9933zm65309 -17193l-324 9673c-5985,-447 -11635,-678 -16949,-678 -61,5680 -90,11992 -90,18947 0,10791 167,21000 492,30624l-12590 0c382,-9531 585,-19740 585,-30624 0,-6833 -61,-13158 -186,-18947 -4221,0 -10023,247 -17395,723l353 -9718 46105 0zm48434 0l-321 9673c-5988,-447 -11635,-678 -16949,-678 -61,5680 -93,11992 -93,18947 0,10791 170,21000 492,30624l-12586 0c382,-9531 581,-19740 581,-30624 0,-6833 -61,-13158 -183,-18947 -4221,0 -10026,247 -17395,723l353 -9718 46102 0zm46102 48665l-366 9901 -38273 0c385,-9056 585,-19265 585,-30624 0,-10916 -199,-20235 -585,-27942l36522 0 -492 9856c-8995,-475 -17164,-723 -24469,-723 289,4176 443,9091 443,14755 6264,0 12972,-170 20113,-492l0 9396c-7019,-292 -13727,-447 -20113,-447 0,6081 122,11790 369,17087 8211,0 16962,-244 26265,-768zm51846 -752l-755 10331c-4266,1028 -8458,1536 -12602,1536 -10286,0 -18115,-2840 -23505,-8519 -5371,-5680 -8057,-12590 -8057,-20711 0,-8429 2856,-15767 8564,-21999 5712,-6232 13540,-9348 23505,-9348 3653,0 7106,414 10376,1256l-1564 10395c-3547,-1153 -6926,-1722 -10164,-1722 -6094,0 -10624,1937 -13585,5789 -2978,3855 -4452,8535 -4452,14048 0,5635 1767,10530 5281,14662 3530,4144 8458,6216 14816,6216 3730,0 7768,-642 12143,-1934z"/>
   </g>
  </g>
 </g>
</svg>
