<?xml version="1.0" encoding="UTF-8"?>
<!DOCTYPE svg PUBLIC "-//W3C//DTD SVG 1.1//EN" "http://www.w3.org/Graphics/SVG/1.1/DTD/svg11.dtd">
<!-- Creator: CorelDRAW -->
<svg xmlns="http://www.w3.org/2000/svg" xml:space="preserve" width="34.842mm" height="11.0897mm" version="1.1" style="shape-rendering:geometricPrecision; text-rendering:geometricPrecision; image-rendering:optimizeQuality; fill-rule:evenodd; clip-rule:evenodd"
viewBox="0 0 224.42 71.43"
 xmlns:xlink="http://www.w3.org/1999/xlink"
 xmlns:xodm="http://www.corel.com/coreldraw/odm/2003">
 <defs>
  <style type="text/css">
   <![CDATA[
    .fil0 {fill:#007CC2}
    .fil1 {fill:#008DD0}
    .fil2 {fill:#201E1E;fill-rule:nonzero}
   ]]>
  </style>
 </defs>
 <g id="Camada_x0020_1">
  <metadata id="CorelCorpID_0Corel-Layer"/>
  <g id="_1611598044480">
   <g>
    <path class="fil0" d="M13.41 15.24c-11.06,3.84 -14.77,16 -12.98,22.01 4.83,16.28 48.03,34.03 111.87,34.18 -26.83,-1.73 -55.78,-6.62 -77.26,-17.68 -8.17,-4.21 -20.24,-11.82 -23.81,-20.99 -2.24,-5.75 -0.77,-12.26 2.14,-17.45l0.05 -0.08z"/>
    <path class="fil1" d="M32.56 0c-3.75,5.93 -5.24,11.43 -4.74,16.55 1.54,15.92 17.07,31.64 47.73,42.21 17.39,6 39.64,10.35 66.97,12.13 -46.2,0.55 -83.91,-6.46 -106.92,-18.31 -12.53,-6.45 -20.63,-13.71 -23.2,-20.31 -3.59,-9.2 2.37,-23.54 20.17,-32.28z"/>
   </g>
   <path class="fil2" d="M81.8 40.1c0,3.91 -2.81,5.86 -8.42,5.86 -1.91,0 -3.68,-0.23 -5.32,-0.69l0.73 -3.34c1.62,0.56 3.15,0.84 4.59,0.84 1.6,0 2.75,-0.15 3.44,-0.46 0.7,-0.31 1.05,-0.83 1.05,-1.56 0,-0.76 -0.33,-1.4 -0.99,-1.92 -0.57,-0.46 -1.72,-1.06 -3.46,-1.8 -1.58,-0.68 -2.75,-1.42 -3.52,-2.22 -0.97,-1.01 -1.45,-2.26 -1.45,-3.73 0,-1.72 0.63,-3.06 1.91,-4.03 1.27,-0.97 3.1,-1.45 5.49,-1.45 1.96,0 3.6,0.16 4.93,0.5l-0.56 3.32c-1.34,-0.49 -2.8,-0.73 -4.37,-0.73 -2.36,0 -3.53,0.63 -3.53,1.89 0,0.67 0.27,1.21 0.82,1.63 0.48,0.36 1.52,0.86 3.13,1.51 1.71,0.69 2.99,1.45 3.84,2.28 1.13,1.11 1.69,2.48 1.69,4.11zm19.51 -14.19c-0.09,3.36 -0.13,6.71 -0.13,10.07 0,6.63 -2.72,9.95 -8.15,9.95 -2.69,0 -4.71,-0.74 -6.07,-2.2 -1.36,-1.47 -2.04,-4.11 -2.04,-7.91 0,-3.35 -0.05,-6.66 -0.14,-9.91l4.24 0c-0.13,3.38 -0.2,6.63 -0.2,9.77 0,2.75 0.35,4.63 1.05,5.65 0.69,1.02 1.77,1.53 3.23,1.53 1.53,0 2.63,-0.51 3.31,-1.52 0.68,-1.02 1.02,-2.91 1.02,-5.69 0,-3.05 -0.07,-6.3 -0.19,-9.74l4.06 0zm18.22 5.11c0,2.38 -0.89,4.15 -2.66,5.29 -1.77,1.14 -3.95,1.71 -6.53,1.71 -0.47,0 -0.8,-0.01 -1,-0.03 0,1.88 0.06,4.35 0.16,7.43l-4.21 0c0.13,-2.88 0.19,-6.29 0.19,-10.2 0,-3.6 -0.07,-6.7 -0.19,-9.31l2.61 0c0.37,0 1.08,-0.01 2.13,-0.04 1.05,-0.03 1.95,-0.05 2.73,-0.05 1.9,0 3.5,0.43 4.81,1.29 1.31,0.86 1.96,2.16 1.96,3.91zm-3.87 0.82c0,-2.14 -1.42,-3.21 -4.25,-3.21 -0.71,0 -1.46,0.07 -2.25,0.23 0.11,1.89 0.16,4.02 0.16,6.41 0.25,0.01 0.54,0.03 0.87,0.03 3.65,0 5.47,-1.15 5.47,-3.46zm24.75 3.46c0,3.07 -0.94,5.61 -2.82,7.63 -1.88,2.02 -4.2,3.02 -6.97,3.02 -2.64,0 -4.84,-0.93 -6.62,-2.78 -1.78,-1.85 -2.66,-4.21 -2.66,-7.06 0,-3.07 0.94,-5.61 2.81,-7.63 1.88,-2.01 4.2,-3.02 6.97,-3.02 2.63,0 4.84,0.92 6.62,2.77 1.77,1.85 2.66,4.2 2.66,7.07zm-4.13 0.43c0,-2.09 -0.54,-3.78 -1.61,-5.08 -1.07,-1.3 -2.39,-1.95 -3.95,-1.95 -1.46,0 -2.7,0.66 -3.72,1.96 -1.02,1.31 -1.53,2.96 -1.53,4.96 0,2.08 0.54,3.77 1.61,5.07 1.07,1.3 2.39,1.95 3.95,1.95 1.46,0 2.69,-0.65 3.72,-1.97 1.02,-1.31 1.53,-2.97 1.53,-4.96zm23.24 9.68l-4.43 0c-1.16,-3.53 -2.05,-5.72 -2.67,-6.55 -0.62,-0.83 -1.62,-1.24 -3,-1.24 -0.58,0 -1.13,0.01 -1.66,0.01 0,2.57 0.05,5.16 0.13,7.78l-4.16 0c0.13,-3.02 0.19,-6.42 0.19,-10.2 0,-3.64 -0.07,-6.74 -0.19,-9.31l2.59 0c0.3,0 0.92,-0.01 1.88,-0.04 0.96,-0.03 1.84,-0.05 2.65,-0.05 4.58,0 6.87,1.57 6.87,4.71 0,2.49 -1.31,4.22 -3.92,5.2l0 0.23c1.01,0.28 1.89,1.07 2.65,2.36 0.76,1.29 1.78,3.66 3.07,7.11zm-5.62 -13.78c0,-1.99 -1.28,-2.98 -3.84,-2.98 -0.94,0 -1.77,0.07 -2.48,0.21 0.11,1.54 0.16,3.56 0.16,6.05 0.55,0.02 1.01,0.03 1.39,0.03 3.18,0 4.77,-1.1 4.77,-3.31zm21.76 -5.73l-0.11 3.22c-1.99,-0.15 -3.88,-0.22 -5.65,-0.22 -0.02,1.89 -0.03,3.99 -0.03,6.31 0,3.6 0.06,7 0.16,10.2l-4.19 0c0.13,-3.18 0.19,-6.58 0.19,-10.2 0,-2.28 -0.02,-4.38 -0.06,-6.31 -1.41,0 -3.34,0.08 -5.8,0.24l0.12 -3.24 15.36 0zm16.14 0l-0.11 3.22c-1.99,-0.15 -3.88,-0.22 -5.65,-0.22 -0.02,1.89 -0.03,3.99 -0.03,6.31 0,3.6 0.06,7 0.16,10.2l-4.19 0c0.13,-3.18 0.19,-6.58 0.19,-10.2 0,-2.28 -0.02,-4.38 -0.06,-6.31 -1.41,0 -3.34,0.08 -5.8,0.24l0.12 -3.24 15.36 0zm15.36 16.21l-0.12 3.3 -12.75 0c0.13,-3.02 0.19,-6.42 0.19,-10.2 0,-3.64 -0.07,-6.74 -0.19,-9.31l12.17 0 -0.16 3.28c-3,-0.16 -5.72,-0.24 -8.15,-0.24 0.1,1.39 0.15,3.03 0.15,4.92 2.09,0 4.32,-0.06 6.7,-0.16l0 3.13c-2.34,-0.1 -4.57,-0.15 -6.7,-0.15 0,2.03 0.04,3.93 0.12,5.69 2.74,0 5.65,-0.08 8.75,-0.26zm17.27 -0.25l-0.25 3.44c-1.42,0.34 -2.82,0.51 -4.2,0.51 -3.43,0 -6.03,-0.95 -7.83,-2.84 -1.79,-1.89 -2.69,-4.19 -2.69,-6.9 0,-2.81 0.95,-5.25 2.85,-7.33 1.9,-2.08 4.51,-3.11 7.83,-3.11 1.22,0 2.37,0.14 3.46,0.42l-0.52 3.46c-1.18,-0.38 -2.31,-0.57 -3.39,-0.57 -2.03,0 -3.54,0.64 -4.53,1.93 -0.99,1.28 -1.48,2.84 -1.48,4.68 0,1.88 0.59,3.51 1.76,4.88 1.18,1.38 2.82,2.07 4.94,2.07 1.24,0 2.59,-0.21 4.05,-0.64z"/>
  </g>
 </g>
</svg>
