<?xml version="1.0" encoding="UTF-8"?>
<!DOCTYPE svg PUBLIC "-//W3C//DTD SVG 1.1//EN" "http://www.w3.org/Graphics/SVG/1.1/DTD/svg11.dtd">
<!-- Creator: CorelDRAW -->
<svg xmlns="http://www.w3.org/2000/svg" xml:space="preserve" width="38.4372mm" height="13.5716mm" version="1.1" style="shape-rendering:geometricPrecision; text-rendering:geometricPrecision; image-rendering:optimizeQuality; fill-rule:evenodd; clip-rule:evenodd"
viewBox="0 0 1306844 461427"
 xmlns:xlink="http://www.w3.org/1999/xlink"
 xmlns:xodm="http://www.corel.com/coreldraw/odm/2003">
 <defs>
  <style type="text/css">
   <![CDATA[
    .fil1 {fill:#008DD0}
    .fil0 {fill:#007CC2}
    .fil2 {fill:#201E1E;fill-rule:nonzero}
   ]]>
  </style>
 </defs>
 <g id="Camada_x0020_1">
  <metadata id="CorelCorpID_0Corel-Layer"/>
  <g id="_1982635940992">
   <path class="fil0" d="M86627 98432c-71457,24786 -95399,103345 -83860,142203 31228,105160 310252,219796 722669,220796 -173305,-11203 -360316,-42731 -499115,-114201 -52808,-27193 -130745,-76329 -153827,-135580 -14467,-37138 -4950,-79171 13841,-112705l292 -513z"/>
   <path class="fil1" d="M210355 0c-24238,38307 -33829,73830 -30640,106911 9918,102811 110291,204361 308348,272689 112338,38753 256097,66829 432606,78382 -298430,3550 -542081,-41751 -690682,-118271 -80939,-41680 -133295,-88569 -149897,-131183 -23164,-59458 15303,-152066 130266,-208529z"/>
   <path class="fil2" d="M385503 200566c0,25241 -18135,37831 -54379,37831 -12325,0 -23789,-1455 -34360,-4427l4723 -21607c10475,3631 20321,5413 29637,5413 10309,0 17741,-986 22232,-2968 4529,-2016 6810,-5389 6810,-10081 0,-4920 -2149,-9051 -6412,-12386 -3665,-2975 -11131,-6841 -22368,-11631 -10176,-4359 -17772,-9149 -22729,-14307 -6246,-6507 -9384,-14569 -9384,-24116 0,-11101 4097,-19757 12325,-26033 8228,-6246 20053,-9384 35482,-9384 12655,0 23259,1054 31847,3203l-3601 21477c-8687,-3172 -18105,-4723 -28247,-4723 -15232,0 -22827,4060 -22827,12189 0,4328 1751,7830 5321,10540 3104,2309 9843,5583 20216,9778 11033,4461 19295,9350 24779,14701 7303,7170 10934,16024 10934,26530zm126043 -91680c-595,21705 -860,43377 -860,65051 0,42853 -17578,64290 -52662,64290 -17381,0 -30430,-4757 -39215,-14239 -8755,-9479 -13154,-26526 -13154,-51108 0,-21671 -292,-43016 -887,-63994l27421 0c-860,21838 -1289,42850 -1289,63137 0,17741 2278,29899 6807,36475 4491,6572 11461,9877 20879,9877 9877,0 17017,-3274 21409,-9812 4393,-6575 6572,-18798 6572,-36740 0,-19692 -428,-40670 -1255,-62936l26234 0zm117682 33037c0,15395 -5719,26792 -17180,34159 -11465,7337 -25506,11036 -42156,11036 -3043,0 -5188,-65 -6477,-197 0,12128 364,28114 1057,48004l-27189 0c826,-18632 1255,-40602 1255,-65911 0,-23225 -428,-43278 -1255,-60128l16847 0c2380,0 6970,-68 13743,-265 6776,-197 12624,-299 17612,-299 12257,0 22599,2778 31055,8326 8459,5552 12689,13974 12689,25275zm-24979 5321c0,-13814 -9149,-20716 -27485,-20716 -4563,0 -9418,462 -14504,1455 694,12189 1057,25999 1057,41428 1618,95 3468,167 5613,167 23558,0 35319,-7436 35319,-22334zm159906 22334c0,19822 -6045,36240 -18200,49289 -12128,13018 -27128,19529 -45002,19529 -17047,0 -31286,-5981 -42785,-17942 -11495,-11958 -17211,-27189 -17211,-45627 0,-19822 6042,-36240 18169,-49292 12158,-13018 27155,-19522 45032,-19522 17013,0 31286,5947 42785,17904 11461,11927 17211,27155 17211,45661zm-26693 2808c0,-13484 -3471,-24418 -10377,-32809 -6902,-8391 -15426,-12587 -25537,-12587 -9448,0 -17445,4230 -24021,12685 -6575,8459 -9877,19128 -9877,32048 0,13413 3471,24350 10411,32772 6936,8394 15426,12624 25503,12624 9418,0 17411,-4230 24021,-12723 6572,-8490 9877,-19162 9877,-32010zm150125 62539l-28645 0c-7500,-22827 -13246,-36937 -17241,-42289 -4002,-5352 -10445,-8027 -19363,-8027 -3733,0 -7303,34 -10737,65 0,16585 296,33336 857,50251l-26890 0c826,-19492 1255,-41466 1255,-65911 0,-23490 -428,-43543 -1255,-60128l16748 0c1918,0 5977,-68 12124,-265 6181,-197 11859,-299 17115,-299 29600,0 44403,10142 44403,30396 0,16058 -8459,27257 -25343,33568l0 1455c6511,1816 12226,6905 17115,15262 4923,8357 11529,23653 19856,45923zm-36308 -89038c0,-12855 -8258,-19261 -24779,-19261 -6049,0 -11431,428 -16055,1357 694,9975 1057,23024 1057,39082 3533,129 6538,197 8983,197 20553,0 30793,-7136 30793,-21375zm140544 -37002l-694 20814c-12882,-962 -25041,-1455 -36475,-1455 -133,12223 -197,25802 -197,40769 0,23225 364,45195 1057,65911l-27091 0c826,-20515 1255,-42486 1255,-65911 0,-14701 -129,-28315 -394,-40769 -9085,0 -21576,530 -37437,1550l762 -20910 99214 0zm104239 0l-697 20814c-12879,-962 -25037,-1455 -36471,-1455 -133,12223 -197,25802 -197,40769 0,23225 364,45195 1057,65911l-27091 0c826,-20515 1255,-42486 1255,-65911 0,-14701 -133,-28315 -398,-40769 -9085,0 -21573,530 -37433,1550l762 -20910 99214 0zm99214 104732l-792 21307 -82360 0c823,-19492 1255,-41466 1255,-65911 0,-23490 -432,-43543 -1255,-60128l78597 0 -1061 21209c-19359,-1023 -36934,-1554 -52662,-1554 626,8989 959,19560 959,31752 13481,0 27917,-364 43281,-1057l0 20219c-15099,-629 -29539,-959 -43281,-959 0,13083 265,25374 792,36770 17676,0 36505,-527 56527,-1649zm111569 -1618l-1618 22232c-9183,2213 -18203,3305 -27125,3305 -22134,0 -38984,-6113 -50581,-18336 -11563,-12226 -17343,-27094 -17343,-44570 0,-18139 6144,-33931 18435,-47344 12287,-13413 29138,-20117 50581,-20117 7864,0 15296,891 22334,2706l-3369 22365c-7633,-2475 -14902,-3699 -21875,-3699 -13114,0 -22861,4165 -29236,12457 -6409,8292 -9581,18370 -9581,30229 0,12128 3801,22664 11363,31551 7602,8921 18207,13379 31885,13379 8027,0 16718,-1384 26132,-4158z"/>
  </g>
 </g>
</svg>
